%TF.GenerationSoftware,KiCad,Pcbnew,10.0.5*%
%TF.CreationDate,2026-08-20T09:48:50+02:00*%
%TF.ProjectId,stern_puck,73746572-6e5f-4707-9563-6b2e6b696361,rev?*%
%TF.SameCoordinates,Original*%
%TF.FileFunction,AssemblyDrawing,Top*%
%FSLAX46Y46*%
G04 Gerber Fmt 4.6, Leading zero omitted, Abs format (unit mm)*
G04 Created by KiCad (PCBNEW 10.0.5) date 2026-08-20 09:48:50*
%MOMM*%
%LPD*%
G01*
G04 APERTURE LIST*
%ADD10C,0.158750*%
G04 APERTURE END LIST*
D10*
X-8738809Y-579271D02*
X-8738809Y690728D01*
X-8738809Y690728D02*
X-8436428Y690728D01*
X-8436428Y690728D02*
X-8254999Y630252D01*
X-8254999Y630252D02*
X-8134047Y509300D01*
X-8134047Y509300D02*
X-8073570Y388347D01*
X-8073570Y388347D02*
X-8013094Y146443D01*
X-8013094Y146443D02*
X-8013094Y-34985D01*
X-8013094Y-34985D02*
X-8073570Y-276890D01*
X-8073570Y-276890D02*
X-8134047Y-397842D01*
X-8134047Y-397842D02*
X-8254999Y-518795D01*
X-8254999Y-518795D02*
X-8436428Y-579271D01*
X-8436428Y-579271D02*
X-8738809Y-579271D01*
X-6743094Y-458318D02*
X-6803570Y-518795D01*
X-6803570Y-518795D02*
X-6984999Y-579271D01*
X-6984999Y-579271D02*
X-7105951Y-579271D01*
X-7105951Y-579271D02*
X-7287380Y-518795D01*
X-7287380Y-518795D02*
X-7408332Y-397842D01*
X-7408332Y-397842D02*
X-7468809Y-276890D01*
X-7468809Y-276890D02*
X-7529285Y-34985D01*
X-7529285Y-34985D02*
X-7529285Y146443D01*
X-7529285Y146443D02*
X-7468809Y388347D01*
X-7468809Y388347D02*
X-7408332Y509300D01*
X-7408332Y509300D02*
X-7287380Y630252D01*
X-7287380Y630252D02*
X-7105951Y690728D01*
X-7105951Y690728D02*
X-6984999Y690728D01*
X-6984999Y690728D02*
X-6803570Y630252D01*
X-6803570Y630252D02*
X-6743094Y569776D01*
X-6319761Y690728D02*
X-5473094Y-579271D01*
X-5473094Y690728D02*
X-6319761Y-579271D01*
X-4989285Y-95461D02*
X-4021666Y-95461D01*
X-3356427Y-579271D02*
X-3114523Y-579271D01*
X-3114523Y-579271D02*
X-2993570Y-518795D01*
X-2993570Y-518795D02*
X-2933094Y-458318D01*
X-2933094Y-458318D02*
X-2812142Y-276890D01*
X-2812142Y-276890D02*
X-2751665Y-34985D01*
X-2751665Y-34985D02*
X-2751665Y448824D01*
X-2751665Y448824D02*
X-2812142Y569776D01*
X-2812142Y569776D02*
X-2872618Y630252D01*
X-2872618Y630252D02*
X-2993570Y690728D01*
X-2993570Y690728D02*
X-3235475Y690728D01*
X-3235475Y690728D02*
X-3356427Y630252D01*
X-3356427Y630252D02*
X-3416904Y569776D01*
X-3416904Y569776D02*
X-3477380Y448824D01*
X-3477380Y448824D02*
X-3477380Y146443D01*
X-3477380Y146443D02*
X-3416904Y25490D01*
X-3416904Y25490D02*
X-3356427Y-34985D01*
X-3356427Y-34985D02*
X-3235475Y-95461D01*
X-3235475Y-95461D02*
X-2993570Y-95461D01*
X-2993570Y-95461D02*
X-2872618Y-34985D01*
X-2872618Y-34985D02*
X-2812142Y25490D01*
X-2812142Y25490D02*
X-2751665Y146443D01*
X-1965475Y690728D02*
X-1844522Y690728D01*
X-1844522Y690728D02*
X-1723570Y630252D01*
X-1723570Y630252D02*
X-1663094Y569776D01*
X-1663094Y569776D02*
X-1602618Y448824D01*
X-1602618Y448824D02*
X-1542141Y206919D01*
X-1542141Y206919D02*
X-1542141Y-95461D01*
X-1542141Y-95461D02*
X-1602618Y-337366D01*
X-1602618Y-337366D02*
X-1663094Y-458318D01*
X-1663094Y-458318D02*
X-1723570Y-518795D01*
X-1723570Y-518795D02*
X-1844522Y-579271D01*
X-1844522Y-579271D02*
X-1965475Y-579271D01*
X-1965475Y-579271D02*
X-2086427Y-518795D01*
X-2086427Y-518795D02*
X-2146903Y-458318D01*
X-2146903Y-458318D02*
X-2207380Y-337366D01*
X-2207380Y-337366D02*
X-2267856Y-95461D01*
X-2267856Y-95461D02*
X-2267856Y206919D01*
X-2267856Y206919D02*
X-2207380Y448824D01*
X-2207380Y448824D02*
X-2146903Y569776D01*
X-2146903Y569776D02*
X-2086427Y630252D01*
X-2086427Y630252D02*
X-1965475Y690728D01*
X-937379Y-579271D02*
X-695475Y-579271D01*
X-695475Y-579271D02*
X-574522Y-518795D01*
X-574522Y-518795D02*
X-514046Y-458318D01*
X-514046Y-458318D02*
X-393094Y-276890D01*
X-393094Y-276890D02*
X-332617Y-34985D01*
X-332617Y-34985D02*
X-332617Y448824D01*
X-332617Y448824D02*
X-393094Y569776D01*
X-393094Y569776D02*
X-453570Y630252D01*
X-453570Y630252D02*
X-574522Y690728D01*
X-574522Y690728D02*
X-816427Y690728D01*
X-816427Y690728D02*
X-937379Y630252D01*
X-937379Y630252D02*
X-997856Y569776D01*
X-997856Y569776D02*
X-1058332Y448824D01*
X-1058332Y448824D02*
X-1058332Y146443D01*
X-1058332Y146443D02*
X-997856Y25490D01*
X-997856Y25490D02*
X-937379Y-34985D01*
X-937379Y-34985D02*
X-816427Y-95461D01*
X-816427Y-95461D02*
X-574522Y-95461D01*
X-574522Y-95461D02*
X-453570Y-34985D01*
X-453570Y-34985D02*
X-393094Y25490D01*
X-393094Y25490D02*
X-332617Y146443D01*
X1179286Y-95461D02*
X2146906Y-95461D01*
X1663096Y-579271D02*
X1663096Y388347D01*
X4324048Y-579271D02*
X3719286Y-579271D01*
X3719286Y-579271D02*
X3719286Y690728D01*
X4747381Y-579271D02*
X4747381Y267395D01*
X4747381Y690728D02*
X4686905Y630252D01*
X4686905Y630252D02*
X4747381Y569776D01*
X4747381Y569776D02*
X4807858Y630252D01*
X4807858Y630252D02*
X4747381Y690728D01*
X4747381Y690728D02*
X4747381Y569776D01*
X5170715Y267395D02*
X5654524Y267395D01*
X5352143Y690728D02*
X5352143Y-397842D01*
X5352143Y-397842D02*
X5412620Y-518795D01*
X5412620Y-518795D02*
X5533572Y-579271D01*
X5533572Y-579271D02*
X5654524Y-579271D01*
X5956905Y267395D02*
X6622143Y267395D01*
X6622143Y267395D02*
X5956905Y-579271D01*
X5956905Y-579271D02*
X6622143Y-579271D01*
X7589762Y-518795D02*
X7468810Y-579271D01*
X7468810Y-579271D02*
X7226905Y-579271D01*
X7226905Y-579271D02*
X7105952Y-518795D01*
X7105952Y-518795D02*
X7045476Y-397842D01*
X7045476Y-397842D02*
X7045476Y85966D01*
X7045476Y85966D02*
X7105952Y206919D01*
X7105952Y206919D02*
X7226905Y267395D01*
X7226905Y267395D02*
X7468810Y267395D01*
X7468810Y267395D02*
X7589762Y206919D01*
X7589762Y206919D02*
X7650238Y85966D01*
X7650238Y85966D02*
X7650238Y-34985D01*
X7650238Y-34985D02*
X7045476Y-155937D01*
X8194523Y267395D02*
X8194523Y-579271D01*
X8194523Y146443D02*
X8255000Y206919D01*
X8255000Y206919D02*
X8375952Y267395D01*
X8375952Y267395D02*
X8557381Y267395D01*
X8557381Y267395D02*
X8678333Y206919D01*
X8678333Y206919D02*
X8738809Y85966D01*
X8738809Y85966D02*
X8738809Y-579271D01*
M02*
