%TF.GenerationSoftware,KiCad,Pcbnew,7.0.11+dfsg-1build4*%
%TF.CreationDate,2026-08-14T18:45:04+00:00*%
%TF.ProjectId,top_ui,746f705f-7569-42e6-9b69-6361645f7063,rev?*%
%TF.SameCoordinates,Original*%
%TF.FileFunction,Legend,Bot*%
%TF.FilePolarity,Positive*%
%FSLAX46Y46*%
G04 Gerber Fmt 4.6, Leading zero omitted, Abs format (unit mm)*
G04 Created by KiCad (PCBNEW 7.0.11+dfsg-1build4) date 2026-08-14 18:45:04*
%MOMM*%
%LPD*%
G01*
G04 APERTURE LIST*
%ADD10C,0.150000*%
%ADD11C,0.120000*%
G04 APERTURE END LIST*
D10*
X8537151Y-6537942D02*
X8060960Y-6204609D01*
X8537151Y-5966514D02*
X7537151Y-5966514D01*
X7537151Y-5966514D02*
X7537151Y-6347466D01*
X7537151Y-6347466D02*
X7584770Y-6442704D01*
X7584770Y-6442704D02*
X7632389Y-6490323D01*
X7632389Y-6490323D02*
X7727627Y-6537942D01*
X7727627Y-6537942D02*
X7870484Y-6537942D01*
X7870484Y-6537942D02*
X7965722Y-6490323D01*
X7965722Y-6490323D02*
X8013341Y-6442704D01*
X8013341Y-6442704D02*
X8060960Y-6347466D01*
X8060960Y-6347466D02*
X8060960Y-5966514D01*
X7870484Y-7395085D02*
X8537151Y-7395085D01*
X7489532Y-7156990D02*
X8203817Y-6918895D01*
X8203817Y-6918895D02*
X8203817Y-7537942D01*
X3855026Y-17101866D02*
X3950264Y-17054247D01*
X3950264Y-17054247D02*
X4045502Y-16959009D01*
X4045502Y-16959009D02*
X4188359Y-16816151D01*
X4188359Y-16816151D02*
X4283597Y-16768532D01*
X4283597Y-16768532D02*
X4378835Y-16768532D01*
X4331216Y-17006628D02*
X4426454Y-16959009D01*
X4426454Y-16959009D02*
X4521692Y-16863770D01*
X4521692Y-16863770D02*
X4569311Y-16673294D01*
X4569311Y-16673294D02*
X4569311Y-16339961D01*
X4569311Y-16339961D02*
X4521692Y-16149485D01*
X4521692Y-16149485D02*
X4426454Y-16054247D01*
X4426454Y-16054247D02*
X4331216Y-16006628D01*
X4331216Y-16006628D02*
X4140740Y-16006628D01*
X4140740Y-16006628D02*
X4045502Y-16054247D01*
X4045502Y-16054247D02*
X3950264Y-16149485D01*
X3950264Y-16149485D02*
X3902645Y-16339961D01*
X3902645Y-16339961D02*
X3902645Y-16673294D01*
X3902645Y-16673294D02*
X3950264Y-16863770D01*
X3950264Y-16863770D02*
X4045502Y-16959009D01*
X4045502Y-16959009D02*
X4140740Y-17006628D01*
X4140740Y-17006628D02*
X4331216Y-17006628D01*
X2950264Y-17006628D02*
X3521692Y-17006628D01*
X3235978Y-17006628D02*
X3235978Y-16006628D01*
X3235978Y-16006628D02*
X3331216Y-16149485D01*
X3331216Y-16149485D02*
X3426454Y-16244723D01*
X3426454Y-16244723D02*
X3521692Y-16292342D01*
X3926454Y-8536628D02*
X4259787Y-8060437D01*
X4497882Y-8536628D02*
X4497882Y-7536628D01*
X4497882Y-7536628D02*
X4116930Y-7536628D01*
X4116930Y-7536628D02*
X4021692Y-7584247D01*
X4021692Y-7584247D02*
X3974073Y-7631866D01*
X3974073Y-7631866D02*
X3926454Y-7727104D01*
X3926454Y-7727104D02*
X3926454Y-7869961D01*
X3926454Y-7869961D02*
X3974073Y-7965199D01*
X3974073Y-7965199D02*
X4021692Y-8012818D01*
X4021692Y-8012818D02*
X4116930Y-8060437D01*
X4116930Y-8060437D02*
X4497882Y-8060437D01*
X3593120Y-7536628D02*
X2974073Y-7536628D01*
X2974073Y-7536628D02*
X3307406Y-7917580D01*
X3307406Y-7917580D02*
X3164549Y-7917580D01*
X3164549Y-7917580D02*
X3069311Y-7965199D01*
X3069311Y-7965199D02*
X3021692Y-8012818D01*
X3021692Y-8012818D02*
X2974073Y-8108056D01*
X2974073Y-8108056D02*
X2974073Y-8346151D01*
X2974073Y-8346151D02*
X3021692Y-8441389D01*
X3021692Y-8441389D02*
X3069311Y-8489009D01*
X3069311Y-8489009D02*
X3164549Y-8536628D01*
X3164549Y-8536628D02*
X3450263Y-8536628D01*
X3450263Y-8536628D02*
X3545501Y-8489009D01*
X3545501Y-8489009D02*
X3593120Y-8441389D01*
X10209214Y-21765912D02*
X9733023Y-21432579D01*
X10209214Y-21194484D02*
X9209214Y-21194484D01*
X9209214Y-21194484D02*
X9209214Y-21575436D01*
X9209214Y-21575436D02*
X9256833Y-21670674D01*
X9256833Y-21670674D02*
X9304452Y-21718293D01*
X9304452Y-21718293D02*
X9399690Y-21765912D01*
X9399690Y-21765912D02*
X9542547Y-21765912D01*
X9542547Y-21765912D02*
X9637785Y-21718293D01*
X9637785Y-21718293D02*
X9685404Y-21670674D01*
X9685404Y-21670674D02*
X9733023Y-21575436D01*
X9733023Y-21575436D02*
X9733023Y-21194484D01*
X9304452Y-22146865D02*
X9256833Y-22194484D01*
X9256833Y-22194484D02*
X9209214Y-22289722D01*
X9209214Y-22289722D02*
X9209214Y-22527817D01*
X9209214Y-22527817D02*
X9256833Y-22623055D01*
X9256833Y-22623055D02*
X9304452Y-22670674D01*
X9304452Y-22670674D02*
X9399690Y-22718293D01*
X9399690Y-22718293D02*
X9494928Y-22718293D01*
X9494928Y-22718293D02*
X9637785Y-22670674D01*
X9637785Y-22670674D02*
X10209214Y-22099246D01*
X10209214Y-22099246D02*
X10209214Y-22718293D01*
X-5718110Y-20281482D02*
X-4908587Y-20281482D01*
X-4908587Y-20281482D02*
X-4813349Y-20329101D01*
X-4813349Y-20329101D02*
X-4765730Y-20376720D01*
X-4765730Y-20376720D02*
X-4718110Y-20471958D01*
X-4718110Y-20471958D02*
X-4718110Y-20662434D01*
X-4718110Y-20662434D02*
X-4765730Y-20757672D01*
X-4765730Y-20757672D02*
X-4813349Y-20805291D01*
X-4813349Y-20805291D02*
X-4908587Y-20852910D01*
X-4908587Y-20852910D02*
X-5718110Y-20852910D01*
X-4718110Y-21852910D02*
X-4718110Y-21281482D01*
X-4718110Y-21567196D02*
X-5718110Y-21567196D01*
X-5718110Y-21567196D02*
X-5575253Y-21471958D01*
X-5575253Y-21471958D02*
X-5480015Y-21376720D01*
X-5480015Y-21376720D02*
X-5432396Y-21281482D01*
X9298083Y-20691215D02*
X9345702Y-20738835D01*
X9345702Y-20738835D02*
X9488559Y-20786454D01*
X9488559Y-20786454D02*
X9583797Y-20786454D01*
X9583797Y-20786454D02*
X9726654Y-20738835D01*
X9726654Y-20738835D02*
X9821892Y-20643596D01*
X9821892Y-20643596D02*
X9869511Y-20548358D01*
X9869511Y-20548358D02*
X9917130Y-20357882D01*
X9917130Y-20357882D02*
X9917130Y-20215025D01*
X9917130Y-20215025D02*
X9869511Y-20024549D01*
X9869511Y-20024549D02*
X9821892Y-19929311D01*
X9821892Y-19929311D02*
X9726654Y-19834073D01*
X9726654Y-19834073D02*
X9583797Y-19786454D01*
X9583797Y-19786454D02*
X9488559Y-19786454D01*
X9488559Y-19786454D02*
X9345702Y-19834073D01*
X9345702Y-19834073D02*
X9298083Y-19881692D01*
X8917130Y-19881692D02*
X8869511Y-19834073D01*
X8869511Y-19834073D02*
X8774273Y-19786454D01*
X8774273Y-19786454D02*
X8536178Y-19786454D01*
X8536178Y-19786454D02*
X8440940Y-19834073D01*
X8440940Y-19834073D02*
X8393321Y-19881692D01*
X8393321Y-19881692D02*
X8345702Y-19976930D01*
X8345702Y-19976930D02*
X8345702Y-20072168D01*
X8345702Y-20072168D02*
X8393321Y-20215025D01*
X8393321Y-20215025D02*
X8964749Y-20786454D01*
X8964749Y-20786454D02*
X8345702Y-20786454D01*
X6709845Y-10056570D02*
X6662226Y-9961332D01*
X6662226Y-9961332D02*
X6566988Y-9866094D01*
X6566988Y-9866094D02*
X6424130Y-9723237D01*
X6424130Y-9723237D02*
X6376511Y-9627999D01*
X6376511Y-9627999D02*
X6376511Y-9532761D01*
X6614607Y-9580380D02*
X6566988Y-9485142D01*
X6566988Y-9485142D02*
X6471749Y-9389904D01*
X6471749Y-9389904D02*
X6281273Y-9342285D01*
X6281273Y-9342285D02*
X5947940Y-9342285D01*
X5947940Y-9342285D02*
X5757464Y-9389904D01*
X5757464Y-9389904D02*
X5662226Y-9485142D01*
X5662226Y-9485142D02*
X5614607Y-9580380D01*
X5614607Y-9580380D02*
X5614607Y-9770856D01*
X5614607Y-9770856D02*
X5662226Y-9866094D01*
X5662226Y-9866094D02*
X5757464Y-9961332D01*
X5757464Y-9961332D02*
X5947940Y-10008951D01*
X5947940Y-10008951D02*
X6281273Y-10008951D01*
X6281273Y-10008951D02*
X6471749Y-9961332D01*
X6471749Y-9961332D02*
X6566988Y-9866094D01*
X6566988Y-9866094D02*
X6614607Y-9770856D01*
X6614607Y-9770856D02*
X6614607Y-9580380D01*
X5709845Y-10389904D02*
X5662226Y-10437523D01*
X5662226Y-10437523D02*
X5614607Y-10532761D01*
X5614607Y-10532761D02*
X5614607Y-10770856D01*
X5614607Y-10770856D02*
X5662226Y-10866094D01*
X5662226Y-10866094D02*
X5709845Y-10913713D01*
X5709845Y-10913713D02*
X5805083Y-10961332D01*
X5805083Y-10961332D02*
X5900321Y-10961332D01*
X5900321Y-10961332D02*
X6043178Y-10913713D01*
X6043178Y-10913713D02*
X6614607Y-10342285D01*
X6614607Y-10342285D02*
X6614607Y-10961332D01*
X14590403Y-19483118D02*
X14638023Y-19435499D01*
X14638023Y-19435499D02*
X14685642Y-19292642D01*
X14685642Y-19292642D02*
X14685642Y-19197404D01*
X14685642Y-19197404D02*
X14638023Y-19054547D01*
X14638023Y-19054547D02*
X14542784Y-18959309D01*
X14542784Y-18959309D02*
X14447546Y-18911690D01*
X14447546Y-18911690D02*
X14257070Y-18864071D01*
X14257070Y-18864071D02*
X14114213Y-18864071D01*
X14114213Y-18864071D02*
X13923737Y-18911690D01*
X13923737Y-18911690D02*
X13828499Y-18959309D01*
X13828499Y-18959309D02*
X13733261Y-19054547D01*
X13733261Y-19054547D02*
X13685642Y-19197404D01*
X13685642Y-19197404D02*
X13685642Y-19292642D01*
X13685642Y-19292642D02*
X13733261Y-19435499D01*
X13733261Y-19435499D02*
X13780880Y-19483118D01*
X14685642Y-20435499D02*
X14685642Y-19864071D01*
X14685642Y-20149785D02*
X13685642Y-20149785D01*
X13685642Y-20149785D02*
X13828499Y-20054547D01*
X13828499Y-20054547D02*
X13923737Y-19959309D01*
X13923737Y-19959309D02*
X13971356Y-19864071D01*
X8307019Y-22565789D02*
X7830828Y-22232456D01*
X8307019Y-21994361D02*
X7307019Y-21994361D01*
X7307019Y-21994361D02*
X7307019Y-22375313D01*
X7307019Y-22375313D02*
X7354638Y-22470551D01*
X7354638Y-22470551D02*
X7402257Y-22518170D01*
X7402257Y-22518170D02*
X7497495Y-22565789D01*
X7497495Y-22565789D02*
X7640352Y-22565789D01*
X7640352Y-22565789D02*
X7735590Y-22518170D01*
X7735590Y-22518170D02*
X7783209Y-22470551D01*
X7783209Y-22470551D02*
X7830828Y-22375313D01*
X7830828Y-22375313D02*
X7830828Y-21994361D01*
X8307019Y-23518170D02*
X8307019Y-22946742D01*
X8307019Y-23232456D02*
X7307019Y-23232456D01*
X7307019Y-23232456D02*
X7449876Y-23137218D01*
X7449876Y-23137218D02*
X7545114Y-23041980D01*
X7545114Y-23041980D02*
X7592733Y-22946742D01*
D11*
%TO.C,R4*%
X6129832Y-6941867D02*
X6129832Y-6467351D01*
X7174832Y-6941867D02*
X7174832Y-6467351D01*
%TO.C,Q1*%
X3759788Y-12591809D02*
X3109788Y-12591809D01*
X3759788Y-12591809D02*
X4409788Y-12591809D01*
X3759788Y-15711809D02*
X3109788Y-15711809D01*
X3759788Y-15711809D02*
X4409788Y-15711809D01*
X2837288Y-15991809D02*
X2357288Y-15991809D01*
X2597288Y-15661809D01*
X2837288Y-15991809D01*
G36*
X2837288Y-15991809D02*
G01*
X2357288Y-15991809D01*
X2597288Y-15661809D01*
X2837288Y-15991809D01*
G37*
%TO.C,R3*%
X3522530Y-6129309D02*
X3997046Y-6129309D01*
X3522530Y-7174309D02*
X3997046Y-7174309D01*
%TO.C,R2*%
X7801895Y-22169837D02*
X7801895Y-21695321D01*
X8846895Y-22169837D02*
X8846895Y-21695321D01*
%TO.C,U1*%
X-9132930Y-21043387D02*
X-9132930Y-21843387D01*
X-9132930Y-21043387D02*
X-9132930Y-20243387D01*
X-6012930Y-21043387D02*
X-6012930Y-21843387D01*
X-6012930Y-21043387D02*
X-6012930Y-20243387D01*
X-5732930Y-22583387D02*
X-6062930Y-22343387D01*
X-5732930Y-22103387D01*
X-5732930Y-22583387D01*
G36*
X-5732930Y-22583387D02*
G01*
X-6062930Y-22343387D01*
X-5732930Y-22103387D01*
X-5732930Y-22583387D01*
G37*
%TO.C,C2*%
X8420165Y-16671635D02*
X9842669Y-16671635D01*
X8420165Y-19391635D02*
X9842669Y-19391635D01*
%TO.C,Q2*%
X2199788Y-10151809D02*
X2199788Y-10801809D01*
X2199788Y-10151809D02*
X2199788Y-9501809D01*
X5319788Y-10151809D02*
X5319788Y-10801809D01*
X5319788Y-10151809D02*
X5319788Y-9501809D01*
X5599788Y-11554309D02*
X5269788Y-11314309D01*
X5599788Y-11074309D01*
X5599788Y-11554309D01*
G36*
X5599788Y-11554309D02*
G01*
X5269788Y-11314309D01*
X5599788Y-11074309D01*
X5599788Y-11554309D01*
G37*
%TO.C,C1*%
X12290823Y-19790365D02*
X12290823Y-19509205D01*
X13310823Y-19790365D02*
X13310823Y-19509205D01*
%TO.C,R1*%
X5899700Y-22969714D02*
X5899700Y-22495198D01*
X6944700Y-22969714D02*
X6944700Y-22495198D01*
%TD*%
M02*
