%TF.GenerationSoftware,KiCad,Pcbnew,7.0.11+dfsg-1build4*%
%TF.CreationDate,2026-08-14T18:45:04+00:00*%
%TF.ProjectId,top_ui,746f705f-7569-42e6-9b69-6361645f7063,rev?*%
%TF.SameCoordinates,Original*%
%TF.FileFunction,Copper,L2,Bot*%
%TF.FilePolarity,Positive*%
%FSLAX46Y46*%
G04 Gerber Fmt 4.6, Leading zero omitted, Abs format (unit mm)*
G04 Created by KiCad (PCBNEW 7.0.11+dfsg-1build4) date 2026-08-14 18:45:04*
%MOMM*%
%LPD*%
G01*
G04 APERTURE LIST*
G04 Aperture macros list*
%AMRoundRect*
0 Rectangle with rounded corners*
0 $1 Rounding radius*
0 $2 $3 $4 $5 $6 $7 $8 $9 X,Y pos of 4 corners*
0 Add a 4 corners polygon primitive as box body*
4,1,4,$2,$3,$4,$5,$6,$7,$8,$9,$2,$3,0*
0 Add four circle primitives for the rounded corners*
1,1,$1+$1,$2,$3*
1,1,$1+$1,$4,$5*
1,1,$1+$1,$6,$7*
1,1,$1+$1,$8,$9*
0 Add four rect primitives between the rounded corners*
20,1,$1+$1,$2,$3,$4,$5,0*
20,1,$1+$1,$4,$5,$6,$7,0*
20,1,$1+$1,$6,$7,$8,$9,0*
20,1,$1+$1,$8,$9,$2,$3,0*%
G04 Aperture macros list end*
%TA.AperFunction,ComponentPad*%
%ADD10RoundRect,0.250000X-0.350000X-0.625000X0.350000X-0.625000X0.350000X0.625000X-0.350000X0.625000X0*%
%TD*%
%TA.AperFunction,ComponentPad*%
%ADD11O,1.200000X1.750000*%
%TD*%
%TA.AperFunction,ComponentPad*%
%ADD12R,1.000000X1.000000*%
%TD*%
%TA.AperFunction,ComponentPad*%
%ADD13O,1.000000X1.000000*%
%TD*%
%TA.AperFunction,ComponentPad*%
%ADD14C,0.700000*%
%TD*%
%TA.AperFunction,ComponentPad*%
%ADD15O,0.900000X2.400000*%
%TD*%
%TA.AperFunction,ComponentPad*%
%ADD16O,0.900000X1.700000*%
%TD*%
%TA.AperFunction,ComponentPad*%
%ADD17RoundRect,0.250000X0.625000X-0.350000X0.625000X0.350000X-0.625000X0.350000X-0.625000X-0.350000X0*%
%TD*%
%TA.AperFunction,ComponentPad*%
%ADD18O,1.750000X1.200000*%
%TD*%
%TA.AperFunction,SMDPad,CuDef*%
%ADD19RoundRect,0.200000X0.275000X-0.200000X0.275000X0.200000X-0.275000X0.200000X-0.275000X-0.200000X0*%
%TD*%
%TA.AperFunction,SMDPad,CuDef*%
%ADD20RoundRect,0.150000X-0.587500X-0.150000X0.587500X-0.150000X0.587500X0.150000X-0.587500X0.150000X0*%
%TD*%
%TA.AperFunction,SMDPad,CuDef*%
%ADD21RoundRect,0.200000X-0.200000X-0.275000X0.200000X-0.275000X0.200000X0.275000X-0.200000X0.275000X0*%
%TD*%
%TA.AperFunction,SMDPad,CuDef*%
%ADD22RoundRect,0.150000X0.150000X-0.512500X0.150000X0.512500X-0.150000X0.512500X-0.150000X-0.512500X0*%
%TD*%
%TA.AperFunction,SMDPad,CuDef*%
%ADD23RoundRect,0.250000X-0.325000X-1.100000X0.325000X-1.100000X0.325000X1.100000X-0.325000X1.100000X0*%
%TD*%
%TA.AperFunction,SMDPad,CuDef*%
%ADD24RoundRect,0.150000X0.150000X-0.587500X0.150000X0.587500X-0.150000X0.587500X-0.150000X-0.587500X0*%
%TD*%
%TA.AperFunction,SMDPad,CuDef*%
%ADD25RoundRect,0.225000X0.250000X-0.225000X0.250000X0.225000X-0.250000X0.225000X-0.250000X-0.225000X0*%
%TD*%
%TA.AperFunction,ViaPad*%
%ADD26C,0.800000*%
%TD*%
%TA.AperFunction,ViaPad*%
%ADD27C,0.600000*%
%TD*%
%TA.AperFunction,Conductor*%
%ADD28C,0.500000*%
%TD*%
%TA.AperFunction,Conductor*%
%ADD29C,0.200000*%
%TD*%
G04 APERTURE END LIST*
D10*
%TO.P,J7,1*%
%TO.N,3V3_SYS*%
X-9299999Y-12750000D03*
D11*
%TO.P,J7,2*%
%TO.N,PGND*%
X-7299999Y-12750000D03*
%TO.P,J7,3*%
%TO.N,UART_RADAR_TX*%
X-5299999Y-12750000D03*
%TO.P,J7,4*%
%TO.N,UART_RADAR_RX*%
X-3299999Y-12750000D03*
%TO.P,J7,5*%
%TO.N,RADAR_INT*%
X-1299999Y-12750000D03*
%TD*%
D12*
%TO.P,J2,1*%
%TO.N,PGND*%
X-13555000Y14049999D03*
D13*
%TO.P,J2,2*%
X-14825000Y14049999D03*
%TO.P,J2,3*%
%TO.N,5V_SYS*%
X-13555000Y12779999D03*
%TO.P,J2,4*%
X-14825000Y12779999D03*
%TO.P,J2,5*%
X-13555000Y11509999D03*
%TO.P,J2,6*%
X-14825000Y11509999D03*
%TO.P,J2,7*%
%TO.N,PGND*%
X-13555000Y10239999D03*
%TO.P,J2,8*%
X-14825000Y10239999D03*
%TO.P,J2,9*%
%TO.N,3V3_SYS*%
X-13555000Y8969999D03*
%TO.P,J2,10*%
X-14825000Y8969999D03*
%TO.P,J2,11*%
%TO.N,PGND*%
X-13555000Y7699999D03*
%TO.P,J2,12*%
X-14825000Y7699999D03*
%TO.P,J2,13*%
%TO.N,6V2_STAR_F*%
X-13555000Y6429999D03*
%TO.P,J2,14*%
%TO.N,PGND*%
X-14825000Y6429999D03*
%TO.P,J2,15*%
X-13555000Y5159999D03*
%TO.P,J2,16*%
%TO.N,M1_INA*%
X-14825000Y5159999D03*
%TO.P,J2,17*%
%TO.N,M1_INB*%
X-13555000Y3889999D03*
%TO.P,J2,18*%
%TO.N,USB_VBUS*%
X-14825000Y3889999D03*
%TO.P,J2,19*%
%TO.N,PGND*%
X-13555000Y2619999D03*
%TO.P,J2,20*%
%TO.N,M2_INA*%
X-14825000Y2619999D03*
%TO.P,J2,21*%
%TO.N,PGND*%
X-13555000Y1349999D03*
%TO.P,J2,22*%
%TO.N,M2_INB*%
X-14825000Y1349999D03*
%TO.P,J2,23*%
%TO.N,STAR_EN*%
X-13555000Y79999D03*
%TO.P,J2,24*%
%TO.N,RSV_A2*%
X-14825000Y79999D03*
%TO.P,J2,25*%
%TO.N,PGND*%
X-13555000Y-1190001D03*
%TO.P,J2,26*%
%TO.N,I_SENSE1*%
X-14825000Y-1190001D03*
%TO.P,J2,27*%
%TO.N,AGND*%
X-13555000Y-2460001D03*
%TO.P,J2,28*%
%TO.N,I_SENSE2*%
X-14825000Y-2460001D03*
%TO.P,J2,29*%
%TO.N,AGND*%
X-13555000Y-3730001D03*
%TO.P,J2,30*%
%TO.N,HW_TRIP1*%
X-14825000Y-3730001D03*
%TO.P,J2,31*%
%TO.N,HW_TRIP2*%
X-13555000Y-5000001D03*
%TO.P,J2,32*%
%TO.N,TRIP_RST*%
X-14825000Y-5000001D03*
%TO.P,J2,33*%
%TO.N,RELAY_CTL*%
X-13555000Y-6270001D03*
%TO.P,J2,34*%
%TO.N,USB_DP*%
X-14825000Y-6270001D03*
%TO.P,J2,35*%
%TO.N,RSV_A4*%
X-13555000Y-7540001D03*
%TO.P,J2,36*%
%TO.N,USB_DN*%
X-14825000Y-7540001D03*
%TO.P,J2,37*%
%TO.N,RSV_A6*%
X-13555000Y-8810001D03*
%TO.P,J2,38*%
%TO.N,PGND*%
X-14825000Y-8810001D03*
%TO.P,J2,39*%
X-13555000Y-10080001D03*
%TO.P,J2,40*%
X-14825000Y-10080001D03*
%TD*%
D12*
%TO.P,J5,1*%
%TO.N,3V3_SYS*%
X0Y2724999D03*
D13*
%TO.P,J5,2*%
%TO.N,PGND*%
X0Y1454999D03*
%TO.P,J5,3*%
%TO.N,QSPI_CLK*%
X0Y184999D03*
%TO.P,J5,4*%
%TO.N,QSPI_D0*%
X0Y-1085001D03*
%TO.P,J5,5*%
%TO.N,QSPI_D1*%
X0Y-2355001D03*
%TO.P,J5,6*%
%TO.N,QSPI_D2*%
X0Y-3625001D03*
%TO.P,J5,7*%
%TO.N,QSPI_D3*%
X0Y-4895001D03*
%TO.P,J5,8*%
%TO.N,DISP_CS*%
X0Y-6165001D03*
%TO.P,J5,9*%
%TO.N,DISP_RST*%
X0Y-7435001D03*
%TO.P,J5,10*%
%TO.N,DISP_BL*%
X0Y-8705001D03*
%TD*%
D14*
%TO.P,J1,A1*%
%TO.N,PGND*%
X2975000Y-25625000D03*
%TO.P,J1,A4*%
%TO.N,USB_VBUS*%
X2125000Y-25625000D03*
%TO.P,J1,A5*%
%TO.N,USB_CC1*%
X1275000Y-25625000D03*
%TO.P,J1,A6*%
%TO.N,USB_DP_C*%
X425000Y-25625000D03*
%TO.P,J1,A7*%
%TO.N,USB_DN_C*%
X-425000Y-25625000D03*
%TO.P,J1,A8*%
%TO.N,N/C*%
X-1275000Y-25625000D03*
%TO.P,J1,A9*%
%TO.N,USB_VBUS*%
X-2125000Y-25625000D03*
%TO.P,J1,A12*%
%TO.N,PGND*%
X-2975000Y-25625000D03*
%TO.P,J1,B1*%
X-2975000Y-24275000D03*
%TO.P,J1,B4*%
%TO.N,USB_VBUS*%
X-2125000Y-24275000D03*
%TO.P,J1,B5*%
%TO.N,USB_CC2*%
X-1275000Y-24275000D03*
%TO.P,J1,B6*%
%TO.N,USB_DP_C*%
X-425000Y-24275000D03*
%TO.P,J1,B7*%
%TO.N,USB_DN_C*%
X425000Y-24275000D03*
%TO.P,J1,B8*%
%TO.N,N/C*%
X1275000Y-24275000D03*
%TO.P,J1,B9*%
%TO.N,USB_VBUS*%
X2125000Y-24275000D03*
%TO.P,J1,B12*%
%TO.N,PGND*%
X2975000Y-24275000D03*
D15*
%TO.P,J1,S1*%
X4325000Y-24645000D03*
D16*
X4325000Y-21265000D03*
D15*
X-4325000Y-24645000D03*
D16*
X-4325000Y-21265000D03*
%TD*%
D12*
%TO.P,J3,1*%
%TO.N,PGND*%
X14844999Y14049999D03*
D13*
%TO.P,J3,2*%
X13574999Y14049999D03*
%TO.P,J3,3*%
%TO.N,3V3_SYS*%
X14844999Y12779999D03*
%TO.P,J3,4*%
X13574999Y12779999D03*
%TO.P,J3,5*%
%TO.N,PGND*%
X14844999Y11509999D03*
%TO.P,J3,6*%
%TO.N,I2C_SCL*%
X13574999Y11509999D03*
%TO.P,J3,7*%
%TO.N,PGND*%
X14844999Y10239999D03*
%TO.P,J3,8*%
%TO.N,I2C_SDA*%
X13574999Y10239999D03*
%TO.P,J3,9*%
%TO.N,PGND*%
X14844999Y8969999D03*
%TO.P,J3,10*%
%TO.N,I2C_INT*%
X13574999Y8969999D03*
%TO.P,J3,11*%
%TO.N,PGND*%
X14844999Y7699999D03*
%TO.P,J3,12*%
%TO.N,UART485_TX*%
X13574999Y7699999D03*
%TO.P,J3,13*%
%TO.N,PGND*%
X14844999Y6429999D03*
%TO.P,J3,14*%
%TO.N,UART485_RX*%
X13574999Y6429999D03*
%TO.P,J3,15*%
%TO.N,RS485_DIR*%
X14844999Y5159999D03*
%TO.P,J3,16*%
X13574999Y5159999D03*
%TO.P,J3,17*%
%TO.N,PGND*%
X14844999Y3889999D03*
%TO.P,J3,18*%
%TO.N,UART_RADAR_TX*%
X13574999Y3889999D03*
%TO.P,J3,19*%
%TO.N,PGND*%
X14844999Y2619999D03*
%TO.P,J3,20*%
%TO.N,UART_RADAR_RX*%
X13574999Y2619999D03*
%TO.P,J3,21*%
%TO.N,RADAR_INT*%
X14844999Y1349999D03*
%TO.P,J3,22*%
%TO.N,PGND*%
X13574999Y1349999D03*
%TO.P,J3,23*%
%TO.N,AUDIO_PWM*%
X14844999Y79999D03*
%TO.P,J3,24*%
%TO.N,QSPI_CLK*%
X13574999Y79999D03*
%TO.P,J3,25*%
%TO.N,PGND*%
X14844999Y-1190001D03*
%TO.P,J3,26*%
%TO.N,BTN1*%
X13574999Y-1190001D03*
%TO.P,J3,27*%
%TO.N,BTN2*%
X14844999Y-2460001D03*
%TO.P,J3,28*%
%TO.N,BTN3*%
X13574999Y-2460001D03*
%TO.P,J3,29*%
%TO.N,BTN4*%
X14844999Y-3730001D03*
%TO.P,J3,30*%
%TO.N,PGND*%
X13574999Y-3730001D03*
%TO.P,J3,31*%
%TO.N,QSPI_D0*%
X14844999Y-5000001D03*
%TO.P,J3,32*%
%TO.N,QSPI_D1*%
X13574999Y-5000001D03*
%TO.P,J3,33*%
%TO.N,PGND*%
X14844999Y-6270001D03*
%TO.P,J3,34*%
%TO.N,QSPI_D2*%
X13574999Y-6270001D03*
%TO.P,J3,35*%
%TO.N,QSPI_D3*%
X14844999Y-7540001D03*
%TO.P,J3,36*%
%TO.N,DISP_CS*%
X13574999Y-7540001D03*
%TO.P,J3,37*%
%TO.N,DISP_RST*%
X14844999Y-8810001D03*
%TO.P,J3,38*%
%TO.N,DISP_BL*%
X13574999Y-8810001D03*
%TO.P,J3,39*%
%TO.N,PGND*%
X14844999Y-10080001D03*
%TO.P,J3,40*%
X13574999Y-10080001D03*
%TD*%
D17*
%TO.P,J6,1*%
%TO.N,STAR_OUT*%
X8350000Y-13600000D03*
D18*
%TO.P,J6,2*%
%TO.N,PGND*%
X8350000Y-11600000D03*
%TD*%
D19*
%TO.P,R4,1*%
%TO.N,6V2_STAR_F*%
X6652332Y-7529609D03*
%TO.P,R4,2*%
%TO.N,STAR_G*%
X6652332Y-5879609D03*
%TD*%
D20*
%TO.P,Q1,1*%
%TO.N,STAR_B*%
X2822288Y-15101809D03*
%TO.P,Q1,2*%
%TO.N,STAR_G*%
X2822288Y-13201809D03*
%TO.P,Q1,3*%
%TO.N,PGND*%
X4697288Y-14151809D03*
%TD*%
D21*
%TO.P,R3,1*%
%TO.N,STAR_EN*%
X2934788Y-6651809D03*
%TO.P,R3,2*%
%TO.N,STAR_B*%
X4584788Y-6651809D03*
%TD*%
D19*
%TO.P,R2,1*%
%TO.N,USB_CC2*%
X8324395Y-22757579D03*
%TO.P,R2,2*%
%TO.N,PGND*%
X8324395Y-21107579D03*
%TD*%
D22*
%TO.P,U1,1*%
%TO.N,USB_DN_C*%
X-6622930Y-22180887D03*
%TO.P,U1,2*%
%TO.N,PGND*%
X-7572930Y-22180887D03*
%TO.P,U1,3*%
%TO.N,USB_DP_C*%
X-8522930Y-22180887D03*
%TO.P,U1,4*%
%TO.N,USB_DP*%
X-8522930Y-19905887D03*
%TO.P,U1,5*%
%TO.N,USB_VBUS*%
X-7572930Y-19905887D03*
%TO.P,U1,6*%
%TO.N,USB_DN*%
X-6622930Y-19905887D03*
%TD*%
D23*
%TO.P,C2,1*%
%TO.N,STAR_OUT*%
X7656417Y-18031635D03*
%TO.P,C2,2*%
%TO.N,PGND*%
X10606417Y-18031635D03*
%TD*%
D24*
%TO.P,Q2,1*%
%TO.N,STAR_G*%
X4709788Y-11089309D03*
%TO.P,Q2,2*%
%TO.N,6V2_STAR_F*%
X2809788Y-11089309D03*
%TO.P,Q2,3*%
%TO.N,STAR_OUT*%
X3759788Y-9214309D03*
%TD*%
D25*
%TO.P,C1,1*%
%TO.N,3V3_SYS*%
X12800823Y-20424785D03*
%TO.P,C1,2*%
%TO.N,PGND*%
X12800823Y-18874785D03*
%TD*%
D19*
%TO.P,R1,1*%
%TO.N,USB_CC1*%
X6422200Y-23557456D03*
%TO.P,R1,2*%
%TO.N,PGND*%
X6422200Y-21907456D03*
%TD*%
D26*
%TO.N,3V3_SYS*%
X7251400Y-1135900D03*
%TO.N,6V2_STAR_F*%
X6754400Y-10927500D03*
X3759800Y-11080900D03*
D27*
%TO.N,BTN1*%
X10151300Y4895200D03*
X15884800Y13600000D03*
X11411500Y18002100D03*
%TO.N,BTN3*%
X12492000Y-9666300D03*
%TO.N,DISP_RST*%
X10516400Y-13190900D03*
X15903500Y-7751500D03*
X7721700Y-8085600D03*
%TO.N,I2C_SCL*%
X11087400Y13834700D03*
%TO.N,I2C_SDA*%
X10135400Y13747400D03*
%TO.N,PGND*%
X18750300Y2620000D03*
X9963500Y-21670900D03*
X-1360800Y-22047500D03*
X-2157800Y-10205500D03*
X19445500Y579400D03*
X-9065100Y13702600D03*
X13784600Y-19741300D03*
X10953800Y633800D03*
%TO.N,QSPI_D0*%
X-2197000Y4277600D03*
%TO.N,QSPI_D3*%
X11127100Y-11343000D03*
%TO.N,RADAR_INT*%
X3749400Y-17389300D03*
X13696400Y-13890000D03*
X16848700Y-233900D03*
%TO.N,USB_CC2*%
X1665900Y-21533400D03*
%TO.N,USB_DP_C*%
X-7530100Y-23856900D03*
X-5243900Y-23856900D03*
D26*
%TO.N,USB_VBUS*%
X-10210500Y-19682100D03*
%TD*%
D28*
%TO.N,3V3_SYS*%
X-9300000Y5666700D02*
X-9300000Y-12750000D01*
X11878800Y-11031600D02*
X11632600Y-10785400D01*
X11632600Y-5517100D02*
X7251400Y-1135900D01*
X-12603300Y8970000D02*
X-9300000Y5666700D01*
X11878800Y-14050800D02*
X11878800Y-11031600D01*
X11816200Y-14113400D02*
X11878800Y-14050800D01*
X11816200Y-19440200D02*
X11816200Y-14113400D01*
X-13555000Y8970000D02*
X-12603300Y8970000D01*
X11632600Y-10785400D02*
X11632600Y-5517100D01*
X12800800Y-20424800D02*
X11816200Y-19440200D01*
D29*
%TO.N,5V_SYS*%
X-14825000Y11510000D02*
X-14825000Y12780000D01*
D28*
%TO.N,6V2_STAR_F*%
X6754400Y-10927500D02*
X6754400Y-7631700D01*
X3759800Y-11080900D02*
X2818200Y-11080900D01*
X6754400Y-7631700D02*
X6652300Y-7529600D01*
X2818200Y-11080900D02*
X2809800Y-11089300D01*
D29*
%TO.N,AGND*%
X-13555000Y-3730000D02*
X-13555000Y-2460000D01*
%TO.N,BTN1*%
X11411500Y15215600D02*
X10811600Y15215600D01*
X9583400Y5463100D02*
X10151300Y4895200D01*
X10811600Y15215600D02*
X9583400Y13987400D01*
X15884800Y14366400D02*
X15035600Y15215600D01*
X15884800Y13600000D02*
X15884800Y14366400D01*
X9583400Y13987400D02*
X9583400Y5463100D01*
X11411500Y18002100D02*
X11411500Y15215600D01*
X15035600Y15215600D02*
X11411500Y15215600D01*
%TO.N,BTN3*%
X12492000Y-3543000D02*
X13575000Y-2460000D01*
X12492000Y-9666300D02*
X12492000Y-3543000D01*
%TO.N,DISP_RST*%
X15596900Y-8810000D02*
X15596900Y-8058100D01*
X10516400Y-11583000D02*
X10516400Y-13190900D01*
X14845000Y-8810000D02*
X15596900Y-8810000D01*
X7721700Y-8085600D02*
X7721700Y-8788300D01*
X15596900Y-8058100D02*
X15903500Y-7751500D01*
X7721700Y-8788300D02*
X10516400Y-11583000D01*
%TO.N,I2C_SCL*%
X13575000Y11510000D02*
X13412100Y11510000D01*
X13412100Y11510000D02*
X11087400Y13834700D01*
%TO.N,I2C_SDA*%
X13575000Y10307800D02*
X10135400Y13747400D01*
X13575000Y10240000D02*
X13575000Y10307800D01*
%TO.N,PGND*%
X14847400Y2515600D02*
X15607900Y1755100D01*
X14845000Y2620000D02*
X14845000Y3890000D01*
X13575000Y1350000D02*
X10953800Y1350000D01*
X-12784600Y-9309600D02*
X-13555000Y-10080000D01*
X7866800Y-23479300D02*
X6422200Y-22034700D01*
X18750300Y2620000D02*
X18750300Y1274600D01*
X10953800Y1350000D02*
X10953800Y633800D01*
X10606400Y-18031600D02*
X10606400Y-14080300D01*
X8324400Y-21107600D02*
X9079200Y-21862400D01*
X9079200Y-21862400D02*
X9079200Y-23124100D01*
X-3542500Y-22047500D02*
X-1360800Y-22047500D01*
X9079200Y-21862400D02*
X9772000Y-21862400D01*
X-13555000Y1350000D02*
X-13555000Y2620000D01*
X0Y1455000D02*
X-2157800Y-702800D01*
X4325000Y-21265000D02*
X4325000Y-24645000D01*
X8724000Y-23479300D02*
X7866800Y-23479300D01*
X-14825000Y-10080000D02*
X-14825000Y-8810000D01*
X9079200Y-23124100D02*
X8724000Y-23479300D01*
X14845000Y8970000D02*
X14845000Y10240000D01*
X12918100Y-18874800D02*
X13784600Y-19741300D01*
X14845000Y6430000D02*
X14845000Y7700000D01*
X13575000Y-10831900D02*
X13575000Y-10080000D01*
X-12787600Y3387400D02*
X-12787600Y4392600D01*
X-14825000Y10240000D02*
X-15597900Y11012900D01*
X16476100Y-7149200D02*
X15596900Y-6270000D01*
X-12784600Y-1960400D02*
X-12784600Y-9309600D01*
X14740600Y2515600D02*
X14845000Y2620000D01*
X-12455700Y13702600D02*
X-9065100Y13702600D01*
X-4325000Y-21265000D02*
X-3542500Y-22047500D01*
X16476100Y-8448900D02*
X16476100Y-7149200D01*
X14845000Y10240000D02*
X14845000Y11510000D01*
X14845000Y-6270000D02*
X15596900Y-6270000D01*
X4697300Y-17480500D02*
X4697300Y-14151800D01*
X8978000Y-12451900D02*
X8350000Y-12451900D01*
X-7572900Y-22533000D02*
X-5460900Y-24645000D01*
X10606400Y-21028000D02*
X10606400Y-18031600D01*
X13575000Y1350000D02*
X14740600Y2515600D01*
X10606400Y-14080300D02*
X8978000Y-12451900D01*
X10953800Y1350000D02*
X10848800Y1455000D01*
X-15597900Y13277100D02*
X-14825000Y14050000D01*
X-12787600Y4392600D02*
X-13555000Y5160000D01*
X8324400Y-21107600D02*
X4697300Y-17480500D01*
X14740600Y2515600D02*
X14847400Y2515600D01*
X9772000Y-21862400D02*
X9963500Y-21670900D01*
X-7572900Y-22180900D02*
X-7572900Y-22533000D01*
X-13555000Y-1190000D02*
X-12784600Y-1960400D01*
X-13555000Y2620000D02*
X-12787600Y3387400D01*
X12800800Y-11606100D02*
X13575000Y-10831900D01*
X6422200Y-22034700D02*
X6422200Y-21907500D01*
X12800800Y-18874800D02*
X12800800Y-11606100D01*
X-13555000Y5160000D02*
X-14825000Y6430000D01*
X8350000Y-12451900D02*
X8350000Y-11600000D01*
X15607900Y1755100D02*
X15607900Y-427100D01*
X-5460900Y-24645000D02*
X-4325000Y-24645000D01*
X-12803100Y14050000D02*
X-12455700Y13702600D01*
X9963500Y-21670900D02*
X10606400Y-21028000D01*
X18750300Y1274600D02*
X19445500Y579400D01*
X10848800Y1455000D02*
X0Y1455000D01*
X14845000Y7700000D02*
X14845000Y8970000D01*
X-13555000Y14050000D02*
X-12803100Y14050000D01*
X14845000Y-10080000D02*
X16476100Y-8448900D01*
X15607900Y-427100D02*
X14845000Y-1190000D01*
X12800800Y-18874800D02*
X12918100Y-18874800D01*
X-14825000Y7700000D02*
X-14825000Y6430000D01*
X-2157800Y-702800D02*
X-2157800Y-10205500D01*
X-15597900Y11012900D02*
X-15597900Y13277100D01*
%TO.N,QSPI_CLK*%
X856900Y80000D02*
X13575000Y80000D01*
X751900Y185000D02*
X856900Y80000D01*
X0Y185000D02*
X751900Y185000D01*
%TO.N,QSPI_D0*%
X11107900Y18586600D02*
X-2197000Y5281700D01*
X16196300Y1088500D02*
X16486400Y1378600D01*
X14845000Y-5000000D02*
X16196300Y-3648700D01*
X-2197000Y5281700D02*
X-2197000Y4277600D01*
X16486400Y14282900D02*
X12182700Y18586600D01*
X12182700Y18586600D02*
X11107900Y18586600D01*
X16486400Y1378600D02*
X16486400Y14282900D01*
X16196300Y-3648700D02*
X16196300Y1088500D01*
%TO.N,QSPI_D3*%
X11127100Y-11343000D02*
X8415300Y-8631200D01*
X6835000Y-4895000D02*
X0Y-4895000D01*
X8415300Y-8631200D02*
X8415300Y-6475300D01*
X8415300Y-6475300D02*
X6835000Y-4895000D01*
%TO.N,RADAR_INT*%
X13696400Y-13890000D02*
X16848700Y-10737700D01*
X16848700Y-10737700D02*
X16848700Y-233900D01*
X3749400Y-17389300D02*
X-448100Y-13191800D01*
X-448100Y-13191800D02*
X-448100Y-12750000D01*
X-1300000Y-12750000D02*
X-448100Y-12750000D01*
%TO.N,STAR_B*%
X2822300Y-15101800D02*
X1815000Y-14094500D01*
X1815000Y-9199100D02*
X4362300Y-6651800D01*
X4362300Y-6651800D02*
X4584800Y-6651800D01*
X1815000Y-14094500D02*
X1815000Y-9199100D01*
%TO.N,STAR_EN*%
X-2300000Y-12125400D02*
X-2300000Y-13250900D01*
X2934800Y-6651800D02*
X2934800Y-6890600D01*
X-12044400Y-1430600D02*
X-13555000Y80000D01*
X2934800Y-6890600D02*
X-2300000Y-12125400D01*
X-2300000Y-13250900D02*
X-2987600Y-13938500D01*
X-9869900Y-13938500D02*
X-12044400Y-11764000D01*
X-12044400Y-11764000D02*
X-12044400Y-1430600D01*
X-2987600Y-13938500D02*
X-9869900Y-13938500D01*
%TO.N,STAR_G*%
X2822300Y-13201800D02*
X2188800Y-12568300D01*
X3800200Y-7762400D02*
X4769500Y-7762400D01*
X4709800Y-11314300D02*
X2822300Y-13201800D01*
X2188800Y-9373800D02*
X3800200Y-7762400D01*
X4769500Y-7762400D02*
X6652300Y-5879600D01*
X2188800Y-12568300D02*
X2188800Y-9373800D01*
X4709800Y-11089300D02*
X4709800Y-11314300D01*
D28*
%TO.N,STAR_OUT*%
X4463400Y-9214300D02*
X5902700Y-10653600D01*
X5902700Y-11280200D02*
X8222500Y-13600000D01*
X7656400Y-14293600D02*
X8350000Y-13600000D01*
X7656400Y-18031600D02*
X7656400Y-14293600D01*
X3759800Y-9214300D02*
X4463400Y-9214300D01*
X8222500Y-13600000D02*
X8350000Y-13600000D01*
X5902700Y-10653600D02*
X5902700Y-11280200D01*
D29*
%TO.N,UART_RADAR_RX*%
X-625000Y3526700D02*
X-3300000Y851700D01*
X12823100Y2620000D02*
X11916400Y3526700D01*
X11916400Y3526700D02*
X-625000Y3526700D01*
X-3300000Y851700D02*
X-3300000Y-12750000D01*
X13575000Y2620000D02*
X12823100Y2620000D01*
%TO.N,UART_RADAR_TX*%
X-763900Y3890000D02*
X13575000Y3890000D01*
X-5300000Y-646100D02*
X-763900Y3890000D01*
X-5300000Y-12750000D02*
X-5300000Y-646100D01*
%TO.N,USB_CC1*%
X5465800Y-22601100D02*
X5465800Y-20989500D01*
X4632000Y-20155700D02*
X4010900Y-20155700D01*
X3174500Y-24926700D02*
X1847700Y-24926700D01*
X6422200Y-23557500D02*
X5465800Y-22601100D01*
X1275000Y-25499400D02*
X1275000Y-25625000D01*
X1847700Y-24926700D02*
X1275000Y-25499400D01*
X4010900Y-20155700D02*
X3576900Y-20589700D01*
X5465800Y-20989500D02*
X4632000Y-20155700D01*
X3576900Y-24524300D02*
X3174500Y-24926700D01*
X3576900Y-20589700D02*
X3576900Y-24524300D01*
%TO.N,USB_CC2*%
X3436700Y-19762600D02*
X1665900Y-21533400D01*
X8324400Y-22653100D02*
X5433900Y-19762600D01*
X8324400Y-22757600D02*
X8324400Y-22653100D01*
X5433900Y-19762600D02*
X3436700Y-19762600D01*
%TO.N,USB_DN*%
X-6622900Y-19905900D02*
X-6622900Y-19550300D01*
X-6622900Y-19550300D02*
X-15592500Y-10580700D01*
X-15592500Y-8307500D02*
X-14825000Y-7540000D01*
X-15592500Y-10580700D02*
X-15592500Y-8307500D01*
%TO.N,USB_DN_C*%
X-6622900Y-22180900D02*
X-6204300Y-22599500D01*
X425000Y-24443000D02*
X-425000Y-25293000D01*
X-425000Y-25293000D02*
X-425000Y-25625000D01*
X-1151300Y-22599500D02*
X425000Y-24175800D01*
X425000Y-24175800D02*
X425000Y-24275000D01*
X-6204300Y-22599500D02*
X-1151300Y-22599500D01*
X425000Y-24275000D02*
X425000Y-24443000D01*
%TO.N,USB_DP*%
X-8522900Y-19905900D02*
X-15953900Y-12474900D01*
X-15953900Y-12474900D02*
X-15953900Y-7398900D01*
X-15953900Y-7398900D02*
X-14825000Y-6270000D01*
%TO.N,USB_DP_C*%
X-1413800Y-23181700D02*
X-4626900Y-23181700D01*
X-4626900Y-23181700D02*
X-5243900Y-23798700D01*
X-425000Y-24170500D02*
X-1413800Y-23181700D01*
X-5243900Y-23798700D02*
X-5243900Y-23856900D01*
X-425000Y-24275000D02*
X-425000Y-24170500D01*
X-8522900Y-22180900D02*
X-8522900Y-22864100D01*
X-8522900Y-22864100D02*
X-7530100Y-23856900D01*
D28*
%TO.N,USB_VBUS*%
X-6155900Y-21043400D02*
X-5063100Y-19950600D01*
X-7016700Y-21040000D02*
X-8900000Y-21040000D01*
X-7572900Y-20476200D02*
X-7012900Y-21036200D01*
X-7010000Y-21040000D02*
X-7016700Y-21040000D01*
X-16530900Y-13361700D02*
X-10210500Y-19682100D01*
X-1884300Y-19950600D02*
X2125000Y-23959900D01*
X-15776700Y3890000D02*
X-16530900Y3135800D01*
X-10209200Y-19680800D02*
X-10210000Y-19680000D01*
X-5063100Y-19950600D02*
X-1884300Y-19950600D01*
X-16530900Y3135800D02*
X-16530900Y-13361700D01*
X-7005700Y-21043400D02*
X-6155900Y-21043400D01*
X-10210500Y-19682100D02*
X-10209200Y-19680800D01*
X2125000Y-23959900D02*
X2125000Y-24275000D01*
X-7572900Y-19905900D02*
X-7572900Y-20476200D01*
X-7016700Y-21040000D02*
X-7012900Y-21036200D01*
X-7012900Y-21036200D02*
X-7005700Y-21043400D01*
X-8900000Y-21040000D02*
X-10209200Y-19680800D01*
X-14825000Y3890000D02*
X-15776700Y3890000D01*
%TD*%
%TA.AperFunction,Conductor*%
%TO.N,PGND*%
G36*
X-5243916Y-23019685D02*
G01*
X-5198161Y-23072489D01*
X-5188217Y-23141647D01*
X-5217242Y-23205203D01*
X-5223274Y-23211681D01*
X-5235914Y-23224321D01*
X-5297237Y-23257806D01*
X-5307408Y-23259578D01*
X-5400662Y-23271856D01*
X-5505122Y-23315125D01*
X-5546741Y-23332364D01*
X-5672182Y-23428618D01*
X-5768436Y-23554059D01*
X-5828944Y-23700138D01*
X-5831049Y-23716129D01*
X-5848255Y-23846823D01*
X-5849582Y-23856900D01*
X-5828944Y-24013662D01*
X-5768436Y-24159741D01*
X-5672182Y-24285182D01*
X-5546741Y-24381436D01*
X-5400662Y-24441944D01*
X-5296154Y-24455702D01*
X-5243901Y-24462582D01*
X-5243900Y-24462582D01*
X-5243899Y-24462582D01*
X-5165519Y-24452263D01*
X-5087138Y-24441944D01*
X-5047530Y-24425538D01*
X-4996592Y-24404439D01*
X-4949140Y-24395000D01*
X-4625000Y-24395000D01*
X-4625000Y-24895000D01*
X-4761724Y-24895000D01*
X-5317998Y-24784350D01*
X-5318000Y-24784348D01*
X-6566029Y-24536100D01*
X-6581696Y-24531902D01*
X-6980672Y-24396468D01*
X-7037827Y-24356279D01*
X-7064180Y-24291570D01*
X-7051366Y-24222886D01*
X-7039189Y-24203562D01*
X-7005564Y-24159742D01*
X-6945056Y-24013662D01*
X-6945055Y-24013660D01*
X-6924418Y-23856901D01*
X-6924418Y-23856898D01*
X-6945055Y-23700139D01*
X-6945056Y-23700137D01*
X-7005564Y-23554057D01*
X-7106360Y-23422698D01*
X-7131554Y-23357529D01*
X-7117516Y-23289084D01*
X-7071104Y-23240479D01*
X-7021374Y-23211069D01*
X-7021368Y-23211065D01*
X-6982141Y-23171837D01*
X-6920818Y-23138351D01*
X-6865505Y-23141745D01*
X-6864998Y-23139423D01*
X-6857631Y-23141032D01*
X-6857629Y-23141033D01*
X-6857626Y-23141033D01*
X-6857623Y-23141034D01*
X-6827200Y-23143887D01*
X-6827196Y-23143887D01*
X-6418660Y-23143887D01*
X-6388230Y-23141033D01*
X-6388228Y-23141033D01*
X-6277321Y-23102224D01*
X-6260048Y-23096180D01*
X-6260045Y-23096178D01*
X-6260043Y-23096177D01*
X-6162558Y-23024230D01*
X-6096929Y-23000259D01*
X-6088925Y-23000000D01*
X-5310955Y-23000000D01*
X-5243916Y-23019685D01*
G37*
%TD.AperFunction*%
%TA.AperFunction,Conductor*%
G36*
X4099457Y-21870610D02*
G01*
X4188962Y-21938201D01*
X4296840Y-21968895D01*
X4408521Y-21958546D01*
X4508922Y-21908552D01*
X4575000Y-21836069D01*
X4575000Y-22585470D01*
X4745524Y-22522315D01*
X4745531Y-22522312D01*
X4875708Y-22441172D01*
X4943013Y-22422416D01*
X5009774Y-22443025D01*
X5054795Y-22496455D01*
X5065300Y-22546404D01*
X5065300Y-22664529D01*
X5065301Y-22664539D01*
X5072146Y-22685607D01*
X5076687Y-22704518D01*
X5080154Y-22726404D01*
X5080155Y-22726407D01*
X5090212Y-22746145D01*
X5097657Y-22764118D01*
X5104504Y-22785190D01*
X5117526Y-22803114D01*
X5127690Y-22819700D01*
X5137749Y-22839440D01*
X5137750Y-22839442D01*
X5157190Y-22858882D01*
X5157219Y-22858913D01*
X5610381Y-23312074D01*
X5643866Y-23373397D01*
X5646700Y-23399755D01*
X5646700Y-23805326D01*
X5646701Y-23805332D01*
X5653108Y-23864939D01*
X5703402Y-23999784D01*
X5703406Y-23999791D01*
X5789652Y-24115000D01*
X5789655Y-24115003D01*
X5904864Y-24201249D01*
X5904871Y-24201253D01*
X5911062Y-24203562D01*
X6039717Y-24251547D01*
X6099327Y-24257956D01*
X6637666Y-24257955D01*
X6704705Y-24277639D01*
X6750460Y-24330443D01*
X6760404Y-24399602D01*
X6731379Y-24463158D01*
X6677524Y-24499374D01*
X6581699Y-24531902D01*
X6566032Y-24536100D01*
X5318000Y-24784348D01*
X5317998Y-24784350D01*
X4761724Y-24895000D01*
X4625000Y-24895000D01*
X4625000Y-24395000D01*
X5275000Y-24395000D01*
X5275000Y-23846823D01*
X5260352Y-23702778D01*
X5202515Y-23518438D01*
X5202510Y-23518428D01*
X5108748Y-23349501D01*
X5108743Y-23349494D01*
X4982892Y-23202894D01*
X4830109Y-23084631D01*
X4830105Y-23084629D01*
X4656642Y-22999542D01*
X4656643Y-22999542D01*
X4575000Y-22978403D01*
X4575000Y-23728889D01*
X4550543Y-23689390D01*
X4461038Y-23621799D01*
X4353160Y-23591105D01*
X4241479Y-23601454D01*
X4141078Y-23651448D01*
X4075000Y-23723930D01*
X4075000Y-22974528D01*
X4030562Y-22943598D01*
X3986784Y-22889144D01*
X3977400Y-22841824D01*
X3977400Y-22716519D01*
X3997085Y-22649480D01*
X4029133Y-22621710D01*
X4026902Y-22618828D01*
X4075000Y-22581596D01*
X4075000Y-21831110D01*
X4099457Y-21870610D01*
G37*
%TD.AperFunction*%
%TA.AperFunction,Conductor*%
G36*
X3307261Y25183230D02*
G01*
X3323342Y25181112D01*
X6566032Y24536100D01*
X6581699Y24531902D01*
X9712459Y23469153D01*
X9727445Y23462946D01*
X12692710Y22000639D01*
X12706757Y21992529D01*
X15455782Y20155689D01*
X15468650Y20145815D01*
X17954401Y17965870D01*
X17965870Y17954401D01*
X20145815Y15468650D01*
X20155689Y15455782D01*
X21992529Y12706757D01*
X22000639Y12692710D01*
X23462946Y9727445D01*
X23469153Y9712459D01*
X24531902Y6581699D01*
X24536100Y6566032D01*
X25181112Y3323342D01*
X25183230Y3307261D01*
X25399468Y8110D01*
X25399468Y-8110D01*
X25183230Y-3307261D01*
X25181112Y-3323342D01*
X24536100Y-6566032D01*
X24531902Y-6581699D01*
X23469153Y-9712459D01*
X23462946Y-9727445D01*
X22000639Y-12692709D01*
X21992529Y-12706756D01*
X20155689Y-15455782D01*
X20145815Y-15468650D01*
X17965870Y-17954401D01*
X17954401Y-17965870D01*
X15468650Y-20145815D01*
X15455782Y-20155689D01*
X12706757Y-21992529D01*
X12692710Y-22000639D01*
X9727445Y-23462946D01*
X9712459Y-23469153D01*
X7166758Y-24333301D01*
X7096949Y-24336211D01*
X7036649Y-24300916D01*
X7005003Y-24238624D01*
X7012059Y-24169112D01*
X7048768Y-24121566D01*
X7048475Y-24121273D01*
X7050759Y-24118988D01*
X7052593Y-24116613D01*
X7054746Y-24115002D01*
X7140996Y-23999787D01*
X7191291Y-23864939D01*
X7197700Y-23805329D01*
X7197699Y-23309584D01*
X7191291Y-23249973D01*
X7181723Y-23224321D01*
X7140997Y-23115127D01*
X7140993Y-23115120D01*
X7054747Y-22999911D01*
X6987203Y-22949347D01*
X6945333Y-22893413D01*
X6940349Y-22823721D01*
X6973835Y-22762399D01*
X6997366Y-22743964D01*
X7132074Y-22662530D01*
X7132078Y-22662527D01*
X7252272Y-22542333D01*
X7319200Y-22431622D01*
X7370728Y-22384434D01*
X7439587Y-22372596D01*
X7503916Y-22399865D01*
X7512998Y-22408091D01*
X7513324Y-22408417D01*
X7546809Y-22469740D01*
X7548772Y-22506365D01*
X7549073Y-22506382D01*
X7548923Y-22509174D01*
X7548933Y-22509351D01*
X7548895Y-22509701D01*
X7548895Y-23005449D01*
X7548896Y-23005455D01*
X7555303Y-23065062D01*
X7605597Y-23199907D01*
X7605601Y-23199914D01*
X7691847Y-23315123D01*
X7691850Y-23315126D01*
X7807059Y-23401372D01*
X7807066Y-23401376D01*
X7840361Y-23413794D01*
X7941912Y-23451670D01*
X8001522Y-23458079D01*
X8647267Y-23458078D01*
X8706878Y-23451670D01*
X8841726Y-23401375D01*
X8956941Y-23315125D01*
X9043191Y-23199910D01*
X9093486Y-23065062D01*
X9099895Y-23005452D01*
X9099894Y-22509707D01*
X9093486Y-22450096D01*
X9083484Y-22423280D01*
X9043192Y-22315250D01*
X9043188Y-22315243D01*
X8956942Y-22200034D01*
X8889398Y-22149470D01*
X8847528Y-22093536D01*
X8842544Y-22023844D01*
X8876030Y-21962522D01*
X8899561Y-21944087D01*
X9034269Y-21862653D01*
X9034273Y-21862650D01*
X9154467Y-21742456D01*
X9242414Y-21596974D01*
X9292985Y-21434685D01*
X9299395Y-21364151D01*
X9299395Y-21357579D01*
X8198395Y-21357579D01*
X8131356Y-21337894D01*
X8085601Y-21285090D01*
X8074395Y-21233579D01*
X8074395Y-20207579D01*
X8574395Y-20207579D01*
X8574395Y-20857579D01*
X9299394Y-20857579D01*
X9299394Y-20850996D01*
X9292986Y-20780476D01*
X9292985Y-20780471D01*
X9242413Y-20618182D01*
X9154467Y-20472701D01*
X9034272Y-20352506D01*
X8888790Y-20264559D01*
X8888791Y-20264559D01*
X8726500Y-20213988D01*
X8726501Y-20213988D01*
X8655967Y-20207579D01*
X8574395Y-20207579D01*
X8074395Y-20207579D01*
X8074394Y-20207578D01*
X7992812Y-20207579D01*
X7922292Y-20213987D01*
X7922287Y-20213988D01*
X7759998Y-20264560D01*
X7614517Y-20352506D01*
X7494322Y-20472701D01*
X7406375Y-20618183D01*
X7355804Y-20780472D01*
X7351638Y-20826316D01*
X7325967Y-20891299D01*
X7269238Y-20932087D01*
X7199463Y-20935730D01*
X7140466Y-20902774D01*
X6993285Y-20755593D01*
X6062400Y-19824707D01*
X5691713Y-19454019D01*
X5691682Y-19453990D01*
X5672242Y-19434550D01*
X5672240Y-19434549D01*
X5652500Y-19424490D01*
X5635914Y-19414326D01*
X5617990Y-19401304D01*
X5617991Y-19401304D01*
X5596918Y-19394457D01*
X5578945Y-19387012D01*
X5559207Y-19376955D01*
X5559204Y-19376954D01*
X5537318Y-19373487D01*
X5518407Y-19368946D01*
X5497339Y-19362101D01*
X5497334Y-19362100D01*
X5497333Y-19362100D01*
X5465419Y-19362100D01*
X3405181Y-19362100D01*
X3400070Y-19362100D01*
X3400046Y-19362101D01*
X3373264Y-19362101D01*
X3352199Y-19368946D01*
X3333282Y-19373487D01*
X3311400Y-19376952D01*
X3311395Y-19376954D01*
X3291650Y-19387014D01*
X3273686Y-19394455D01*
X3252607Y-19401305D01*
X3234684Y-19414327D01*
X3218099Y-19424490D01*
X3198359Y-19434548D01*
X3191981Y-19440927D01*
X3175792Y-19457116D01*
X3175791Y-19457117D01*
X1740908Y-20891997D01*
X1679585Y-20925482D01*
X1669413Y-20927255D01*
X1509138Y-20948356D01*
X1509137Y-20948356D01*
X1363060Y-21008863D01*
X1237618Y-21105118D01*
X1141363Y-21230560D01*
X1080856Y-21376637D01*
X1080855Y-21376639D01*
X1060218Y-21533398D01*
X1060218Y-21533401D01*
X1080855Y-21690160D01*
X1080856Y-21690162D01*
X1141364Y-21836241D01*
X1181842Y-21888994D01*
X1207036Y-21954161D01*
X1197030Y-22002944D01*
X1225974Y-21992149D01*
X1294247Y-22007001D01*
X1310307Y-22017458D01*
X1363057Y-22057935D01*
X1363058Y-22057935D01*
X1363059Y-22057936D01*
X1509138Y-22118444D01*
X1570413Y-22126511D01*
X1665899Y-22139082D01*
X1665900Y-22139082D01*
X1665901Y-22139082D01*
X1718154Y-22132202D01*
X1822662Y-22118444D01*
X1968741Y-22057936D01*
X2094182Y-21961682D01*
X2190436Y-21836241D01*
X2250944Y-21690162D01*
X2271582Y-21533400D01*
X2271581Y-21533397D01*
X2272044Y-21529885D01*
X2300310Y-21465989D01*
X2307290Y-21458401D01*
X2964719Y-20800973D01*
X3026042Y-20767488D01*
X3095734Y-20772472D01*
X3151667Y-20814344D01*
X3176084Y-20879808D01*
X3176400Y-20888654D01*
X3176400Y-23301000D01*
X3156715Y-23368039D01*
X3103911Y-23413794D01*
X3052400Y-23425000D01*
X2885661Y-23425000D01*
X2710889Y-23462148D01*
X2710888Y-23462148D01*
X2577623Y-23521482D01*
X2508373Y-23530766D01*
X2445096Y-23501137D01*
X2439507Y-23495883D01*
X1147139Y-22203514D01*
X1113654Y-22142191D01*
X1118203Y-22078572D01*
X1076093Y-22088260D01*
X1010342Y-22064624D01*
X995785Y-22052160D01*
X-1486893Y-19569480D01*
X-1489834Y-19566437D01*
X-1533617Y-19519558D01*
X-1568727Y-19498206D01*
X-1579211Y-19491070D01*
X-1611958Y-19466239D01*
X-1611963Y-19466236D01*
X-1628652Y-19459655D01*
X-1647583Y-19450253D01*
X-1662919Y-19440927D01*
X-1702481Y-19429842D01*
X-1714508Y-19425798D01*
X-1752740Y-19410722D01*
X-1770584Y-19408888D01*
X-1791348Y-19404942D01*
X-1808628Y-19400101D01*
X-1808633Y-19400100D01*
X-1808635Y-19400100D01*
X-1808637Y-19400100D01*
X-1849718Y-19400100D01*
X-1862398Y-19399450D01*
X-1903270Y-19395248D01*
X-1903275Y-19395248D01*
X-1920956Y-19398297D01*
X-1942024Y-19400100D01*
X-5051548Y-19400100D01*
X-5055780Y-19400028D01*
X-5075944Y-19399339D01*
X-5119926Y-19397837D01*
X-5119928Y-19397837D01*
X-5140170Y-19402770D01*
X-5159848Y-19407565D01*
X-5172311Y-19409934D01*
X-5213020Y-19415530D01*
X-5213022Y-19415530D01*
X-5229473Y-19422676D01*
X-5249507Y-19429413D01*
X-5266946Y-19433664D01*
X-5266953Y-19433666D01*
X-5302769Y-19453805D01*
X-5314140Y-19459453D01*
X-5351819Y-19475819D01*
X-5365734Y-19487140D01*
X-5383214Y-19499037D01*
X-5398857Y-19507833D01*
X-5398863Y-19507837D01*
X-5427911Y-19536886D01*
X-5437326Y-19545384D01*
X-5469208Y-19571322D01*
X-5479555Y-19585981D01*
X-5493177Y-19602152D01*
X-5810749Y-19919724D01*
X-5872072Y-19953209D01*
X-5941764Y-19948225D01*
X-5997697Y-19906353D01*
X-6022114Y-19840889D01*
X-6022430Y-19832043D01*
X-6022430Y-19339117D01*
X-6025283Y-19308687D01*
X-6025283Y-19308685D01*
X-6070136Y-19180506D01*
X-6070137Y-19180504D01*
X-6150780Y-19071237D01*
X-6260047Y-18990594D01*
X-6260049Y-18990593D01*
X-6388229Y-18945740D01*
X-6418660Y-18942887D01*
X-6418664Y-18942887D01*
X-6612558Y-18942887D01*
X-6679597Y-18923202D01*
X-6700239Y-18906568D01*
X-14425198Y-11181607D01*
X-14458683Y-11120284D01*
X-14453699Y-11050592D01*
X-14411827Y-10994659D01*
X-14395969Y-10984567D01*
X-14266744Y-10915496D01*
X-14261680Y-10912112D01*
X-14260641Y-10913666D01*
X-14204361Y-10889760D01*
X-14135493Y-10901548D01*
X-14118540Y-10912442D01*
X-14118320Y-10912112D01*
X-14113259Y-10915493D01*
X-13939534Y-11008350D01*
X-13805000Y-11049160D01*
X-13805000Y-10330001D01*
X-14579419Y-10330001D01*
X-14527940Y-10274080D01*
X-14481018Y-10167109D01*
X-14471372Y-10050699D01*
X-14500047Y-9937463D01*
X-14563936Y-9839674D01*
X-14656115Y-9767929D01*
X-14766595Y-9730001D01*
X-14854005Y-9730001D01*
X-14940216Y-9744387D01*
X-15042947Y-9799982D01*
X-15075000Y-9834800D01*
X-15075000Y-9058939D01*
X-14993885Y-9122073D01*
X-14883405Y-9160001D01*
X-14795995Y-9160001D01*
X-14709784Y-9145615D01*
X-14607053Y-9090020D01*
X-14575000Y-9055201D01*
X-14575000Y-9830001D01*
X-13800581Y-9830001D01*
X-13852060Y-9885922D01*
X-13898982Y-9992893D01*
X-13908628Y-10109303D01*
X-13879953Y-10222539D01*
X-13816064Y-10320328D01*
X-13723885Y-10392073D01*
X-13613405Y-10430001D01*
X-13525995Y-10430001D01*
X-13439784Y-10415615D01*
X-13337053Y-10360020D01*
X-13305000Y-10325201D01*
X-13305000Y-11049160D01*
X-13170465Y-11008350D01*
X-12996739Y-10915492D01*
X-12844471Y-10790529D01*
X-12719507Y-10638261D01*
X-12719505Y-10638258D01*
X-12678259Y-10561090D01*
X-12629297Y-10511245D01*
X-12561159Y-10495784D01*
X-12495479Y-10519615D01*
X-12453110Y-10575173D01*
X-12444900Y-10619542D01*
X-12444900Y-11700567D01*
X-12444900Y-11827433D01*
X-12438055Y-11848498D01*
X-12433512Y-11867417D01*
X-12430046Y-11889304D01*
X-12419986Y-11909044D01*
X-12412544Y-11927011D01*
X-12405696Y-11948090D01*
X-12392663Y-11966026D01*
X-12382514Y-11982588D01*
X-12372450Y-12002342D01*
X-12356957Y-12017834D01*
X-12356952Y-12017841D01*
X-12349884Y-12024908D01*
X-12349884Y-12024909D01*
X-10197950Y-14176842D01*
X-10108242Y-14266550D01*
X-10088497Y-14276609D01*
X-10071914Y-14286771D01*
X-10053990Y-14299796D01*
X-10053987Y-14299796D01*
X-10053987Y-14299797D01*
X-10032922Y-14306641D01*
X-10014945Y-14314086D01*
X-9995204Y-14324146D01*
X-9973315Y-14327612D01*
X-9954401Y-14332152D01*
X-9933333Y-14338999D01*
X-9906554Y-14338999D01*
X-9906530Y-14339000D01*
X-9901419Y-14339000D01*
X-2924168Y-14339000D01*
X-2924167Y-14339000D01*
X-2903091Y-14332152D01*
X-2884178Y-14327611D01*
X-2862296Y-14324146D01*
X-2842558Y-14314088D01*
X-2824579Y-14306641D01*
X-2803510Y-14299796D01*
X-2788894Y-14289177D01*
X-2785582Y-14286771D01*
X-2768994Y-14276606D01*
X-2749256Y-14266549D01*
X-2731033Y-14248325D01*
X-2731013Y-14248307D01*
X-2128430Y-13645723D01*
X-2067107Y-13612238D01*
X-1997416Y-13617222D01*
X-1948600Y-13650430D01*
X-1905870Y-13697888D01*
X-1752729Y-13809151D01*
X-1579802Y-13886144D01*
X-1394645Y-13925500D01*
X-1394643Y-13925500D01*
X-1205354Y-13925500D01*
X-1205353Y-13925500D01*
X-1020196Y-13886144D01*
X-1020191Y-13886142D01*
X-847269Y-13809151D01*
X-847264Y-13809148D01*
X-694132Y-13697891D01*
X-694131Y-13697890D01*
X-694128Y-13697888D01*
X-693571Y-13697269D01*
X-693159Y-13697016D01*
X-689298Y-13693539D01*
X-688662Y-13694244D01*
X-634091Y-13660618D01*
X-564234Y-13661942D01*
X-513738Y-13692553D01*
X1367666Y-15573958D01*
X3107996Y-17314288D01*
X3141481Y-17375611D01*
X3143254Y-17385783D01*
X3159889Y-17512133D01*
X3164356Y-17546062D01*
X3224864Y-17692141D01*
X3321118Y-17817582D01*
X3446559Y-17913836D01*
X3592638Y-17974344D01*
X3671019Y-17984663D01*
X3749399Y-17994982D01*
X3749400Y-17994982D01*
X3749401Y-17994982D01*
X3801654Y-17988102D01*
X3906162Y-17974344D01*
X4052241Y-17913836D01*
X4177682Y-17817582D01*
X4273936Y-17692141D01*
X4334444Y-17546062D01*
X4355082Y-17389300D01*
X4334444Y-17232538D01*
X4273936Y-17086459D01*
X4177682Y-16961018D01*
X4052241Y-16864764D01*
X3906162Y-16804256D01*
X3874374Y-16800071D01*
X3745883Y-16783154D01*
X3681987Y-16754887D01*
X3674388Y-16747896D01*
X2840482Y-15913990D01*
X2806997Y-15852667D01*
X2811981Y-15782975D01*
X2853853Y-15727042D01*
X2919317Y-15702625D01*
X2928163Y-15702309D01*
X3464058Y-15702309D01*
X3494487Y-15699455D01*
X3494489Y-15699455D01*
X3558578Y-15677028D01*
X3622670Y-15654602D01*
X3731938Y-15573959D01*
X3812581Y-15464691D01*
X3835007Y-15400599D01*
X3857434Y-15336510D01*
X3857434Y-15336508D01*
X3860288Y-15306078D01*
X3860288Y-15070757D01*
X3879973Y-15003718D01*
X3932777Y-14957963D01*
X4001935Y-14948019D01*
X4006585Y-14948778D01*
X4007306Y-14948909D01*
X4044138Y-14951808D01*
X4044154Y-14951809D01*
X4447288Y-14951809D01*
X4447288Y-14401809D01*
X4947288Y-14401809D01*
X4947288Y-14951809D01*
X5350422Y-14951809D01*
X5350437Y-14951808D01*
X5387277Y-14948909D01*
X5387283Y-14948908D01*
X5544981Y-14903092D01*
X5544984Y-14903091D01*
X5686340Y-14819494D01*
X5686349Y-14819487D01*
X5802466Y-14703370D01*
X5802473Y-14703361D01*
X5886069Y-14562007D01*
X5931888Y-14404295D01*
X5932083Y-14401810D01*
X5932083Y-14401809D01*
X4947288Y-14401809D01*
X4447288Y-14401809D01*
X3462493Y-14401809D01*
X3449700Y-14415647D01*
X3445433Y-14435961D01*
X3396379Y-14485716D01*
X3336181Y-14501309D01*
X2839563Y-14501309D01*
X2772524Y-14481624D01*
X2751882Y-14464990D01*
X2300883Y-14013990D01*
X2267398Y-13952667D01*
X2272382Y-13882975D01*
X2314254Y-13827042D01*
X2379718Y-13802625D01*
X2388564Y-13802309D01*
X3336181Y-13802309D01*
X3403220Y-13821994D01*
X3448975Y-13874798D01*
X3451682Y-13890114D01*
X3462493Y-13901809D01*
X4447288Y-13901809D01*
X4447288Y-13351809D01*
X4947288Y-13351809D01*
X4947288Y-13901809D01*
X5932083Y-13901809D01*
X5932083Y-13901807D01*
X5931888Y-13899322D01*
X5886069Y-13741610D01*
X5802473Y-13600256D01*
X5802466Y-13600247D01*
X5686349Y-13484130D01*
X5686340Y-13484123D01*
X5544984Y-13400526D01*
X5544981Y-13400525D01*
X5387283Y-13354709D01*
X5387277Y-13354708D01*
X5350437Y-13351809D01*
X4947288Y-13351809D01*
X4447288Y-13351809D01*
X4044138Y-13351809D01*
X4007296Y-13354708D01*
X4006568Y-13354842D01*
X4006156Y-13354798D01*
X4000980Y-13355206D01*
X4000904Y-13354245D01*
X3937083Y-13347523D01*
X3882585Y-13303800D01*
X3860377Y-13237554D01*
X3860288Y-13232860D01*
X3860288Y-12997539D01*
X3857434Y-12967109D01*
X3857434Y-12967107D01*
X3822498Y-12867268D01*
X3818936Y-12797489D01*
X3851856Y-12738634D01*
X4426863Y-12163628D01*
X4488186Y-12130143D01*
X4514544Y-12127309D01*
X4914058Y-12127309D01*
X4944487Y-12124455D01*
X4944489Y-12124455D01*
X5008578Y-12102028D01*
X5072670Y-12079602D01*
X5181938Y-11998959D01*
X5262581Y-11889691D01*
X5287220Y-11819276D01*
X5307434Y-11761510D01*
X5307434Y-11761508D01*
X5307773Y-11757898D01*
X5308769Y-11755397D01*
X5309044Y-11754139D01*
X5309252Y-11754184D01*
X5333630Y-11692989D01*
X5390475Y-11652364D01*
X5460260Y-11648921D01*
X5516523Y-11681276D01*
X5517228Y-11680522D01*
X5520458Y-11683539D01*
X5520828Y-11683752D01*
X5521493Y-11684505D01*
X5523419Y-11686304D01*
X5523422Y-11686308D01*
X5538081Y-11696655D01*
X5554252Y-11710277D01*
X7138181Y-13294206D01*
X7171666Y-13355529D01*
X7174500Y-13381887D01*
X7174500Y-13991450D01*
X7165835Y-14036989D01*
X7165437Y-14037997D01*
X7156054Y-14056880D01*
X7146728Y-14072217D01*
X7135642Y-14111781D01*
X7131598Y-14123808D01*
X7116522Y-14162040D01*
X7114688Y-14179884D01*
X7110742Y-14200648D01*
X7105901Y-14217928D01*
X7105900Y-14217937D01*
X7105900Y-14259018D01*
X7105250Y-14271698D01*
X7101048Y-14312570D01*
X7101048Y-14312575D01*
X7104097Y-14330256D01*
X7105900Y-14351324D01*
X7105900Y-16350175D01*
X7086215Y-16417214D01*
X7056826Y-16448978D01*
X6938495Y-16538712D01*
X6847056Y-16659291D01*
X6791539Y-16800073D01*
X6791037Y-16804256D01*
X6780917Y-16888533D01*
X6780917Y-19174737D01*
X6781610Y-19180504D01*
X6791539Y-19263196D01*
X6847056Y-19403978D01*
X6938494Y-19524557D01*
X7059073Y-19615995D01*
X7059074Y-19615995D01*
X7059075Y-19615996D01*
X7199853Y-19671512D01*
X7288315Y-19682135D01*
X7288320Y-19682135D01*
X8024514Y-19682135D01*
X8024519Y-19682135D01*
X8112981Y-19671512D01*
X8253759Y-19615996D01*
X8374339Y-19524557D01*
X8465778Y-19403977D01*
X8521294Y-19263199D01*
X8531917Y-19174737D01*
X8531917Y-18281635D01*
X9531418Y-18281635D01*
X9531418Y-19181621D01*
X9541911Y-19284332D01*
X9597058Y-19450754D01*
X9597060Y-19450759D01*
X9689101Y-19599980D01*
X9813071Y-19723950D01*
X9962292Y-19815991D01*
X9962297Y-19815993D01*
X10128719Y-19871140D01*
X10128726Y-19871141D01*
X10231436Y-19881634D01*
X10356416Y-19881634D01*
X10356417Y-19881633D01*
X10356417Y-18281635D01*
X9531418Y-18281635D01*
X8531917Y-18281635D01*
X8531917Y-17781635D01*
X9531417Y-17781635D01*
X10356417Y-17781635D01*
X10356417Y-16181635D01*
X10231444Y-16181635D01*
X10231429Y-16181636D01*
X10128719Y-16192129D01*
X9962297Y-16247276D01*
X9962292Y-16247278D01*
X9813071Y-16339319D01*
X9689101Y-16463289D01*
X9597060Y-16612510D01*
X9597058Y-16612515D01*
X9541911Y-16778937D01*
X9541910Y-16778944D01*
X9531417Y-16881648D01*
X9531417Y-17781635D01*
X8531917Y-17781635D01*
X8531917Y-16888533D01*
X8521294Y-16800071D01*
X8465778Y-16659293D01*
X8465777Y-16659292D01*
X8465777Y-16659291D01*
X8374339Y-16538712D01*
X8255975Y-16448954D01*
X8214451Y-16392761D01*
X8206900Y-16350150D01*
X8206900Y-14624500D01*
X8226585Y-14557461D01*
X8279389Y-14511706D01*
X8330900Y-14500500D01*
X9018097Y-14500500D01*
X9018102Y-14500500D01*
X9106564Y-14489877D01*
X9247342Y-14434361D01*
X9367922Y-14342922D01*
X9459361Y-14222342D01*
X9514877Y-14081564D01*
X9525500Y-13993102D01*
X9525500Y-13206898D01*
X9514877Y-13118436D01*
X9459361Y-12977658D01*
X9459360Y-12977657D01*
X9459360Y-12977656D01*
X9367922Y-12857077D01*
X9247342Y-12765638D01*
X9228118Y-12758058D01*
X9172973Y-12715152D01*
X9149780Y-12649245D01*
X9165900Y-12581260D01*
X9216217Y-12532783D01*
X9216790Y-12532486D01*
X9222412Y-12529587D01*
X9387537Y-12399731D01*
X9387540Y-12399728D01*
X9525105Y-12240969D01*
X9525114Y-12240958D01*
X9630144Y-12059039D01*
X9630147Y-12059032D01*
X9698855Y-11860517D01*
X9698855Y-11860515D01*
X9700368Y-11850000D01*
X8629560Y-11850000D01*
X8668278Y-11807941D01*
X8718551Y-11693330D01*
X8728886Y-11568605D01*
X8698163Y-11447281D01*
X8634606Y-11350000D01*
X9665645Y-11350000D01*
X9732684Y-11369685D01*
X9753326Y-11386319D01*
X10079581Y-11712574D01*
X10113066Y-11773897D01*
X10115900Y-11800255D01*
X10115900Y-12684319D01*
X10096215Y-12751358D01*
X10090276Y-12759805D01*
X9991864Y-12888057D01*
X9931356Y-13034137D01*
X9931355Y-13034139D01*
X9910718Y-13190898D01*
X9910718Y-13190901D01*
X9931355Y-13347660D01*
X9931356Y-13347662D01*
X9978599Y-13461718D01*
X9991864Y-13493741D01*
X10088118Y-13619182D01*
X10213559Y-13715436D01*
X10359638Y-13775944D01*
X10422911Y-13784274D01*
X10516399Y-13796582D01*
X10516400Y-13796582D01*
X10516401Y-13796582D01*
X10568654Y-13789702D01*
X10673162Y-13775944D01*
X10819241Y-13715436D01*
X10944682Y-13619182D01*
X11040936Y-13493741D01*
X11089739Y-13375919D01*
X11133580Y-13321516D01*
X11199874Y-13299451D01*
X11267573Y-13316730D01*
X11315184Y-13367867D01*
X11328300Y-13423372D01*
X11328300Y-13821472D01*
X11310250Y-13885897D01*
X11306528Y-13892017D01*
X11295442Y-13931581D01*
X11291398Y-13943608D01*
X11276322Y-13981840D01*
X11274488Y-13999684D01*
X11270542Y-14020448D01*
X11265701Y-14037728D01*
X11265700Y-14037737D01*
X11265700Y-14078818D01*
X11265050Y-14091498D01*
X11260848Y-14132370D01*
X11260848Y-14132375D01*
X11263897Y-14150056D01*
X11265700Y-14171124D01*
X11265700Y-16080581D01*
X11246015Y-16147620D01*
X11193211Y-16193375D01*
X11124053Y-16203319D01*
X11102697Y-16198287D01*
X11084117Y-16192130D01*
X11084107Y-16192128D01*
X10981403Y-16181635D01*
X10856417Y-16181635D01*
X10856417Y-19881634D01*
X10981389Y-19881634D01*
X10981403Y-19881633D01*
X11084114Y-19871140D01*
X11250536Y-19815993D01*
X11250540Y-19815991D01*
X11265605Y-19806699D01*
X11332997Y-19788257D01*
X11399661Y-19809178D01*
X11426891Y-19833979D01*
X11432513Y-19840889D01*
X11436922Y-19846308D01*
X11451581Y-19856655D01*
X11467752Y-19870277D01*
X11989004Y-20391529D01*
X12022489Y-20452852D01*
X12025323Y-20479210D01*
X12025323Y-20690929D01*
X12026933Y-20704334D01*
X12035463Y-20775373D01*
X12088459Y-20909761D01*
X12175744Y-21024863D01*
X12290846Y-21112148D01*
X12290847Y-21112148D01*
X12290848Y-21112149D01*
X12425233Y-21165144D01*
X12509679Y-21175285D01*
X12509685Y-21175285D01*
X13091961Y-21175285D01*
X13091967Y-21175285D01*
X13176413Y-21165144D01*
X13310798Y-21112149D01*
X13425901Y-21024863D01*
X13513187Y-20909760D01*
X13566182Y-20775375D01*
X13576323Y-20690929D01*
X13576323Y-20158641D01*
X13566182Y-20074195D01*
X13513187Y-19939810D01*
X13454431Y-19862329D01*
X13429609Y-19797019D01*
X13444037Y-19728655D01*
X13488140Y-19681866D01*
X13503554Y-19672358D01*
X13623395Y-19552517D01*
X13623398Y-19552513D01*
X13712365Y-19408277D01*
X13712370Y-19408266D01*
X13765678Y-19247391D01*
X13775822Y-19148107D01*
X13775823Y-19148094D01*
X13775823Y-19124785D01*
X12674823Y-19124785D01*
X12607784Y-19105100D01*
X12562029Y-19052296D01*
X12550823Y-19000785D01*
X12550823Y-17924785D01*
X13050823Y-17924785D01*
X13050823Y-18624785D01*
X13775822Y-18624785D01*
X13775822Y-18601477D01*
X13775821Y-18601462D01*
X13765678Y-18502177D01*
X13712370Y-18341303D01*
X13712365Y-18341292D01*
X13623398Y-18197056D01*
X13623395Y-18197052D01*
X13503555Y-18077212D01*
X13503551Y-18077209D01*
X13359315Y-17988242D01*
X13359304Y-17988237D01*
X13198429Y-17934929D01*
X13099145Y-17924785D01*
X13050823Y-17924785D01*
X12550823Y-17924785D01*
X12550822Y-17924784D01*
X12502516Y-17924785D01*
X12499353Y-17924947D01*
X12499303Y-17923970D01*
X12434573Y-17911916D01*
X12383704Y-17864019D01*
X12366700Y-17801346D01*
X12366700Y-14342727D01*
X12384755Y-14278294D01*
X12388472Y-14272182D01*
X12399560Y-14232605D01*
X12403600Y-14220592D01*
X12418676Y-14182364D01*
X12419832Y-14171124D01*
X12420511Y-14164516D01*
X12424458Y-14143744D01*
X12429300Y-14126465D01*
X12429300Y-14085381D01*
X12429950Y-14072701D01*
X12431576Y-14056880D01*
X12434152Y-14031828D01*
X12431103Y-14014143D01*
X12429300Y-13993075D01*
X12429300Y-11043120D01*
X12429372Y-11038888D01*
X12430415Y-11008350D01*
X12431562Y-10974774D01*
X12421835Y-10934860D01*
X12419464Y-10922384D01*
X12414980Y-10889760D01*
X12413870Y-10881680D01*
X12406721Y-10865222D01*
X12399980Y-10845178D01*
X12395733Y-10827748D01*
X12375595Y-10791932D01*
X12369948Y-10780563D01*
X12365023Y-10769225D01*
X12353580Y-10742880D01*
X12342254Y-10728959D01*
X12330356Y-10711477D01*
X12321564Y-10695840D01*
X12292517Y-10666793D01*
X12284010Y-10657367D01*
X12280032Y-10652477D01*
X12258078Y-10625492D01*
X12243408Y-10615136D01*
X12227245Y-10601520D01*
X12219419Y-10593694D01*
X12185934Y-10532371D01*
X12183100Y-10506013D01*
X12183100Y-10372178D01*
X12202785Y-10305139D01*
X12255589Y-10259384D01*
X12324747Y-10249440D01*
X12331856Y-10250898D01*
X12335235Y-10251342D01*
X12335238Y-10251344D01*
X12468183Y-10268846D01*
X12491999Y-10271982D01*
X12496274Y-10271982D01*
X12499748Y-10273002D01*
X12500058Y-10273043D01*
X12500051Y-10273091D01*
X12563313Y-10291667D01*
X12609068Y-10344471D01*
X12614935Y-10359987D01*
X12646650Y-10464540D01*
X12739502Y-10638254D01*
X12739506Y-10638261D01*
X12864470Y-10790529D01*
X13016738Y-10915492D01*
X13190464Y-11008350D01*
X13324999Y-11049160D01*
X13324999Y-10328939D01*
X13406114Y-10392073D01*
X13516594Y-10430001D01*
X13604004Y-10430001D01*
X13690215Y-10415615D01*
X13792946Y-10360020D01*
X13820580Y-10330001D01*
X13824999Y-10330001D01*
X13824999Y-11049160D01*
X13959533Y-11008350D01*
X14133258Y-10915493D01*
X14138319Y-10912112D01*
X14139357Y-10913666D01*
X14195638Y-10889760D01*
X14264506Y-10901548D01*
X14281458Y-10912442D01*
X14281679Y-10912112D01*
X14286739Y-10915493D01*
X14460464Y-11008350D01*
X14594999Y-11049160D01*
X14594999Y-10330001D01*
X13824999Y-10330001D01*
X13820580Y-10330001D01*
X13872059Y-10274080D01*
X13918981Y-10167109D01*
X13928627Y-10050699D01*
X13899952Y-9937463D01*
X13836063Y-9839674D01*
X13823635Y-9830001D01*
X14599418Y-9830001D01*
X14547939Y-9885922D01*
X14501017Y-9992893D01*
X14491371Y-10109303D01*
X14520046Y-10222539D01*
X14583935Y-10320328D01*
X14676114Y-10392073D01*
X14786594Y-10430001D01*
X14874004Y-10430001D01*
X14960215Y-10415615D01*
X15062946Y-10360020D01*
X15090580Y-10330001D01*
X15094999Y-10330001D01*
X15094999Y-11049160D01*
X15229533Y-11008350D01*
X15403259Y-10915492D01*
X15555527Y-10790529D01*
X15680491Y-10638261D01*
X15680495Y-10638254D01*
X15773346Y-10464542D01*
X15814159Y-10330001D01*
X15094999Y-10330001D01*
X15090580Y-10330001D01*
X15142059Y-10274080D01*
X15188981Y-10167109D01*
X15198627Y-10050699D01*
X15169952Y-9937463D01*
X15106063Y-9839674D01*
X15093635Y-9830001D01*
X15814159Y-9830001D01*
X15814159Y-9830000D01*
X15773346Y-9695459D01*
X15680495Y-9521747D01*
X15680491Y-9521740D01*
X15585741Y-9406288D01*
X15558428Y-9341978D01*
X15570219Y-9273111D01*
X15617371Y-9221550D01*
X15662193Y-9205150D01*
X15722204Y-9195646D01*
X15835242Y-9138050D01*
X15924950Y-9048342D01*
X15982546Y-8935304D01*
X15982546Y-8935302D01*
X15982547Y-8935301D01*
X15982547Y-8935300D01*
X16002392Y-8810003D01*
X16002392Y-8809999D01*
X15998927Y-8788123D01*
X15997400Y-8768724D01*
X15997400Y-8445436D01*
X16017085Y-8378397D01*
X16069889Y-8332642D01*
X16073924Y-8330884D01*
X16206341Y-8276036D01*
X16248713Y-8243523D01*
X16313882Y-8218328D01*
X16382327Y-8232366D01*
X16432317Y-8281180D01*
X16448200Y-8341898D01*
X16448200Y-10520444D01*
X16428515Y-10587483D01*
X16411881Y-10608125D01*
X13771408Y-13248597D01*
X13710085Y-13282082D01*
X13699913Y-13283855D01*
X13539638Y-13304956D01*
X13539637Y-13304956D01*
X13393560Y-13365463D01*
X13268118Y-13461718D01*
X13171863Y-13587160D01*
X13111356Y-13733237D01*
X13111355Y-13733239D01*
X13090718Y-13889998D01*
X13090718Y-13890001D01*
X13111355Y-14046760D01*
X13111356Y-14046762D01*
X13162868Y-14171124D01*
X13171864Y-14192841D01*
X13268118Y-14318282D01*
X13393559Y-14414536D01*
X13539638Y-14475044D01*
X13618019Y-14485363D01*
X13696399Y-14495682D01*
X13696400Y-14495682D01*
X13696401Y-14495682D01*
X13748654Y-14488802D01*
X13853162Y-14475044D01*
X13999241Y-14414536D01*
X14124682Y-14318282D01*
X14220936Y-14192841D01*
X14281444Y-14046762D01*
X14302082Y-13890000D01*
X14302081Y-13889997D01*
X14302544Y-13886485D01*
X14330810Y-13822589D01*
X14337790Y-13815001D01*
X17154183Y-10998609D01*
X17176750Y-10976042D01*
X17186809Y-10956297D01*
X17196971Y-10939714D01*
X17209996Y-10921790D01*
X17212042Y-10915492D01*
X17216841Y-10900722D01*
X17224286Y-10882745D01*
X17234346Y-10863004D01*
X17237812Y-10841115D01*
X17242352Y-10822201D01*
X17249199Y-10801133D01*
X17249199Y-10774354D01*
X17249200Y-10774329D01*
X17249200Y-740480D01*
X17268885Y-673441D01*
X17274824Y-664993D01*
X17276979Y-662183D01*
X17276982Y-662182D01*
X17373236Y-536741D01*
X17433744Y-390662D01*
X17454382Y-233900D01*
X17433744Y-77138D01*
X17401792Y0D01*
X19894551Y0D01*
X19914317Y-251151D01*
X19973126Y-496110D01*
X20069533Y-728859D01*
X20201160Y-943653D01*
X20201161Y-943656D01*
X20245801Y-995922D01*
X20364776Y-1135224D01*
X20495069Y-1246505D01*
X20556343Y-1298838D01*
X20556346Y-1298839D01*
X20771140Y-1430466D01*
X20866633Y-1470020D01*
X21003889Y-1526873D01*
X21248852Y-1585683D01*
X21437118Y-1600500D01*
X21437126Y-1600500D01*
X21562874Y-1600500D01*
X21562882Y-1600500D01*
X21751148Y-1585683D01*
X21996111Y-1526873D01*
X22228859Y-1430466D01*
X22443659Y-1298836D01*
X22635224Y-1135224D01*
X22798836Y-943659D01*
X22930466Y-728859D01*
X23026873Y-496111D01*
X23085683Y-251148D01*
X23105449Y0D01*
X23085683Y251148D01*
X23026873Y496111D01*
X22930466Y728859D01*
X22798836Y943659D01*
X22635224Y1135224D01*
X22443659Y1298836D01*
X22228859Y1430466D01*
X21996111Y1526873D01*
X21751148Y1585683D01*
X21562882Y1600500D01*
X21437118Y1600500D01*
X21248852Y1585683D01*
X21013807Y1529254D01*
X21003889Y1526873D01*
X20771140Y1430466D01*
X20556346Y1298839D01*
X20556343Y1298838D01*
X20556341Y1298836D01*
X20364776Y1135224D01*
X20272993Y1027760D01*
X20201161Y943656D01*
X20201160Y943653D01*
X20069533Y728859D01*
X19973126Y496110D01*
X19914317Y251151D01*
X19894551Y0D01*
X17401792Y0D01*
X17373236Y68941D01*
X17276982Y194382D01*
X17151541Y290636D01*
X17005462Y351144D01*
X16900954Y364902D01*
X16848701Y371782D01*
X16848700Y371782D01*
X16736983Y357074D01*
X16667951Y367839D01*
X16615695Y414219D01*
X16596800Y480013D01*
X16596800Y871245D01*
X16616485Y938284D01*
X16633114Y958921D01*
X16791883Y1117691D01*
X16814450Y1140258D01*
X16824506Y1159995D01*
X16834669Y1176581D01*
X16847696Y1194510D01*
X16854540Y1215574D01*
X16861986Y1233552D01*
X16872045Y1253294D01*
X16872046Y1253296D01*
X16875512Y1275185D01*
X16880055Y1294106D01*
X16886899Y1315167D01*
X16886899Y1342665D01*
X16886900Y1342680D01*
X16886900Y14346330D01*
X16886900Y14346333D01*
X16880054Y14367401D01*
X16875511Y14386323D01*
X16872046Y14408203D01*
X16872046Y14408204D01*
X16861986Y14427944D01*
X16854544Y14445911D01*
X16847696Y14466990D01*
X16834663Y14484926D01*
X16824514Y14501488D01*
X16814450Y14521242D01*
X16798957Y14536734D01*
X16798952Y14536741D01*
X12436541Y18899152D01*
X12436534Y18899157D01*
X12421042Y18914650D01*
X12401288Y18924714D01*
X12384726Y18934863D01*
X12366790Y18947896D01*
X12345711Y18954744D01*
X12327744Y18962186D01*
X12308004Y18972246D01*
X12286117Y18975712D01*
X12267201Y18980254D01*
X12246133Y18987100D01*
X12214219Y18987100D01*
X11171333Y18987100D01*
X11044467Y18987100D01*
X11023391Y18980252D01*
X11004478Y18975711D01*
X10982596Y18972246D01*
X10982594Y18972245D01*
X10962859Y18962189D01*
X10944879Y18954741D01*
X10923810Y18947896D01*
X10909194Y18937277D01*
X10905882Y18934871D01*
X10889294Y18924706D01*
X10869556Y18914649D01*
X10851333Y18896425D01*
X10851313Y18896407D01*
X-2509552Y5535541D01*
X-2509557Y5535534D01*
X-2525050Y5520042D01*
X-2535114Y5500288D01*
X-2545263Y5483726D01*
X-2558296Y5465790D01*
X-2565144Y5444711D01*
X-2572586Y5426744D01*
X-2582646Y5407004D01*
X-2585764Y5387313D01*
X-2586111Y5385123D01*
X-2590654Y5366201D01*
X-2597500Y5345133D01*
X-2597500Y5345130D01*
X-2597500Y4784180D01*
X-2617185Y4717141D01*
X-2623124Y4708693D01*
X-2625279Y4705883D01*
X-2625282Y4705882D01*
X-2721536Y4580441D01*
X-2782044Y4434362D01*
X-2787587Y4392261D01*
X-2802682Y4277601D01*
X-2802682Y4277598D01*
X-2791871Y4195484D01*
X-2782044Y4120838D01*
X-2721536Y3974759D01*
X-2625282Y3849318D01*
X-2499841Y3753064D01*
X-2499839Y3753063D01*
X-2353762Y3692556D01*
X-2353760Y3692555D01*
X-2197001Y3671918D01*
X-2197000Y3671918D01*
X-2196999Y3671918D01*
X-2040239Y3692555D01*
X-2040237Y3692556D01*
X-1894160Y3753063D01*
X-1768718Y3849318D01*
X-1672463Y3974760D01*
X-1611956Y4120837D01*
X-1611955Y4120839D01*
X-1591318Y4277598D01*
X-1591318Y4277601D01*
X-1611955Y4434360D01*
X-1611956Y4434362D01*
X-1672463Y4580439D01*
X-1672464Y4580441D01*
X-1768718Y4705882D01*
X-1768720Y4705883D01*
X-1770876Y4708693D01*
X-1796070Y4773863D01*
X-1796500Y4784180D01*
X-1796500Y5064445D01*
X-1776815Y5131484D01*
X-1760181Y5152126D01*
X10743560Y17655867D01*
X10804883Y17689352D01*
X10874575Y17684368D01*
X10929615Y17643673D01*
X10983218Y17573818D01*
X10983220Y17573816D01*
X10985376Y17571007D01*
X11010570Y17505838D01*
X11011000Y17495520D01*
X11011000Y15740100D01*
X10991315Y15673061D01*
X10938511Y15627306D01*
X10887000Y15616100D01*
X10875033Y15616100D01*
X10748167Y15616100D01*
X10727091Y15609252D01*
X10708178Y15604711D01*
X10686296Y15601246D01*
X10686294Y15601245D01*
X10666559Y15591189D01*
X10648581Y15583742D01*
X10627510Y15576896D01*
X10609581Y15563869D01*
X10592995Y15553706D01*
X10573258Y15543650D01*
X10550691Y15521083D01*
X9274819Y14245213D01*
X9274790Y14245182D01*
X9255350Y14225742D01*
X9255349Y14225740D01*
X9245290Y14206000D01*
X9235126Y14189414D01*
X9222104Y14171490D01*
X9215257Y14150418D01*
X9207812Y14132445D01*
X9197755Y14112707D01*
X9197754Y14112704D01*
X9194287Y14090818D01*
X9189746Y14071907D01*
X9182901Y14050839D01*
X9182900Y14050829D01*
X9182900Y5399667D01*
X9189747Y5378591D01*
X9194287Y5359682D01*
X9197754Y5337795D01*
X9207813Y5318052D01*
X9215254Y5300088D01*
X9222103Y5279010D01*
X9222106Y5279005D01*
X9235131Y5261077D01*
X9245291Y5244497D01*
X9255348Y5224760D01*
X9255348Y5224759D01*
X9266631Y5213476D01*
X9277913Y5202194D01*
X9277913Y5202193D01*
X9277916Y5202191D01*
X9462645Y5017461D01*
X9509898Y4970208D01*
X9543382Y4908885D01*
X9545155Y4898713D01*
X9566256Y4738438D01*
X9566256Y4738437D01*
X9626763Y4592360D01*
X9637838Y4577926D01*
X9705319Y4489983D01*
X9730512Y4424818D01*
X9716474Y4356373D01*
X9667660Y4306383D01*
X9606942Y4290500D01*
X-700467Y4290500D01*
X-827333Y4290500D01*
X-848401Y4283654D01*
X-867317Y4279112D01*
X-889204Y4275646D01*
X-908947Y4265585D01*
X-926916Y4258142D01*
X-947990Y4251296D01*
X-965679Y4238443D01*
X-965907Y4238277D01*
X-982501Y4228107D01*
X-1002242Y4218050D01*
X-1024809Y4195483D01*
X-5609807Y-389513D01*
X-5609825Y-389533D01*
X-5628049Y-407756D01*
X-5638106Y-427494D01*
X-5648271Y-444082D01*
X-5661296Y-462010D01*
X-5668140Y-483076D01*
X-5675588Y-501058D01*
X-5685646Y-520796D01*
X-5689111Y-542678D01*
X-5693652Y-561591D01*
X-5700500Y-582667D01*
X-5700500Y-582668D01*
X-5700500Y-11589721D01*
X-5720185Y-11656760D01*
X-5751615Y-11690039D01*
X-5903314Y-11800255D01*
X-5905870Y-11802112D01*
X-6032532Y-11942784D01*
X-6079726Y-12024527D01*
X-6130292Y-12072742D01*
X-6198899Y-12085966D01*
X-6263764Y-12059998D01*
X-6297328Y-12019347D01*
X-6370409Y-11877589D01*
X-6500267Y-11712462D01*
X-6500270Y-11712459D01*
X-6659029Y-11574894D01*
X-6659040Y-11574885D01*
X-6840959Y-11469855D01*
X-6840966Y-11469852D01*
X-7039482Y-11401144D01*
X-7049999Y-11399632D01*
X-7049999Y-12469382D01*
X-7119051Y-12415637D01*
X-7237423Y-12375000D01*
X-7331072Y-12375000D01*
X-7423445Y-12390414D01*
X-7533513Y-12449981D01*
X-7549999Y-12467889D01*
X-7549999Y-11403740D01*
X-7661404Y-11430768D01*
X-7661416Y-11430772D01*
X-7852501Y-11518037D01*
X-7852502Y-11518038D01*
X-8023618Y-11639889D01*
X-8023624Y-11639895D01*
X-8168591Y-11791932D01*
X-8236649Y-11897834D01*
X-8289453Y-11943589D01*
X-8358611Y-11953533D01*
X-8422167Y-11924509D01*
X-8456318Y-11876288D01*
X-8465636Y-11852660D01*
X-8465637Y-11852658D01*
X-8557076Y-11732077D01*
X-8677657Y-11640638D01*
X-8685051Y-11636481D01*
X-8683428Y-11633594D01*
X-8726150Y-11600339D01*
X-8749329Y-11534426D01*
X-8749500Y-11527913D01*
X-8749500Y5655160D01*
X-8749428Y5659393D01*
X-8747536Y5714762D01*
X-8747237Y5723526D01*
X-8747237Y5723529D01*
X-8756965Y5763445D01*
X-8759336Y5775920D01*
X-8764930Y5816619D01*
X-8764930Y5816622D01*
X-8772078Y5833077D01*
X-8778817Y5853114D01*
X-8783067Y5870551D01*
X-8783070Y5870558D01*
X-8803206Y5906372D01*
X-8808852Y5917739D01*
X-8825220Y5955421D01*
X-8836541Y5969336D01*
X-8848439Y5986817D01*
X-8857234Y6002460D01*
X-8857236Y6002461D01*
X-8886286Y6031511D01*
X-8894784Y6040926D01*
X-8920722Y6072808D01*
X-8935381Y6083155D01*
X-8951552Y6096777D01*
X-12205892Y9351117D01*
X-12208835Y9354162D01*
X-12252618Y9401042D01*
X-12252620Y9401044D01*
X-12287729Y9422394D01*
X-12298216Y9429532D01*
X-12330955Y9454359D01*
X-12330956Y9454359D01*
X-12330958Y9454361D01*
X-12339230Y9457623D01*
X-12347653Y9460945D01*
X-12366590Y9470351D01*
X-12381915Y9479670D01*
X-12381918Y9479672D01*
X-12403736Y9485785D01*
X-12421483Y9490758D01*
X-12433516Y9494804D01*
X-12471736Y9509876D01*
X-12489587Y9511711D01*
X-12510354Y9515658D01*
X-12516282Y9517319D01*
X-12527635Y9520500D01*
X-12527636Y9520500D01*
X-12568718Y9520500D01*
X-12581397Y9521150D01*
X-12592803Y9522322D01*
X-12609921Y9524082D01*
X-12674597Y9550518D01*
X-12714712Y9607724D01*
X-12717532Y9677537D01*
X-12706601Y9705885D01*
X-12626651Y9855462D01*
X-12585840Y9989999D01*
X-13309419Y9989999D01*
X-13257940Y10045920D01*
X-13211018Y10152891D01*
X-13201372Y10269301D01*
X-13230047Y10382537D01*
X-13293936Y10480326D01*
X-13306364Y10489999D01*
X-12585839Y10489999D01*
X-12626652Y10624540D01*
X-12719503Y10798252D01*
X-12719507Y10798259D01*
X-12844465Y10950519D01*
X-12846184Y10952238D01*
X-12846797Y10953361D01*
X-12848336Y10955236D01*
X-12847980Y10955527D01*
X-12879674Y11013559D01*
X-12874695Y11083251D01*
X-12863505Y11105898D01*
X-12829208Y11160481D01*
X-12769633Y11330736D01*
X-12769630Y11330749D01*
X-12749435Y11509995D01*
X-12749435Y11510002D01*
X-12769630Y11689248D01*
X-12769631Y11689253D01*
X-12829211Y11859522D01*
X-12925184Y12012261D01*
X-12925185Y12012262D01*
X-12970241Y12057319D01*
X-13003725Y12118642D01*
X-12998740Y12188334D01*
X-12970241Y12232679D01*
X-12925184Y12277736D01*
X-12829211Y12430475D01*
X-12769631Y12600744D01*
X-12769630Y12600749D01*
X-12749435Y12779995D01*
X-12749435Y12780002D01*
X-12769630Y12959248D01*
X-12769632Y12959256D01*
X-12789473Y13015959D01*
X-12793034Y13085738D01*
X-12758305Y13146365D01*
X-12746743Y13156179D01*
X-12697809Y13192811D01*
X-12611649Y13307905D01*
X-12611645Y13307912D01*
X-12561403Y13442619D01*
X-12561401Y13442626D01*
X-12555000Y13502154D01*
X-12555000Y13799999D01*
X-13309419Y13799999D01*
X-13257940Y13855920D01*
X-13211018Y13962891D01*
X-13201372Y14079301D01*
X-13230047Y14192537D01*
X-13293936Y14290326D01*
X-13386115Y14362071D01*
X-13496595Y14399999D01*
X-13584005Y14399999D01*
X-13670216Y14385613D01*
X-13772947Y14330018D01*
X-13852060Y14244078D01*
X-13898982Y14137107D01*
X-13908628Y14020697D01*
X-13879953Y13907461D01*
X-13816064Y13809672D01*
X-13803636Y13799999D01*
X-14579419Y13799999D01*
X-14527940Y13855920D01*
X-14481018Y13962891D01*
X-14471372Y14079301D01*
X-14500047Y14192537D01*
X-14563936Y14290326D01*
X-14576364Y14299999D01*
X-14575000Y14299999D01*
X-13805000Y14299999D01*
X-13805000Y15049999D01*
X-13305000Y15049999D01*
X-13305000Y14299999D01*
X-12555000Y14299999D01*
X-12555000Y14597843D01*
X-12561401Y14657371D01*
X-12561403Y14657378D01*
X-12611645Y14792085D01*
X-12611649Y14792092D01*
X-12697809Y14907186D01*
X-12697812Y14907189D01*
X-12812906Y14993349D01*
X-12812913Y14993353D01*
X-12947620Y15043595D01*
X-12947627Y15043597D01*
X-13007155Y15049998D01*
X-13007172Y15049999D01*
X-13305000Y15049999D01*
X-13805000Y15049999D01*
X-14102828Y15049999D01*
X-14102844Y15049998D01*
X-14162372Y15043597D01*
X-14162376Y15043596D01*
X-14297090Y14993350D01*
X-14305336Y14987178D01*
X-14370800Y14962760D01*
X-14434687Y14976359D01*
X-14434830Y14976015D01*
X-14436691Y14976786D01*
X-14438101Y14977086D01*
X-14440457Y14978345D01*
X-14440460Y14978346D01*
X-14575000Y15019158D01*
X-14575000Y14299999D01*
X-14576364Y14299999D01*
X-14656115Y14362071D01*
X-14766595Y14399999D01*
X-14854005Y14399999D01*
X-14940216Y14385613D01*
X-15042947Y14330018D01*
X-15122060Y14244078D01*
X-15168982Y14137107D01*
X-15178628Y14020697D01*
X-15149953Y13907461D01*
X-15086064Y13809672D01*
X-15073636Y13799999D01*
X-15794160Y13799999D01*
X-15753347Y13665457D01*
X-15660496Y13491745D01*
X-15660492Y13491738D01*
X-15535534Y13339478D01*
X-15533815Y13337759D01*
X-15533201Y13336634D01*
X-15531664Y13334762D01*
X-15532019Y13334470D01*
X-15500325Y13276438D01*
X-15505304Y13206746D01*
X-15516491Y13184105D01*
X-15550789Y13129521D01*
X-15599059Y12991571D01*
X-15610368Y12959253D01*
X-15610369Y12959248D01*
X-15620216Y12871846D01*
X-15630565Y12779999D01*
X-15610368Y12600744D01*
X-15550789Y12430477D01*
X-15460000Y12285987D01*
X-15454815Y12277736D01*
X-15409759Y12232680D01*
X-15376274Y12171357D01*
X-15381258Y12101665D01*
X-15409758Y12057319D01*
X-15454816Y12012261D01*
X-15550789Y11859521D01*
X-15610368Y11689254D01*
X-15610368Y11689253D01*
X-15610369Y11689248D01*
X-15630565Y11510002D01*
X-15630565Y11509995D01*
X-15614505Y11367461D01*
X-15610368Y11330744D01*
X-15555656Y11174385D01*
X-15550788Y11160475D01*
X-15516496Y11105899D01*
X-15497496Y11038662D01*
X-15517864Y10971827D01*
X-15533816Y10952238D01*
X-15535534Y10950519D01*
X-15660492Y10798259D01*
X-15660496Y10798252D01*
X-15753347Y10624540D01*
X-15794160Y10489999D01*
X-15070581Y10489999D01*
X-15122060Y10434078D01*
X-15168982Y10327107D01*
X-15178628Y10210697D01*
X-15149953Y10097461D01*
X-15086064Y9999672D01*
X-15073636Y9989999D01*
X-15794160Y9989999D01*
X-15753347Y9855457D01*
X-15660496Y9681745D01*
X-15660492Y9681738D01*
X-15535534Y9529478D01*
X-15533815Y9527759D01*
X-15533201Y9526634D01*
X-15531664Y9524762D01*
X-15532019Y9524470D01*
X-15500325Y9466438D01*
X-15505304Y9396746D01*
X-15516491Y9374105D01*
X-15550789Y9319521D01*
X-15555655Y9305613D01*
X-15610368Y9149253D01*
X-15610369Y9149248D01*
X-15630565Y8970002D01*
X-15630565Y8969995D01*
X-15610369Y8790749D01*
X-15610368Y8790744D01*
X-15555656Y8634385D01*
X-15550788Y8620475D01*
X-15516496Y8565899D01*
X-15497496Y8498662D01*
X-15517864Y8431827D01*
X-15533816Y8412238D01*
X-15535534Y8410519D01*
X-15660492Y8258259D01*
X-15660496Y8258252D01*
X-15753347Y8084540D01*
X-15794160Y7949999D01*
X-15070581Y7949999D01*
X-15122060Y7894078D01*
X-15168982Y7787107D01*
X-15178628Y7670697D01*
X-15149953Y7557461D01*
X-15086064Y7459672D01*
X-14993885Y7387927D01*
X-14883405Y7349999D01*
X-14795995Y7349999D01*
X-14709784Y7364385D01*
X-14607053Y7419980D01*
X-14527940Y7505920D01*
X-14481018Y7612891D01*
X-14471372Y7729301D01*
X-14500047Y7842537D01*
X-14563936Y7940326D01*
X-14576364Y7949999D01*
X-13800581Y7949999D01*
X-13852060Y7894078D01*
X-13898982Y7787107D01*
X-13908628Y7670697D01*
X-13879953Y7557461D01*
X-13816064Y7459672D01*
X-13803636Y7449999D01*
X-14575000Y7449999D01*
X-14575000Y6678937D01*
X-14656115Y6742071D01*
X-14766595Y6779999D01*
X-14854005Y6779999D01*
X-14940216Y6765613D01*
X-15042947Y6710018D01*
X-15122060Y6624078D01*
X-15168982Y6517107D01*
X-15178628Y6400697D01*
X-15149953Y6287461D01*
X-15086064Y6189672D01*
X-15073636Y6179999D01*
X-15794160Y6179999D01*
X-15753347Y6045457D01*
X-15660496Y5871745D01*
X-15660492Y5871738D01*
X-15535534Y5719478D01*
X-15533815Y5717759D01*
X-15533201Y5716634D01*
X-15531664Y5714762D01*
X-15532019Y5714470D01*
X-15500325Y5656438D01*
X-15505304Y5586746D01*
X-15516491Y5564105D01*
X-15550789Y5509521D01*
X-15608310Y5345133D01*
X-15610368Y5339253D01*
X-15610369Y5339248D01*
X-15630565Y5160002D01*
X-15630565Y5159995D01*
X-15610369Y4980749D01*
X-15610368Y4980744D01*
X-15555656Y4824385D01*
X-15550788Y4810475D01*
X-15527783Y4773863D01*
X-15460000Y4665987D01*
X-15454815Y4657736D01*
X-15449260Y4652181D01*
X-15415775Y4590858D01*
X-15420759Y4521166D01*
X-15462631Y4465233D01*
X-15528095Y4440816D01*
X-15536941Y4440500D01*
X-15765178Y4440500D01*
X-15769410Y4440572D01*
X-15771374Y4440639D01*
X-15833526Y4442762D01*
X-15873455Y4433030D01*
X-15885892Y4430667D01*
X-15926620Y4425070D01*
X-15943083Y4417918D01*
X-15963116Y4411181D01*
X-15980552Y4406933D01*
X-16016395Y4386778D01*
X-16027715Y4381157D01*
X-16065420Y4364780D01*
X-16065421Y4364779D01*
X-16079332Y4353461D01*
X-16096822Y4341557D01*
X-16112459Y4332766D01*
X-16141522Y4303701D01*
X-16150929Y4295212D01*
X-16182808Y4269278D01*
X-16193156Y4254616D01*
X-16206774Y4238449D01*
X-16912045Y3533178D01*
X-16915030Y3530293D01*
X-16961944Y3486480D01*
X-16976069Y3463251D01*
X-16983289Y3451378D01*
X-16990425Y3440891D01*
X-17015261Y3408142D01*
X-17021843Y3391448D01*
X-17031244Y3372519D01*
X-17040572Y3357182D01*
X-17051660Y3317605D01*
X-17055700Y3305592D01*
X-17070776Y3267364D01*
X-17070776Y3267360D01*
X-17070777Y3267358D01*
X-17072611Y3249516D01*
X-17076558Y3228744D01*
X-17081400Y3211465D01*
X-17081400Y3211463D01*
X-17081400Y3170381D01*
X-17082050Y3157701D01*
X-17086252Y3116828D01*
X-17086251Y3116824D01*
X-17083203Y3099143D01*
X-17081400Y3078075D01*
X-17081400Y-13350177D01*
X-17081472Y-13354409D01*
X-17083662Y-13418526D01*
X-17073930Y-13458455D01*
X-17071567Y-13470892D01*
X-17065970Y-13511620D01*
X-17058818Y-13528083D01*
X-17052081Y-13548116D01*
X-17047833Y-13565552D01*
X-17027678Y-13601395D01*
X-17022057Y-13612715D01*
X-17005680Y-13650420D01*
X-17005679Y-13650421D01*
X-16994361Y-13664332D01*
X-16982457Y-13681822D01*
X-16973666Y-13697459D01*
X-16944601Y-13726522D01*
X-16936112Y-13735929D01*
X-16910178Y-13767808D01*
X-16895516Y-13778156D01*
X-16879349Y-13791774D01*
X-10936327Y-19734795D01*
X-10902844Y-19796116D01*
X-10900915Y-19807520D01*
X-10895640Y-19850972D01*
X-10835318Y-20010030D01*
X-10738683Y-20150029D01*
X-10611352Y-20262834D01*
X-10460725Y-20341890D01*
X-10332961Y-20373380D01*
X-10273326Y-20407753D01*
X-9318208Y-21399350D01*
X-9300074Y-21418176D01*
X-9298783Y-21419537D01*
X-9250680Y-21471044D01*
X-9220988Y-21489099D01*
X-9208672Y-21497651D01*
X-9181369Y-21519174D01*
X-9174704Y-21524428D01*
X-9176162Y-21526278D01*
X-9136804Y-21568163D01*
X-9123430Y-21624180D01*
X-9123430Y-22747656D01*
X-9120576Y-22778086D01*
X-9120576Y-22778088D01*
X-9109056Y-22811009D01*
X-9075723Y-22906269D01*
X-8995080Y-23015537D01*
X-8885812Y-23096180D01*
X-8868537Y-23102224D01*
X-8821808Y-23131584D01*
X-8229098Y-23724293D01*
X-8195615Y-23785614D01*
X-8200599Y-23855305D01*
X-8242470Y-23911239D01*
X-8307935Y-23935656D01*
X-8356639Y-23929391D01*
X-9712459Y-23469153D01*
X-9727445Y-23462946D01*
X-12692709Y-22000639D01*
X-12706756Y-21992529D01*
X-15455782Y-20155689D01*
X-15468650Y-20145815D01*
X-17954401Y-17965870D01*
X-17965870Y-17954401D01*
X-20145815Y-15468650D01*
X-20155689Y-15455782D01*
X-21992529Y-12706756D01*
X-22000639Y-12692709D01*
X-23462946Y-9727445D01*
X-23469153Y-9712459D01*
X-24531902Y-6581699D01*
X-24536100Y-6566032D01*
X-25181112Y-3323342D01*
X-25183230Y-3307261D01*
X-25399468Y-8110D01*
X-25399468Y0D01*
X-23105449Y0D01*
X-23085683Y-251148D01*
X-23026873Y-496111D01*
X-22930466Y-728859D01*
X-22798836Y-943659D01*
X-22635224Y-1135224D01*
X-22443659Y-1298836D01*
X-22228859Y-1430466D01*
X-21996111Y-1526873D01*
X-21751148Y-1585683D01*
X-21562882Y-1600500D01*
X-21562874Y-1600500D01*
X-21437126Y-1600500D01*
X-21437118Y-1600500D01*
X-21248852Y-1585683D01*
X-21003889Y-1526873D01*
X-20866633Y-1470020D01*
X-20771140Y-1430466D01*
X-20556346Y-1298839D01*
X-20556343Y-1298838D01*
X-20495069Y-1246505D01*
X-20364776Y-1135224D01*
X-20245801Y-995922D01*
X-20201161Y-943656D01*
X-20201160Y-943653D01*
X-20069533Y-728859D01*
X-19973126Y-496110D01*
X-19914317Y-251151D01*
X-19894551Y0D01*
X-19914317Y251151D01*
X-19973126Y496110D01*
X-20069533Y728859D01*
X-20201160Y943653D01*
X-20201161Y943656D01*
X-20272993Y1027760D01*
X-20364776Y1135224D01*
X-20556341Y1298836D01*
X-20556343Y1298838D01*
X-20556346Y1298839D01*
X-20771140Y1430466D01*
X-21003889Y1526873D01*
X-21013807Y1529254D01*
X-21248852Y1585683D01*
X-21437118Y1600500D01*
X-21562882Y1600500D01*
X-21751148Y1585683D01*
X-21996111Y1526873D01*
X-22228859Y1430466D01*
X-22443659Y1298836D01*
X-22635224Y1135224D01*
X-22798836Y943659D01*
X-22930466Y728859D01*
X-23026873Y496111D01*
X-23085683Y251148D01*
X-23105449Y0D01*
X-25399468Y0D01*
X-25399468Y8110D01*
X-25183230Y3307261D01*
X-25181112Y3323342D01*
X-24536100Y6566032D01*
X-24531902Y6581699D01*
X-24237154Y7449999D01*
X-15794160Y7449999D01*
X-15753347Y7315457D01*
X-15660497Y7141746D01*
X-15657111Y7136679D01*
X-15658665Y7135640D01*
X-15634759Y7079360D01*
X-15646547Y7010492D01*
X-15657441Y6993539D01*
X-15657111Y6993319D01*
X-15660497Y6988251D01*
X-15753347Y6814540D01*
X-15794160Y6679999D01*
X-15075000Y6679999D01*
X-15075000Y7449999D01*
X-15794160Y7449999D01*
X-24237154Y7449999D01*
X-23469153Y9712459D01*
X-23462946Y9727445D01*
X-22000639Y12692709D01*
X-21992529Y12706756D01*
X-20927958Y14299999D01*
X-15794160Y14299999D01*
X-15075000Y14299999D01*
X-15075000Y15019158D01*
X-15209534Y14978348D01*
X-15383260Y14885490D01*
X-15535528Y14760527D01*
X-15660492Y14608259D01*
X-15660496Y14608252D01*
X-15753347Y14434540D01*
X-15794160Y14299999D01*
X-20927958Y14299999D01*
X-20155689Y15455782D01*
X-20145815Y15468650D01*
X-17965870Y17954401D01*
X-17954401Y17965870D01*
X-15468650Y20145815D01*
X-15455782Y20155689D01*
X-12706757Y21992529D01*
X-12692710Y22000639D01*
X-9727445Y23462946D01*
X-9712459Y23469153D01*
X-6581699Y24531902D01*
X-6566032Y24536100D01*
X-3323342Y25181112D01*
X-3307261Y25183230D01*
X-8110Y25399468D01*
X8110Y25399468D01*
X3307261Y25183230D01*
G37*
%TD.AperFunction*%
%TA.AperFunction,Conductor*%
G36*
X-2096648Y-20520785D02*
G01*
X-2076006Y-20537419D01*
X905227Y-23518652D01*
X938712Y-23579975D01*
X933728Y-23649667D01*
X891856Y-23705600D01*
X826392Y-23730017D01*
X759920Y-23716129D01*
X657365Y-23662303D01*
X503986Y-23624500D01*
X503985Y-23624500D01*
X491455Y-23624500D01*
X424416Y-23604815D01*
X403774Y-23588181D01*
X-890393Y-22294013D01*
X-890394Y-22294013D01*
X-912958Y-22271450D01*
X-912960Y-22271448D01*
X-932697Y-22261391D01*
X-949277Y-22251231D01*
X-967205Y-22238206D01*
X-967210Y-22238203D01*
X-988288Y-22231354D01*
X-1006252Y-22223913D01*
X-1025996Y-22213854D01*
X-1025994Y-22213854D01*
X-1047882Y-22210387D01*
X-1066791Y-22205847D01*
X-1087867Y-22199000D01*
X-1119781Y-22199000D01*
X-3332229Y-22199000D01*
X-3399268Y-22179315D01*
X-3445023Y-22126511D01*
X-3454967Y-22057353D01*
X-3446180Y-22026100D01*
X-3413893Y-21950862D01*
X-3375000Y-21761606D01*
X-3375000Y-21515000D01*
X-4025000Y-21515000D01*
X-4025000Y-21015000D01*
X-3375000Y-21015000D01*
X-3375000Y-20816823D01*
X-3389648Y-20672778D01*
X-3392961Y-20662218D01*
X-3394247Y-20592360D01*
X-3357560Y-20532897D01*
X-3294550Y-20502708D01*
X-3274647Y-20501100D01*
X-2163687Y-20501100D01*
X-2096648Y-20520785D01*
G37*
%TD.AperFunction*%
%TA.AperFunction,Conductor*%
G36*
X-4625000Y-21515000D02*
G01*
X-5275000Y-21515000D01*
X-5275000Y-21713176D01*
X-5260352Y-21857221D01*
X-5203671Y-22037879D01*
X-5202384Y-22107737D01*
X-5239069Y-22167201D01*
X-5302079Y-22197392D01*
X-5321984Y-22199000D01*
X-5898430Y-22199000D01*
X-5965469Y-22179315D01*
X-6011224Y-22126511D01*
X-6022430Y-22075000D01*
X-6022430Y-21672441D01*
X-6002745Y-21605402D01*
X-5959201Y-21564354D01*
X-5952050Y-21560333D01*
X-5952048Y-21560333D01*
X-5916234Y-21540196D01*
X-5904864Y-21534549D01*
X-5867180Y-21518181D01*
X-5867179Y-21518180D01*
X-5853263Y-21506858D01*
X-5835776Y-21494957D01*
X-5820144Y-21486168D01*
X-5820141Y-21486166D01*
X-5791088Y-21457113D01*
X-5781661Y-21448605D01*
X-5749793Y-21422679D01*
X-5739441Y-21408014D01*
X-5725820Y-21391845D01*
X-5385294Y-21051319D01*
X-5323971Y-21017834D01*
X-5297613Y-21015000D01*
X-4625000Y-21015000D01*
X-4625000Y-21515000D01*
G37*
%TD.AperFunction*%
%TA.AperFunction,Conductor*%
G36*
X-12389190Y7977364D02*
G01*
X-12388799Y7976974D01*
X-9886819Y5474994D01*
X-9853334Y5413671D01*
X-9850500Y5387313D01*
X-9850500Y-11527914D01*
X-9870185Y-11594953D01*
X-9915983Y-11634637D01*
X-9914947Y-11636481D01*
X-9922340Y-11640638D01*
X-10042921Y-11732077D01*
X-10134359Y-11852656D01*
X-10134359Y-11852657D01*
X-10134360Y-11852658D01*
X-10189876Y-11993436D01*
X-10200499Y-12081898D01*
X-10200499Y-12081903D01*
X-10200499Y-12742146D01*
X-10220184Y-12809185D01*
X-10272988Y-12854940D01*
X-10342146Y-12864884D01*
X-10405702Y-12835859D01*
X-10412180Y-12829827D01*
X-11607581Y-11634426D01*
X-11641066Y-11573103D01*
X-11643900Y-11546745D01*
X-11643900Y-1367167D01*
X-11650747Y-1346091D01*
X-11655287Y-1327182D01*
X-11658754Y-1305295D01*
X-11668813Y-1285552D01*
X-11676254Y-1267588D01*
X-11683103Y-1246510D01*
X-11683106Y-1246505D01*
X-11696131Y-1228577D01*
X-11706291Y-1211997D01*
X-11716348Y-1192260D01*
X-11716348Y-1192259D01*
X-11727631Y-1180976D01*
X-11738913Y-1169694D01*
X-11738913Y-1169693D01*
X-11738916Y-1169691D01*
X-12731428Y-177177D01*
X-12764913Y-115854D01*
X-12766967Y-75613D01*
X-12749435Y79994D01*
X-12749435Y80002D01*
X-12769630Y259248D01*
X-12769633Y259261D01*
X-12829209Y429517D01*
X-12829213Y429526D01*
X-12863503Y484099D01*
X-12882503Y551336D01*
X-12862135Y618171D01*
X-12846198Y637744D01*
X-12844471Y639470D01*
X-12719507Y791738D01*
X-12719503Y791745D01*
X-12626652Y965457D01*
X-12585840Y1099999D01*
X-13309419Y1099999D01*
X-13257940Y1155920D01*
X-13211018Y1262891D01*
X-13201372Y1379301D01*
X-13230047Y1492537D01*
X-13293936Y1590326D01*
X-13386115Y1662071D01*
X-13496595Y1699999D01*
X-13584005Y1699999D01*
X-13670216Y1685613D01*
X-13772947Y1630018D01*
X-13805000Y1595199D01*
X-13805000Y2371060D01*
X-13723885Y2307927D01*
X-13613405Y2269999D01*
X-13525995Y2269999D01*
X-13439784Y2284385D01*
X-13337053Y2339980D01*
X-13309419Y2369999D01*
X-13305000Y2369999D01*
X-13305000Y1599999D01*
X-12585839Y1599999D01*
X-12626652Y1734540D01*
X-12719503Y1908252D01*
X-12722890Y1913321D01*
X-12721338Y1914357D01*
X-12745242Y1970660D01*
X-12733442Y2039526D01*
X-12722560Y2056457D01*
X-12722890Y2056677D01*
X-12719503Y2061745D01*
X-12626652Y2235457D01*
X-12585840Y2369999D01*
X-13305000Y2369999D01*
X-13309419Y2369999D01*
X-13257940Y2425920D01*
X-13211018Y2532891D01*
X-13201372Y2649301D01*
X-13230047Y2762537D01*
X-13293936Y2860326D01*
X-13306364Y2869999D01*
X-12585839Y2869999D01*
X-12626652Y3004540D01*
X-12719503Y3178252D01*
X-12719507Y3178259D01*
X-12844465Y3330519D01*
X-12846184Y3332238D01*
X-12846797Y3333361D01*
X-12848336Y3335236D01*
X-12847980Y3335527D01*
X-12879674Y3393559D01*
X-12874695Y3463251D01*
X-12863505Y3485898D01*
X-12829208Y3540481D01*
X-12769633Y3710736D01*
X-12769630Y3710749D01*
X-12749435Y3889995D01*
X-12749435Y3890002D01*
X-12769630Y4069248D01*
X-12769633Y4069261D01*
X-12829209Y4239517D01*
X-12829213Y4239526D01*
X-12863503Y4294099D01*
X-12882503Y4361336D01*
X-12862135Y4428171D01*
X-12846198Y4447744D01*
X-12844471Y4449470D01*
X-12719507Y4601738D01*
X-12719503Y4601745D01*
X-12626652Y4775457D01*
X-12585840Y4909999D01*
X-13309419Y4909999D01*
X-13257940Y4965920D01*
X-13211018Y5072891D01*
X-13201372Y5189301D01*
X-13230047Y5302537D01*
X-13293936Y5400326D01*
X-13306364Y5409999D01*
X-12585839Y5409999D01*
X-12626652Y5544540D01*
X-12719503Y5718252D01*
X-12719507Y5718259D01*
X-12844465Y5870519D01*
X-12846184Y5872238D01*
X-12846797Y5873361D01*
X-12848336Y5875236D01*
X-12847980Y5875527D01*
X-12879674Y5933559D01*
X-12874695Y6003251D01*
X-12863505Y6025898D01*
X-12829208Y6080481D01*
X-12769633Y6250736D01*
X-12769630Y6250749D01*
X-12749435Y6429995D01*
X-12749435Y6430002D01*
X-12769630Y6609248D01*
X-12769633Y6609261D01*
X-12829209Y6779517D01*
X-12829213Y6779526D01*
X-12863503Y6834099D01*
X-12882503Y6901336D01*
X-12862135Y6968171D01*
X-12846198Y6987744D01*
X-12844471Y6989470D01*
X-12719507Y7141738D01*
X-12719503Y7141745D01*
X-12626652Y7315457D01*
X-12585840Y7449999D01*
X-13309419Y7449999D01*
X-13257940Y7505920D01*
X-13211018Y7612891D01*
X-13201372Y7729301D01*
X-13230047Y7842537D01*
X-13293936Y7940326D01*
X-13306364Y7949999D01*
X-12585839Y7949999D01*
X-12576077Y7963161D01*
X-12520330Y8005281D01*
X-12450662Y8010575D01*
X-12389190Y7977364D01*
G37*
%TD.AperFunction*%
%TA.AperFunction,Conductor*%
G36*
X-881165Y2601628D02*
G01*
X-825232Y2559756D01*
X-800815Y2494292D01*
X-800499Y2485446D01*
X-800499Y2180135D01*
X-800498Y2180130D01*
X-800497Y2180116D01*
X-797586Y2155011D01*
X-795137Y2146010D01*
X-798665Y2145049D01*
X-791881Y2093446D01*
X-818546Y2033905D01*
X-835498Y2013250D01*
X-928347Y1839540D01*
X-969160Y1704999D01*
X-214483Y1704999D01*
X-285801Y1620006D01*
X-325000Y1512305D01*
X-325000Y1397693D01*
X-285801Y1289992D01*
X-214483Y1204999D01*
X-969160Y1204999D01*
X-928347Y1070457D01*
X-835496Y896745D01*
X-835492Y896738D01*
X-710534Y744478D01*
X-708815Y742759D01*
X-708201Y741634D01*
X-706664Y739762D01*
X-707019Y739470D01*
X-675325Y681438D01*
X-680304Y611746D01*
X-691491Y589105D01*
X-725789Y534521D01*
X-784113Y367839D01*
X-785368Y364253D01*
X-785369Y364248D01*
X-805565Y185002D01*
X-805565Y184995D01*
X-785635Y8110D01*
X-785368Y5744D01*
X-725789Y-164523D01*
X-629816Y-317263D01*
X-606894Y-340185D01*
X-584759Y-362320D01*
X-551274Y-423643D01*
X-556258Y-493335D01*
X-584759Y-537682D01*
X-629816Y-582739D01*
X-679733Y-662182D01*
X-725788Y-735477D01*
X-785368Y-905746D01*
X-785369Y-905751D01*
X-805565Y-1084997D01*
X-805565Y-1085004D01*
X-785369Y-1264250D01*
X-785368Y-1264256D01*
X-725789Y-1434523D01*
X-629816Y-1587263D01*
X-595834Y-1621245D01*
X-584759Y-1632320D01*
X-551274Y-1693643D01*
X-556258Y-1763335D01*
X-584759Y-1807682D01*
X-629816Y-1852739D01*
X-686582Y-1943081D01*
X-725788Y-2005477D01*
X-785368Y-2175746D01*
X-785369Y-2175751D01*
X-805565Y-2354997D01*
X-805565Y-2355004D01*
X-793734Y-2460004D01*
X-785368Y-2534256D01*
X-725789Y-2704523D01*
X-629816Y-2857263D01*
X-605247Y-2881832D01*
X-584759Y-2902320D01*
X-551274Y-2963643D01*
X-556258Y-3033335D01*
X-584759Y-3077682D01*
X-629816Y-3122739D01*
X-725789Y-3275479D01*
X-775553Y-3417696D01*
X-785368Y-3445746D01*
X-785369Y-3445751D01*
X-805565Y-3624997D01*
X-805565Y-3625004D01*
X-793734Y-3730004D01*
X-785368Y-3804256D01*
X-725789Y-3974523D01*
X-629816Y-4127263D01*
X-584759Y-4172320D01*
X-551274Y-4233643D01*
X-556258Y-4303335D01*
X-584759Y-4347682D01*
X-629816Y-4392739D01*
X-725789Y-4545479D01*
X-741197Y-4589513D01*
X-785368Y-4715746D01*
X-785369Y-4715751D01*
X-805565Y-4894997D01*
X-805565Y-4895004D01*
X-785369Y-5074250D01*
X-785368Y-5074256D01*
X-725789Y-5244523D01*
X-629816Y-5397263D01*
X-600331Y-5426748D01*
X-584759Y-5442320D01*
X-551274Y-5503643D01*
X-556258Y-5573335D01*
X-584759Y-5617682D01*
X-629816Y-5662739D01*
X-725789Y-5815479D01*
X-749317Y-5882718D01*
X-785368Y-5985746D01*
X-785369Y-5985751D01*
X-805565Y-6164997D01*
X-805565Y-6165004D01*
X-786946Y-6330253D01*
X-785368Y-6344256D01*
X-725789Y-6514523D01*
X-629816Y-6667263D01*
X-604524Y-6692555D01*
X-584759Y-6712320D01*
X-551274Y-6773643D01*
X-556258Y-6843335D01*
X-584759Y-6887682D01*
X-629816Y-6932739D01*
X-667480Y-6992681D01*
X-715218Y-7068656D01*
X-725789Y-7085479D01*
X-773604Y-7222126D01*
X-785368Y-7255746D01*
X-785369Y-7255751D01*
X-805565Y-7434997D01*
X-805565Y-7435004D01*
X-793734Y-7540004D01*
X-785368Y-7614256D01*
X-725789Y-7784523D01*
X-629816Y-7937263D01*
X-595142Y-7971937D01*
X-584759Y-7982320D01*
X-551274Y-8043643D01*
X-556258Y-8113335D01*
X-584759Y-8157682D01*
X-629816Y-8202739D01*
X-675871Y-8276035D01*
X-725788Y-8355477D01*
X-785368Y-8525746D01*
X-785369Y-8525751D01*
X-805565Y-8704997D01*
X-805565Y-8705004D01*
X-785613Y-8882084D01*
X-785368Y-8884256D01*
X-725789Y-9054523D01*
X-629816Y-9207263D01*
X-502262Y-9334817D01*
X-372024Y-9416650D01*
X-325735Y-9468983D01*
X-315086Y-9538037D01*
X-343462Y-9601885D01*
X-350317Y-9609324D01*
X-2531769Y-11790775D01*
X-2593092Y-11824260D01*
X-2662784Y-11819276D01*
X-2692335Y-11803413D01*
X-2848385Y-11690038D01*
X-2891051Y-11634708D01*
X-2899500Y-11589719D01*
X-2899500Y634445D01*
X-2879815Y701484D01*
X-2863181Y722126D01*
X-1012180Y2573127D01*
X-950857Y2606612D01*
X-881165Y2601628D01*
G37*
%TD.AperFunction*%
%TA.AperFunction,Conductor*%
G36*
X7510103Y-9143542D02*
G01*
X7516581Y-9149574D01*
X8655326Y-10288319D01*
X8688811Y-10349642D01*
X8683827Y-10419334D01*
X8641955Y-10475267D01*
X8614488Y-10485511D01*
X8600000Y-10500000D01*
X8600000Y-11319382D01*
X8530948Y-11265637D01*
X8412576Y-11225000D01*
X8318927Y-11225000D01*
X8226554Y-11240414D01*
X8116486Y-11299981D01*
X8100000Y-11317889D01*
X8100000Y-10500000D01*
X8022602Y-10500000D01*
X7865877Y-10514965D01*
X7865873Y-10514966D01*
X7664313Y-10574149D01*
X7538025Y-10639255D01*
X7469418Y-10652477D01*
X7404553Y-10626509D01*
X7379155Y-10599478D01*
X7326850Y-10523700D01*
X7304967Y-10457346D01*
X7304900Y-10453261D01*
X7304900Y-9237255D01*
X7324585Y-9170216D01*
X7377389Y-9124461D01*
X7446547Y-9114517D01*
X7510103Y-9143542D01*
G37*
%TD.AperFunction*%
%TA.AperFunction,Conductor*%
G36*
X-12495479Y-1629615D02*
G01*
X-12453110Y-1685173D01*
X-12444900Y-1729542D01*
X-12444900Y-9540459D01*
X-12464585Y-9607498D01*
X-12517389Y-9653253D01*
X-12586547Y-9663197D01*
X-12650103Y-9634172D01*
X-12678258Y-9598912D01*
X-12719503Y-9521747D01*
X-12719507Y-9521740D01*
X-12844471Y-9369472D01*
X-12846198Y-9367746D01*
X-12846812Y-9366620D01*
X-12848336Y-9364764D01*
X-12847983Y-9364474D01*
X-12879677Y-9306420D01*
X-12874687Y-9236729D01*
X-12863503Y-9214101D01*
X-12829213Y-9159528D01*
X-12829209Y-9159519D01*
X-12769633Y-8989263D01*
X-12769630Y-8989250D01*
X-12749435Y-8810004D01*
X-12749435Y-8809997D01*
X-12769630Y-8630751D01*
X-12769631Y-8630746D01*
X-12829211Y-8460477D01*
X-12925184Y-8307738D01*
X-12970241Y-8262681D01*
X-13003725Y-8201358D01*
X-12998740Y-8131666D01*
X-12970241Y-8087321D01*
X-12925185Y-8042264D01*
X-12925184Y-8042263D01*
X-12829211Y-7889524D01*
X-12769631Y-7719255D01*
X-12769630Y-7719250D01*
X-12749435Y-7540004D01*
X-12749435Y-7539997D01*
X-12769630Y-7360751D01*
X-12769631Y-7360746D01*
X-12829211Y-7190477D01*
X-12925184Y-7037738D01*
X-12970241Y-6992681D01*
X-13003725Y-6931358D01*
X-12998740Y-6861666D01*
X-12970241Y-6817321D01*
X-12925185Y-6772264D01*
X-12925184Y-6772263D01*
X-12829211Y-6619524D01*
X-12769631Y-6449255D01*
X-12769630Y-6449250D01*
X-12749435Y-6270004D01*
X-12749435Y-6269997D01*
X-12769630Y-6090751D01*
X-12769631Y-6090746D01*
X-12829211Y-5920477D01*
X-12925184Y-5767738D01*
X-12970241Y-5722681D01*
X-13003725Y-5661358D01*
X-12998740Y-5591666D01*
X-12970241Y-5547321D01*
X-12925185Y-5502264D01*
X-12925184Y-5502263D01*
X-12829211Y-5349524D01*
X-12769631Y-5179255D01*
X-12769630Y-5179250D01*
X-12749435Y-5000004D01*
X-12749435Y-4999997D01*
X-12769630Y-4820751D01*
X-12769631Y-4820746D01*
X-12829211Y-4650477D01*
X-12925184Y-4497738D01*
X-12970241Y-4452681D01*
X-13003725Y-4391358D01*
X-12998740Y-4321666D01*
X-12970241Y-4277321D01*
X-12925185Y-4232264D01*
X-12925184Y-4232263D01*
X-12829211Y-4079524D01*
X-12769631Y-3909255D01*
X-12769630Y-3909250D01*
X-12749435Y-3730004D01*
X-12749435Y-3729997D01*
X-12769630Y-3550751D01*
X-12769631Y-3550746D01*
X-12829211Y-3380477D01*
X-12925184Y-3227738D01*
X-12970241Y-3182681D01*
X-13003725Y-3121358D01*
X-12998740Y-3051666D01*
X-12970241Y-3007321D01*
X-12925185Y-2962264D01*
X-12925184Y-2962263D01*
X-12829211Y-2809524D01*
X-12769631Y-2639255D01*
X-12769630Y-2639250D01*
X-12749435Y-2460004D01*
X-12749435Y-2459997D01*
X-12769630Y-2280751D01*
X-12769633Y-2280738D01*
X-12829208Y-2110483D01*
X-12863505Y-2055900D01*
X-12882504Y-1988663D01*
X-12862135Y-1921828D01*
X-12846184Y-1902240D01*
X-12844465Y-1900521D01*
X-12719507Y-1748261D01*
X-12719505Y-1748258D01*
X-12678259Y-1671090D01*
X-12629297Y-1621245D01*
X-12561159Y-1605784D01*
X-12495479Y-1629615D01*
G37*
%TD.AperFunction*%
%TA.AperFunction,Conductor*%
G36*
X16367534Y-4146372D02*
G01*
X16423467Y-4188244D01*
X16447884Y-4253708D01*
X16448200Y-4262554D01*
X16448200Y-7161101D01*
X16428515Y-7228140D01*
X16375711Y-7273895D01*
X16306553Y-7283839D01*
X16248714Y-7259477D01*
X16206342Y-7226964D01*
X16060262Y-7166456D01*
X16060260Y-7166455D01*
X15903501Y-7145818D01*
X15903499Y-7145818D01*
X15746740Y-7166455D01*
X15691885Y-7189177D01*
X15622415Y-7196645D01*
X15559936Y-7165369D01*
X15539435Y-7140580D01*
X15536491Y-7135894D01*
X15517496Y-7068656D01*
X15537867Y-7001823D01*
X15553815Y-6982240D01*
X15555533Y-6980521D01*
X15680491Y-6828261D01*
X15680495Y-6828254D01*
X15773346Y-6654542D01*
X15814159Y-6520001D01*
X15090580Y-6520001D01*
X15142059Y-6464080D01*
X15188981Y-6357109D01*
X15198627Y-6240699D01*
X15169952Y-6127463D01*
X15106063Y-6029674D01*
X15093635Y-6020001D01*
X15814159Y-6020001D01*
X15814159Y-6020000D01*
X15773346Y-5885459D01*
X15680495Y-5711747D01*
X15680491Y-5711740D01*
X15555533Y-5559480D01*
X15553814Y-5557761D01*
X15553200Y-5556636D01*
X15551663Y-5554764D01*
X15552018Y-5554472D01*
X15520324Y-5496440D01*
X15525303Y-5426748D01*
X15536490Y-5404107D01*
X15570788Y-5349523D01*
X15630367Y-5179256D01*
X15633912Y-5147797D01*
X15650564Y-5000004D01*
X15650564Y-4999997D01*
X15633031Y-4844385D01*
X15645086Y-4775563D01*
X15668567Y-4742824D01*
X16236520Y-4174872D01*
X16297842Y-4141388D01*
X16367534Y-4146372D01*
G37*
%TD.AperFunction*%
%TA.AperFunction,Conductor*%
G36*
X15752043Y1022703D02*
G01*
X15790415Y964313D01*
X15795800Y928167D01*
X15795800Y501830D01*
X15776115Y434791D01*
X15723311Y389036D01*
X15654153Y379092D01*
X15590597Y408117D01*
X15566806Y435858D01*
X15474815Y582261D01*
X15429758Y627318D01*
X15396273Y688641D01*
X15401257Y758333D01*
X15429758Y802680D01*
X15474814Y847736D01*
X15485893Y865367D01*
X15548065Y964313D01*
X15566806Y994139D01*
X15619141Y1040430D01*
X15688195Y1051078D01*
X15752043Y1022703D01*
G37*
%TD.AperFunction*%
%TA.AperFunction,Conductor*%
G36*
X11766184Y3106515D02*
G01*
X11786826Y3089881D01*
X12169601Y2707107D01*
X12495050Y2381658D01*
X12536728Y2339980D01*
X12584759Y2291948D01*
X12604499Y2281890D01*
X12621084Y2271727D01*
X12639007Y2258705D01*
X12660086Y2251855D01*
X12678050Y2244414D01*
X12697795Y2234354D01*
X12697800Y2234352D01*
X12719682Y2230887D01*
X12738599Y2226346D01*
X12768947Y2216486D01*
X12768065Y2213773D01*
X12817272Y2190442D01*
X12854199Y2131128D01*
X12853196Y2061265D01*
X12830586Y2019239D01*
X12739506Y1908259D01*
X12739502Y1908252D01*
X12646651Y1734540D01*
X12605838Y1599999D01*
X13329418Y1599999D01*
X13277939Y1544078D01*
X13231017Y1437107D01*
X13221371Y1320697D01*
X13250046Y1207461D01*
X13313935Y1109672D01*
X13326363Y1099999D01*
X12605839Y1099999D01*
X12646651Y965457D01*
X12739502Y791745D01*
X12739506Y791738D01*
X12828611Y683165D01*
X12855924Y618855D01*
X12844133Y549987D01*
X12796981Y498427D01*
X12732758Y480500D01*
X1074155Y480500D01*
X1007116Y500185D01*
X998189Y507378D01*
X998141Y507311D01*
X990245Y513047D01*
X990244Y513047D01*
X990242Y513050D01*
X970488Y523114D01*
X953926Y533263D01*
X935990Y546296D01*
X914911Y553144D01*
X896944Y560586D01*
X877204Y570646D01*
X855317Y574112D01*
X836401Y578654D01*
X815333Y585500D01*
X806051Y588516D01*
X806932Y591229D01*
X757735Y614552D01*
X720803Y673863D01*
X721801Y743726D01*
X744414Y785761D01*
X835492Y896738D01*
X835496Y896745D01*
X928347Y1070457D01*
X969160Y1204999D01*
X214483Y1204999D01*
X285801Y1289992D01*
X325000Y1397693D01*
X325000Y1512305D01*
X285801Y1620006D01*
X214483Y1704999D01*
X969160Y1704999D01*
X928347Y1839540D01*
X835498Y2013249D01*
X818545Y2033907D01*
X791232Y2098217D01*
X798318Y2145141D01*
X795136Y2146007D01*
X797583Y2155003D01*
X797585Y2155008D01*
X800500Y2180134D01*
X800499Y3002200D01*
X820183Y3069239D01*
X872987Y3114994D01*
X924499Y3126200D01*
X11699145Y3126200D01*
X11766184Y3106515D01*
G37*
%TD.AperFunction*%
%TA.AperFunction,Conductor*%
G36*
X15779678Y13008157D02*
G01*
X15884799Y12994318D01*
X15884800Y12994318D01*
X15884803Y12994318D01*
X15945716Y13002337D01*
X16014751Y12991571D01*
X16067006Y12945191D01*
X16085900Y12879398D01*
X16085900Y1595854D01*
X16066215Y1528815D01*
X16049585Y1508178D01*
X15920708Y1379301D01*
X15887704Y1346297D01*
X15887690Y1346282D01*
X15861350Y1319942D01*
X15859922Y1321369D01*
X15814486Y1286335D01*
X15744873Y1280359D01*
X15683079Y1312966D01*
X15648724Y1373806D01*
X15646282Y1388005D01*
X15630368Y1529248D01*
X15630367Y1529253D01*
X15610622Y1585683D01*
X15570788Y1699521D01*
X15536494Y1754099D01*
X15517494Y1821333D01*
X15537861Y1888168D01*
X15553814Y1907759D01*
X15555533Y1909478D01*
X15680491Y2061738D01*
X15680495Y2061745D01*
X15773346Y2235457D01*
X15814159Y2369999D01*
X15090580Y2369999D01*
X15142059Y2425920D01*
X15188981Y2532891D01*
X15198627Y2649301D01*
X15169952Y2762537D01*
X15106063Y2860326D01*
X15013884Y2932071D01*
X14903404Y2969999D01*
X14815994Y2969999D01*
X14729783Y2955613D01*
X14627052Y2900018D01*
X14594999Y2865199D01*
X14594999Y3641060D01*
X14676114Y3577927D01*
X14786594Y3539999D01*
X14874004Y3539999D01*
X14960215Y3554385D01*
X15062946Y3609980D01*
X15090580Y3639999D01*
X15094999Y3639999D01*
X15094999Y2869999D01*
X15814159Y2869999D01*
X15773346Y3004540D01*
X15680496Y3178251D01*
X15677110Y3183319D01*
X15678664Y3184357D01*
X15654758Y3240638D01*
X15666546Y3309506D01*
X15677440Y3326458D01*
X15677110Y3326679D01*
X15680496Y3331746D01*
X15773346Y3505457D01*
X15814159Y3639999D01*
X15094999Y3639999D01*
X15090580Y3639999D01*
X15142059Y3695920D01*
X15188981Y3802891D01*
X15198627Y3919301D01*
X15169952Y4032537D01*
X15106063Y4130326D01*
X15093635Y4139999D01*
X15814159Y4139999D01*
X15773346Y4274540D01*
X15680495Y4448252D01*
X15680491Y4448259D01*
X15555533Y4600519D01*
X15553815Y4602238D01*
X15553201Y4603361D01*
X15551663Y4605236D01*
X15552018Y4605527D01*
X15520325Y4663559D01*
X15525304Y4733251D01*
X15536495Y4755899D01*
X15570787Y4810475D01*
X15575655Y4824385D01*
X15630367Y4980744D01*
X15630368Y4980749D01*
X15650564Y5159995D01*
X15650564Y5160002D01*
X15630368Y5339248D01*
X15630367Y5339253D01*
X15628310Y5345133D01*
X15570788Y5509521D01*
X15536494Y5564099D01*
X15517494Y5631333D01*
X15537861Y5698168D01*
X15553814Y5717759D01*
X15555533Y5719478D01*
X15680491Y5871738D01*
X15680495Y5871745D01*
X15773346Y6045457D01*
X15814159Y6179999D01*
X15090580Y6179999D01*
X15142059Y6235920D01*
X15188981Y6342891D01*
X15198627Y6459301D01*
X15169952Y6572537D01*
X15106063Y6670326D01*
X15013884Y6742071D01*
X14903404Y6779999D01*
X14815994Y6779999D01*
X14729783Y6765613D01*
X14627052Y6710018D01*
X14594999Y6675199D01*
X14594999Y7451060D01*
X14676114Y7387927D01*
X14786594Y7349999D01*
X14874004Y7349999D01*
X14960215Y7364385D01*
X15062946Y7419980D01*
X15090580Y7449999D01*
X15094999Y7449999D01*
X15094999Y6679999D01*
X15814159Y6679999D01*
X15773346Y6814540D01*
X15680496Y6988251D01*
X15677110Y6993319D01*
X15678664Y6994357D01*
X15654758Y7050638D01*
X15666546Y7119506D01*
X15677440Y7136458D01*
X15677110Y7136679D01*
X15680496Y7141746D01*
X15773346Y7315457D01*
X15814159Y7449999D01*
X15094999Y7449999D01*
X15090580Y7449999D01*
X15142059Y7505920D01*
X15188981Y7612891D01*
X15198627Y7729301D01*
X15169952Y7842537D01*
X15106063Y7940326D01*
X15013884Y8012071D01*
X14903404Y8049999D01*
X14815994Y8049999D01*
X14729783Y8035613D01*
X14627052Y7980018D01*
X14594999Y7945199D01*
X14594999Y8721060D01*
X14676114Y8657927D01*
X14786594Y8619999D01*
X14874004Y8619999D01*
X14960215Y8634385D01*
X15062946Y8689980D01*
X15090580Y8719999D01*
X15094999Y8719999D01*
X15094999Y7949999D01*
X15814159Y7949999D01*
X15773346Y8084540D01*
X15680496Y8258251D01*
X15677110Y8263319D01*
X15678664Y8264357D01*
X15654758Y8320638D01*
X15666546Y8389506D01*
X15677440Y8406458D01*
X15677110Y8406679D01*
X15680496Y8411746D01*
X15773346Y8585457D01*
X15814159Y8719999D01*
X15094999Y8719999D01*
X15090580Y8719999D01*
X15142059Y8775920D01*
X15188981Y8882891D01*
X15198627Y8999301D01*
X15169952Y9112537D01*
X15106063Y9210326D01*
X15013884Y9282071D01*
X14903404Y9319999D01*
X14815994Y9319999D01*
X14729783Y9305613D01*
X14627052Y9250018D01*
X14594999Y9215199D01*
X14594999Y9991060D01*
X14676114Y9927927D01*
X14786594Y9889999D01*
X14874004Y9889999D01*
X14960215Y9904385D01*
X15062946Y9959980D01*
X15090580Y9989999D01*
X15094999Y9989999D01*
X15094999Y9219999D01*
X15814159Y9219999D01*
X15773346Y9354540D01*
X15680496Y9528251D01*
X15677110Y9533319D01*
X15678664Y9534357D01*
X15654758Y9590638D01*
X15666546Y9659506D01*
X15677440Y9676458D01*
X15677110Y9676679D01*
X15680496Y9681746D01*
X15773346Y9855457D01*
X15814159Y9989999D01*
X15094999Y9989999D01*
X15090580Y9989999D01*
X15142059Y10045920D01*
X15188981Y10152891D01*
X15198627Y10269301D01*
X15169952Y10382537D01*
X15106063Y10480326D01*
X15013884Y10552071D01*
X14903404Y10589999D01*
X14815994Y10589999D01*
X14729783Y10575613D01*
X14627052Y10520018D01*
X14594999Y10485199D01*
X14594999Y11261060D01*
X14676114Y11197927D01*
X14786594Y11159999D01*
X14874004Y11159999D01*
X14960215Y11174385D01*
X15062946Y11229980D01*
X15090580Y11259999D01*
X15094999Y11259999D01*
X15094999Y10489999D01*
X15814159Y10489999D01*
X15773346Y10624540D01*
X15680496Y10798251D01*
X15677110Y10803319D01*
X15678664Y10804357D01*
X15654758Y10860638D01*
X15666546Y10929506D01*
X15677440Y10946458D01*
X15677110Y10946679D01*
X15680496Y10951746D01*
X15773346Y11125457D01*
X15814159Y11259999D01*
X15094999Y11259999D01*
X15090580Y11259999D01*
X15142059Y11315920D01*
X15188981Y11422891D01*
X15198627Y11539301D01*
X15169952Y11652537D01*
X15106063Y11750326D01*
X15093635Y11759999D01*
X15814159Y11759999D01*
X15773346Y11894540D01*
X15680495Y12068252D01*
X15680491Y12068259D01*
X15555533Y12220519D01*
X15553815Y12222238D01*
X15553201Y12223361D01*
X15551663Y12225236D01*
X15552018Y12225527D01*
X15520325Y12283559D01*
X15525304Y12353251D01*
X15536495Y12375899D01*
X15570787Y12430475D01*
X15580978Y12459597D01*
X15630367Y12600744D01*
X15650564Y12779999D01*
X15640273Y12871334D01*
X15652327Y12940156D01*
X15699676Y12991535D01*
X15767286Y13009160D01*
X15779678Y13008157D01*
G37*
%TD.AperFunction*%
%TA.AperFunction,Conductor*%
G36*
X-13852060Y10434078D02*
G01*
X-13898982Y10327107D01*
X-13908628Y10210697D01*
X-13879953Y10097461D01*
X-13816064Y9999672D01*
X-13803636Y9989999D01*
X-14579419Y9989999D01*
X-14527940Y10045920D01*
X-14481018Y10152891D01*
X-14471372Y10269301D01*
X-14500047Y10382537D01*
X-14563936Y10480326D01*
X-14576364Y10489999D01*
X-13800581Y10489999D01*
X-13852060Y10434078D01*
G37*
%TD.AperFunction*%
%TA.AperFunction,Conductor*%
G36*
X11389620Y14813573D02*
G01*
X11411500Y14810108D01*
X11433379Y14813573D01*
X11452775Y14815100D01*
X12647081Y14815100D01*
X12714120Y14795415D01*
X12759875Y14742611D01*
X12769819Y14673453D01*
X12742932Y14612432D01*
X12739503Y14608255D01*
X12739502Y14608252D01*
X12646651Y14434540D01*
X12605838Y14299999D01*
X13329418Y14299999D01*
X13277939Y14244078D01*
X13231017Y14137107D01*
X13221371Y14020697D01*
X13250046Y13907461D01*
X13313935Y13809672D01*
X13326363Y13799999D01*
X12605839Y13799999D01*
X12646651Y13665457D01*
X12739502Y13491745D01*
X12739506Y13491738D01*
X12864470Y13339470D01*
X12866197Y13337744D01*
X12866811Y13336618D01*
X12868335Y13334762D01*
X12867982Y13334472D01*
X12899676Y13276418D01*
X12894686Y13206727D01*
X12883502Y13184099D01*
X12849212Y13129526D01*
X12849208Y13129517D01*
X12787330Y12952681D01*
X12784572Y12953645D01*
X12755948Y12903934D01*
X12693882Y12871846D01*
X12624321Y12878407D01*
X12582596Y12905895D01*
X11728800Y13759691D01*
X11695317Y13821012D01*
X11693544Y13831185D01*
X11693081Y13834697D01*
X11693082Y13834700D01*
X11672444Y13991462D01*
X11611936Y14137541D01*
X11515682Y14262982D01*
X11390241Y14359236D01*
X11244162Y14419744D01*
X11131775Y14434540D01*
X11087401Y14440382D01*
X11087399Y14440382D01*
X11043025Y14434540D01*
X10930638Y14419744D01*
X10911642Y14411875D01*
X10842175Y14404407D01*
X10779695Y14435682D01*
X10744043Y14495771D01*
X10746536Y14565596D01*
X10776510Y14614118D01*
X10941173Y14778781D01*
X11002496Y14812266D01*
X11028854Y14815100D01*
X11370225Y14815100D01*
X11389620Y14813573D01*
G37*
%TD.AperFunction*%
%TA.AperFunction,Conductor*%
G36*
X14547939Y14244078D02*
G01*
X14501017Y14137107D01*
X14491371Y14020697D01*
X14520046Y13907461D01*
X14583935Y13809672D01*
X14596363Y13799999D01*
X13820580Y13799999D01*
X13872059Y13855920D01*
X13918981Y13962891D01*
X13928627Y14079301D01*
X13899952Y14192537D01*
X13836063Y14290326D01*
X13823635Y14299999D01*
X14599418Y14299999D01*
X14547939Y14244078D01*
G37*
%TD.AperFunction*%
%TD*%
M02*
