M48
; DRILL file {KiCad 7.0.11+dfsg-1build4} date Fri Aug 14 18:45:04 2026
; FORMAT={-:-/ absolute / metric / decimal}
; #@! TF.CreationDate,2026-08-14T18:45:04+00:00
; #@! TF.GenerationSoftware,Kicad,Pcbnew,7.0.11+dfsg-1build4
; #@! TF.FileFunction,MixedPlating,1,2
FMAT,2
METRIC
; #@! TA.AperFunction,Plated,PTH,ViaDrill
T1C0.300
; #@! TA.AperFunction,Plated,PTH,ViaDrill
T2C0.400
; #@! TA.AperFunction,Plated,PTH,ComponentDrill
T3C0.400
; #@! TA.AperFunction,Plated,PTH,ComponentDrill
T4C0.600
; #@! TA.AperFunction,Plated,PTH,ComponentDrill
T5C0.650
; #@! TA.AperFunction,Plated,PTH,ComponentDrill
T6C0.700
; #@! TA.AperFunction,Plated,PTH,ComponentDrill
T7C0.750
; #@! TA.AperFunction,NonPlated,NPTH,ComponentDrill
T8C2.700
%
G90
G05
T1
X-9.065Y13.703
X-7.53Y-23.857
X-5.244Y-23.857
X-2.197Y4.278
X-2.158Y-10.205
X-1.361Y-22.047
X1.666Y-21.533
X3.749Y-17.389
X7.722Y-8.086
X9.963Y-21.671
X10.135Y13.747
X10.151Y4.895
X10.516Y-13.191
X10.954Y0.634
X11.087Y13.835
X11.127Y-11.343
X11.412Y18.002
X12.492Y-9.666
X13.696Y-13.89
X13.785Y-19.741
X15.885Y13.6
X15.903Y-7.752
X16.849Y-0.234
X18.75Y2.62
X19.445Y0.579
T2
X-10.21Y-19.682
X3.76Y-11.081
X6.754Y-10.928
X7.251Y-1.136
T3
X-2.975Y-24.275
X-2.975Y-25.625
X-2.125Y-24.275
X-2.125Y-25.625
X-1.275Y-24.275
X-1.275Y-25.625
X-0.425Y-24.275
X-0.425Y-25.625
X0.425Y-24.275
X0.425Y-25.625
X1.275Y-24.275
X1.275Y-25.625
X2.125Y-24.275
X2.125Y-25.625
X2.975Y-24.275
X2.975Y-25.625
T5
X0.0Y2.725
X0.0Y1.455
X0.0Y0.185
X0.0Y-1.085
X0.0Y-2.355
X0.0Y-3.625
X0.0Y-4.895
X0.0Y-6.165
X0.0Y-7.435
X0.0Y-8.705
T6
X-14.825Y14.05
X-14.825Y12.78
X-14.825Y11.51
X-14.825Y10.24
X-14.825Y8.97
X-14.825Y7.7
X-14.825Y6.43
X-14.825Y5.16
X-14.825Y3.89
X-14.825Y2.62
X-14.825Y1.35
X-14.825Y0.08
X-14.825Y-1.19
X-14.825Y-2.46
X-14.825Y-3.73
X-14.825Y-5.0
X-14.825Y-6.27
X-14.825Y-7.54
X-14.825Y-8.81
X-14.825Y-10.08
X-13.555Y14.05
X-13.555Y12.78
X-13.555Y11.51
X-13.555Y10.24
X-13.555Y8.97
X-13.555Y7.7
X-13.555Y6.43
X-13.555Y5.16
X-13.555Y3.89
X-13.555Y2.62
X-13.555Y1.35
X-13.555Y0.08
X-13.555Y-1.19
X-13.555Y-2.46
X-13.555Y-3.73
X-13.555Y-5.0
X-13.555Y-6.27
X-13.555Y-7.54
X-13.555Y-8.81
X-13.555Y-10.08
X13.575Y14.05
X13.575Y12.78
X13.575Y11.51
X13.575Y10.24
X13.575Y8.97
X13.575Y7.7
X13.575Y6.43
X13.575Y5.16
X13.575Y3.89
X13.575Y2.62
X13.575Y1.35
X13.575Y0.08
X13.575Y-1.19
X13.575Y-2.46
X13.575Y-3.73
X13.575Y-5.0
X13.575Y-6.27
X13.575Y-7.54
X13.575Y-8.81
X13.575Y-10.08
X14.845Y14.05
X14.845Y12.78
X14.845Y11.51
X14.845Y10.24
X14.845Y8.97
X14.845Y7.7
X14.845Y6.43
X14.845Y5.16
X14.845Y3.89
X14.845Y2.62
X14.845Y1.35
X14.845Y0.08
X14.845Y-1.19
X14.845Y-2.46
X14.845Y-3.73
X14.845Y-5.0
X14.845Y-6.27
X14.845Y-7.54
X14.845Y-8.81
X14.845Y-10.08
T7
X-9.3Y-12.75
X-7.3Y-12.75
X-5.3Y-12.75
X-3.3Y-12.75
X-1.3Y-12.75
X8.35Y-11.6
X8.35Y-13.6
T8
X-21.5Y0.0
X21.5Y0.0
T4
X-4.325Y-21.665G85X-4.325Y-20.865
G05
X-4.325Y-25.395G85X-4.325Y-23.895
G05
X4.325Y-21.665G85X4.325Y-20.865
G05
X4.325Y-25.395G85X4.325Y-23.895
G05
M30
