%TF.GenerationSoftware,KiCad,Pcbnew,7.0.11+dfsg-1build4*%
%TF.CreationDate,2026-08-14T18:45:04+00:00*%
%TF.ProjectId,top_ui,746f705f-7569-42e6-9b69-6361645f7063,rev?*%
%TF.SameCoordinates,Original*%
%TF.FileFunction,Legend,Top*%
%TF.FilePolarity,Positive*%
%FSLAX46Y46*%
G04 Gerber Fmt 4.6, Leading zero omitted, Abs format (unit mm)*
G04 Created by KiCad (PCBNEW 7.0.11+dfsg-1build4) date 2026-08-14 18:45:04*
%MOMM*%
%LPD*%
G01*
G04 APERTURE LIST*
%ADD10C,0.150000*%
%ADD11C,0.120000*%
G04 APERTURE END LIST*
D10*
X-1600000Y21800000D02*
X1600000Y21800000D01*
X1600000Y21800000D02*
X0Y24000000D01*
X0Y24000000D02*
X-1600000Y21800000D01*
X20738095Y3245180D02*
X20738095Y4245180D01*
X20738095Y3768990D02*
X21309523Y3768990D01*
X21309523Y3245180D02*
X21309523Y4245180D01*
X22309523Y3245180D02*
X21738095Y3245180D01*
X22023809Y3245180D02*
X22023809Y4245180D01*
X22023809Y4245180D02*
X21928571Y4102323D01*
X21928571Y4102323D02*
X21833333Y4007085D01*
X21833333Y4007085D02*
X21738095Y3959466D01*
X-5633332Y-9304819D02*
X-5633332Y-10019104D01*
X-5633332Y-10019104D02*
X-5680951Y-10161961D01*
X-5680951Y-10161961D02*
X-5776189Y-10257200D01*
X-5776189Y-10257200D02*
X-5919046Y-10304819D01*
X-5919046Y-10304819D02*
X-6014284Y-10304819D01*
X-5252379Y-9304819D02*
X-4585713Y-9304819D01*
X-4585713Y-9304819D02*
X-5014284Y-10304819D01*
X-14523333Y16730179D02*
X-14523333Y16015894D01*
X-14523333Y16015894D02*
X-14570952Y15873037D01*
X-14570952Y15873037D02*
X-14666190Y15777799D01*
X-14666190Y15777799D02*
X-14809047Y15730179D01*
X-14809047Y15730179D02*
X-14904285Y15730179D01*
X-14094761Y16634941D02*
X-14047142Y16682560D01*
X-14047142Y16682560D02*
X-13951904Y16730179D01*
X-13951904Y16730179D02*
X-13713809Y16730179D01*
X-13713809Y16730179D02*
X-13618571Y16682560D01*
X-13618571Y16682560D02*
X-13570952Y16634941D01*
X-13570952Y16634941D02*
X-13523333Y16539703D01*
X-13523333Y16539703D02*
X-13523333Y16444465D01*
X-13523333Y16444465D02*
X-13570952Y16301608D01*
X-13570952Y16301608D02*
X-14142380Y15730179D01*
X-14142380Y15730179D02*
X-13523333Y15730179D01*
X-12294484Y22514151D02*
X-12151627Y22466531D01*
X-12151627Y22466531D02*
X-11913532Y22466531D01*
X-11913532Y22466531D02*
X-11818294Y22514151D01*
X-11818294Y22514151D02*
X-11770675Y22561770D01*
X-11770675Y22561770D02*
X-11723056Y22657008D01*
X-11723056Y22657008D02*
X-11723056Y22752246D01*
X-11723056Y22752246D02*
X-11770675Y22847484D01*
X-11770675Y22847484D02*
X-11818294Y22895103D01*
X-11818294Y22895103D02*
X-11913532Y22942722D01*
X-11913532Y22942722D02*
X-12104008Y22990341D01*
X-12104008Y22990341D02*
X-12199246Y23037960D01*
X-12199246Y23037960D02*
X-12246865Y23085579D01*
X-12246865Y23085579D02*
X-12294484Y23180817D01*
X-12294484Y23180817D02*
X-12294484Y23276055D01*
X-12294484Y23276055D02*
X-12246865Y23371293D01*
X-12246865Y23371293D02*
X-12199246Y23418912D01*
X-12199246Y23418912D02*
X-12104008Y23466531D01*
X-12104008Y23466531D02*
X-11865913Y23466531D01*
X-11865913Y23466531D02*
X-11723056Y23418912D01*
X-11389722Y23466531D02*
X-11151627Y22466531D01*
X-11151627Y22466531D02*
X-10961151Y23180817D01*
X-10961151Y23180817D02*
X-10770675Y22466531D01*
X-10770675Y22466531D02*
X-10532580Y23466531D01*
X-10199246Y23371293D02*
X-10151627Y23418912D01*
X-10151627Y23418912D02*
X-10056389Y23466531D01*
X-10056389Y23466531D02*
X-9818294Y23466531D01*
X-9818294Y23466531D02*
X-9723056Y23418912D01*
X-9723056Y23418912D02*
X-9675437Y23371293D01*
X-9675437Y23371293D02*
X-9627818Y23276055D01*
X-9627818Y23276055D02*
X-9627818Y23180817D01*
X-9627818Y23180817D02*
X-9675437Y23037960D01*
X-9675437Y23037960D02*
X-10246865Y22466531D01*
X-10246865Y22466531D02*
X-9627818Y22466531D01*
X-9246865Y22752246D02*
X-8770675Y22752246D01*
X-9342103Y22466531D02*
X-9008770Y23466531D01*
X-9008770Y23466531D02*
X-8675437Y22466531D01*
X-333333Y4965179D02*
X-333333Y4250894D01*
X-333333Y4250894D02*
X-380952Y4108037D01*
X-380952Y4108037D02*
X-476190Y4012799D01*
X-476190Y4012799D02*
X-619047Y3965179D01*
X-619047Y3965179D02*
X-714285Y3965179D01*
X619047Y4965179D02*
X142857Y4965179D01*
X142857Y4965179D02*
X95238Y4488989D01*
X95238Y4488989D02*
X142857Y4536608D01*
X142857Y4536608D02*
X238095Y4584227D01*
X238095Y4584227D02*
X476190Y4584227D01*
X476190Y4584227D02*
X571428Y4536608D01*
X571428Y4536608D02*
X619047Y4488989D01*
X619047Y4488989D02*
X666666Y4393751D01*
X666666Y4393751D02*
X666666Y4155656D01*
X666666Y4155656D02*
X619047Y4060418D01*
X619047Y4060418D02*
X571428Y4012799D01*
X571428Y4012799D02*
X476190Y3965179D01*
X476190Y3965179D02*
X238095Y3965179D01*
X238095Y3965179D02*
X142857Y4012799D01*
X142857Y4012799D02*
X95238Y4060418D01*
X-12365912Y-18828551D02*
X-12223055Y-18876170D01*
X-12223055Y-18876170D02*
X-11984960Y-18876170D01*
X-11984960Y-18876170D02*
X-11889722Y-18828551D01*
X-11889722Y-18828551D02*
X-11842103Y-18780931D01*
X-11842103Y-18780931D02*
X-11794484Y-18685693D01*
X-11794484Y-18685693D02*
X-11794484Y-18590455D01*
X-11794484Y-18590455D02*
X-11842103Y-18495217D01*
X-11842103Y-18495217D02*
X-11889722Y-18447598D01*
X-11889722Y-18447598D02*
X-11984960Y-18399979D01*
X-11984960Y-18399979D02*
X-12175436Y-18352360D01*
X-12175436Y-18352360D02*
X-12270674Y-18304741D01*
X-12270674Y-18304741D02*
X-12318293Y-18257122D01*
X-12318293Y-18257122D02*
X-12365912Y-18161884D01*
X-12365912Y-18161884D02*
X-12365912Y-18066646D01*
X-12365912Y-18066646D02*
X-12318293Y-17971408D01*
X-12318293Y-17971408D02*
X-12270674Y-17923789D01*
X-12270674Y-17923789D02*
X-12175436Y-17876170D01*
X-12175436Y-17876170D02*
X-11937341Y-17876170D01*
X-11937341Y-17876170D02*
X-11794484Y-17923789D01*
X-11461150Y-17876170D02*
X-11223055Y-18876170D01*
X-11223055Y-18876170D02*
X-11032579Y-18161884D01*
X-11032579Y-18161884D02*
X-10842103Y-18876170D01*
X-10842103Y-18876170D02*
X-10604008Y-17876170D01*
X-10318293Y-17876170D02*
X-9699246Y-17876170D01*
X-9699246Y-17876170D02*
X-10032579Y-18257122D01*
X-10032579Y-18257122D02*
X-9889722Y-18257122D01*
X-9889722Y-18257122D02*
X-9794484Y-18304741D01*
X-9794484Y-18304741D02*
X-9746865Y-18352360D01*
X-9746865Y-18352360D02*
X-9699246Y-18447598D01*
X-9699246Y-18447598D02*
X-9699246Y-18685693D01*
X-9699246Y-18685693D02*
X-9746865Y-18780931D01*
X-9746865Y-18780931D02*
X-9794484Y-18828551D01*
X-9794484Y-18828551D02*
X-9889722Y-18876170D01*
X-9889722Y-18876170D02*
X-10175436Y-18876170D01*
X-10175436Y-18876170D02*
X-10270674Y-18828551D01*
X-10270674Y-18828551D02*
X-10318293Y-18780931D01*
X-8937341Y-18352360D02*
X-8794484Y-18399979D01*
X-8794484Y-18399979D02*
X-8746865Y-18447598D01*
X-8746865Y-18447598D02*
X-8699246Y-18542836D01*
X-8699246Y-18542836D02*
X-8699246Y-18685693D01*
X-8699246Y-18685693D02*
X-8746865Y-18780931D01*
X-8746865Y-18780931D02*
X-8794484Y-18828551D01*
X-8794484Y-18828551D02*
X-8889722Y-18876170D01*
X-8889722Y-18876170D02*
X-9270674Y-18876170D01*
X-9270674Y-18876170D02*
X-9270674Y-17876170D01*
X-9270674Y-17876170D02*
X-8937341Y-17876170D01*
X-8937341Y-17876170D02*
X-8842103Y-17923789D01*
X-8842103Y-17923789D02*
X-8794484Y-17971408D01*
X-8794484Y-17971408D02*
X-8746865Y-18066646D01*
X-8746865Y-18066646D02*
X-8746865Y-18161884D01*
X-8746865Y-18161884D02*
X-8794484Y-18257122D01*
X-8794484Y-18257122D02*
X-8842103Y-18304741D01*
X-8842103Y-18304741D02*
X-8937341Y-18352360D01*
X-8937341Y-18352360D02*
X-9270674Y-18352360D01*
X-22514151Y8699247D02*
X-22466531Y8842104D01*
X-22466531Y8842104D02*
X-22466531Y9080199D01*
X-22466531Y9080199D02*
X-22514151Y9175437D01*
X-22514151Y9175437D02*
X-22561770Y9223056D01*
X-22561770Y9223056D02*
X-22657008Y9270675D01*
X-22657008Y9270675D02*
X-22752246Y9270675D01*
X-22752246Y9270675D02*
X-22847484Y9223056D01*
X-22847484Y9223056D02*
X-22895103Y9175437D01*
X-22895103Y9175437D02*
X-22942722Y9080199D01*
X-22942722Y9080199D02*
X-22990341Y8889723D01*
X-22990341Y8889723D02*
X-23037960Y8794485D01*
X-23037960Y8794485D02*
X-23085579Y8746866D01*
X-23085579Y8746866D02*
X-23180817Y8699247D01*
X-23180817Y8699247D02*
X-23276055Y8699247D01*
X-23276055Y8699247D02*
X-23371293Y8746866D01*
X-23371293Y8746866D02*
X-23418912Y8794485D01*
X-23418912Y8794485D02*
X-23466531Y8889723D01*
X-23466531Y8889723D02*
X-23466531Y9127818D01*
X-23466531Y9127818D02*
X-23418912Y9270675D01*
X-23466531Y9604009D02*
X-22466531Y9842104D01*
X-22466531Y9842104D02*
X-23180817Y10032580D01*
X-23180817Y10032580D02*
X-22466531Y10223056D01*
X-22466531Y10223056D02*
X-23466531Y10461152D01*
X-23371293Y10794485D02*
X-23418912Y10842104D01*
X-23418912Y10842104D02*
X-23466531Y10937342D01*
X-23466531Y10937342D02*
X-23466531Y11175437D01*
X-23466531Y11175437D02*
X-23418912Y11270675D01*
X-23418912Y11270675D02*
X-23371293Y11318294D01*
X-23371293Y11318294D02*
X-23276055Y11365913D01*
X-23276055Y11365913D02*
X-23180817Y11365913D01*
X-23180817Y11365913D02*
X-23037960Y11318294D01*
X-23037960Y11318294D02*
X-22466531Y10746866D01*
X-22466531Y10746866D02*
X-22466531Y11365913D01*
X-22990341Y12127818D02*
X-22942722Y12270675D01*
X-22942722Y12270675D02*
X-22895103Y12318294D01*
X-22895103Y12318294D02*
X-22799865Y12365913D01*
X-22799865Y12365913D02*
X-22657008Y12365913D01*
X-22657008Y12365913D02*
X-22561770Y12318294D01*
X-22561770Y12318294D02*
X-22514151Y12270675D01*
X-22514151Y12270675D02*
X-22466531Y12175437D01*
X-22466531Y12175437D02*
X-22466531Y11794485D01*
X-22466531Y11794485D02*
X-23466531Y11794485D01*
X-23466531Y11794485D02*
X-23466531Y12127818D01*
X-23466531Y12127818D02*
X-23418912Y12223056D01*
X-23418912Y12223056D02*
X-23371293Y12270675D01*
X-23371293Y12270675D02*
X-23276055Y12318294D01*
X-23276055Y12318294D02*
X-23180817Y12318294D01*
X-23180817Y12318294D02*
X-23085579Y12270675D01*
X-23085579Y12270675D02*
X-23037960Y12223056D01*
X-23037960Y12223056D02*
X-22990341Y12127818D01*
X-22990341Y12127818D02*
X-22990341Y11794485D01*
X8699247Y22514151D02*
X8842104Y22466531D01*
X8842104Y22466531D02*
X9080199Y22466531D01*
X9080199Y22466531D02*
X9175437Y22514151D01*
X9175437Y22514151D02*
X9223056Y22561770D01*
X9223056Y22561770D02*
X9270675Y22657008D01*
X9270675Y22657008D02*
X9270675Y22752246D01*
X9270675Y22752246D02*
X9223056Y22847484D01*
X9223056Y22847484D02*
X9175437Y22895103D01*
X9175437Y22895103D02*
X9080199Y22942722D01*
X9080199Y22942722D02*
X8889723Y22990341D01*
X8889723Y22990341D02*
X8794485Y23037960D01*
X8794485Y23037960D02*
X8746866Y23085579D01*
X8746866Y23085579D02*
X8699247Y23180817D01*
X8699247Y23180817D02*
X8699247Y23276055D01*
X8699247Y23276055D02*
X8746866Y23371293D01*
X8746866Y23371293D02*
X8794485Y23418912D01*
X8794485Y23418912D02*
X8889723Y23466531D01*
X8889723Y23466531D02*
X9127818Y23466531D01*
X9127818Y23466531D02*
X9270675Y23418912D01*
X9604009Y23466531D02*
X9842104Y22466531D01*
X9842104Y22466531D02*
X10032580Y23180817D01*
X10032580Y23180817D02*
X10223056Y22466531D01*
X10223056Y22466531D02*
X10461152Y23466531D01*
X11365913Y22466531D02*
X10794485Y22466531D01*
X11080199Y22466531D02*
X11080199Y23466531D01*
X11080199Y23466531D02*
X10984961Y23323674D01*
X10984961Y23323674D02*
X10889723Y23228436D01*
X10889723Y23228436D02*
X10794485Y23180817D01*
X12127818Y22990341D02*
X12270675Y22942722D01*
X12270675Y22942722D02*
X12318294Y22895103D01*
X12318294Y22895103D02*
X12365913Y22799865D01*
X12365913Y22799865D02*
X12365913Y22657008D01*
X12365913Y22657008D02*
X12318294Y22561770D01*
X12318294Y22561770D02*
X12270675Y22514151D01*
X12270675Y22514151D02*
X12175437Y22466531D01*
X12175437Y22466531D02*
X11794485Y22466531D01*
X11794485Y22466531D02*
X11794485Y23466531D01*
X11794485Y23466531D02*
X12127818Y23466531D01*
X12127818Y23466531D02*
X12223056Y23418912D01*
X12223056Y23418912D02*
X12270675Y23371293D01*
X12270675Y23371293D02*
X12318294Y23276055D01*
X12318294Y23276055D02*
X12318294Y23180817D01*
X12318294Y23180817D02*
X12270675Y23085579D01*
X12270675Y23085579D02*
X12223056Y23037960D01*
X12223056Y23037960D02*
X12127818Y22990341D01*
X12127818Y22990341D02*
X11794485Y22990341D01*
X-22514151Y-12294484D02*
X-22466531Y-12151627D01*
X-22466531Y-12151627D02*
X-22466531Y-11913532D01*
X-22466531Y-11913532D02*
X-22514151Y-11818294D01*
X-22514151Y-11818294D02*
X-22561770Y-11770675D01*
X-22561770Y-11770675D02*
X-22657008Y-11723056D01*
X-22657008Y-11723056D02*
X-22752246Y-11723056D01*
X-22752246Y-11723056D02*
X-22847484Y-11770675D01*
X-22847484Y-11770675D02*
X-22895103Y-11818294D01*
X-22895103Y-11818294D02*
X-22942722Y-11913532D01*
X-22942722Y-11913532D02*
X-22990341Y-12104008D01*
X-22990341Y-12104008D02*
X-23037960Y-12199246D01*
X-23037960Y-12199246D02*
X-23085579Y-12246865D01*
X-23085579Y-12246865D02*
X-23180817Y-12294484D01*
X-23180817Y-12294484D02*
X-23276055Y-12294484D01*
X-23276055Y-12294484D02*
X-23371293Y-12246865D01*
X-23371293Y-12246865D02*
X-23418912Y-12199246D01*
X-23418912Y-12199246D02*
X-23466531Y-12104008D01*
X-23466531Y-12104008D02*
X-23466531Y-11865913D01*
X-23466531Y-11865913D02*
X-23418912Y-11723056D01*
X-23466531Y-11389722D02*
X-22466531Y-11151627D01*
X-22466531Y-11151627D02*
X-23180817Y-10961151D01*
X-23180817Y-10961151D02*
X-22466531Y-10770675D01*
X-22466531Y-10770675D02*
X-23466531Y-10532580D01*
X-23466531Y-10246865D02*
X-23466531Y-9627818D01*
X-23466531Y-9627818D02*
X-23085579Y-9961151D01*
X-23085579Y-9961151D02*
X-23085579Y-9818294D01*
X-23085579Y-9818294D02*
X-23037960Y-9723056D01*
X-23037960Y-9723056D02*
X-22990341Y-9675437D01*
X-22990341Y-9675437D02*
X-22895103Y-9627818D01*
X-22895103Y-9627818D02*
X-22657008Y-9627818D01*
X-22657008Y-9627818D02*
X-22561770Y-9675437D01*
X-22561770Y-9675437D02*
X-22514151Y-9723056D01*
X-22514151Y-9723056D02*
X-22466531Y-9818294D01*
X-22466531Y-9818294D02*
X-22466531Y-10104008D01*
X-22466531Y-10104008D02*
X-22514151Y-10199246D01*
X-22514151Y-10199246D02*
X-22561770Y-10246865D01*
X-22752246Y-9246865D02*
X-22752246Y-8770675D01*
X-22466531Y-9342103D02*
X-23466531Y-9008770D01*
X-23466531Y-9008770D02*
X-22466531Y-8675437D01*
X18828551Y-12365912D02*
X18876170Y-12223055D01*
X18876170Y-12223055D02*
X18876170Y-11984960D01*
X18876170Y-11984960D02*
X18828551Y-11889722D01*
X18828551Y-11889722D02*
X18780931Y-11842103D01*
X18780931Y-11842103D02*
X18685693Y-11794484D01*
X18685693Y-11794484D02*
X18590455Y-11794484D01*
X18590455Y-11794484D02*
X18495217Y-11842103D01*
X18495217Y-11842103D02*
X18447598Y-11889722D01*
X18447598Y-11889722D02*
X18399979Y-11984960D01*
X18399979Y-11984960D02*
X18352360Y-12175436D01*
X18352360Y-12175436D02*
X18304741Y-12270674D01*
X18304741Y-12270674D02*
X18257122Y-12318293D01*
X18257122Y-12318293D02*
X18161884Y-12365912D01*
X18161884Y-12365912D02*
X18066646Y-12365912D01*
X18066646Y-12365912D02*
X17971408Y-12318293D01*
X17971408Y-12318293D02*
X17923789Y-12270674D01*
X17923789Y-12270674D02*
X17876170Y-12175436D01*
X17876170Y-12175436D02*
X17876170Y-11937341D01*
X17876170Y-11937341D02*
X17923789Y-11794484D01*
X17876170Y-11461150D02*
X18876170Y-11223055D01*
X18876170Y-11223055D02*
X18161884Y-11032579D01*
X18161884Y-11032579D02*
X18876170Y-10842103D01*
X18876170Y-10842103D02*
X17876170Y-10604008D01*
X18209503Y-9794484D02*
X18876170Y-9794484D01*
X17828551Y-10032579D02*
X18542836Y-10270674D01*
X18542836Y-10270674D02*
X18542836Y-9651627D01*
X18352360Y-8937341D02*
X18399979Y-8794484D01*
X18399979Y-8794484D02*
X18447598Y-8746865D01*
X18447598Y-8746865D02*
X18542836Y-8699246D01*
X18542836Y-8699246D02*
X18685693Y-8699246D01*
X18685693Y-8699246D02*
X18780931Y-8746865D01*
X18780931Y-8746865D02*
X18828551Y-8794484D01*
X18828551Y-8794484D02*
X18876170Y-8889722D01*
X18876170Y-8889722D02*
X18876170Y-9270674D01*
X18876170Y-9270674D02*
X17876170Y-9270674D01*
X17876170Y-9270674D02*
X17876170Y-8937341D01*
X17876170Y-8937341D02*
X17923789Y-8842103D01*
X17923789Y-8842103D02*
X17971408Y-8794484D01*
X17971408Y-8794484D02*
X18066646Y-8746865D01*
X18066646Y-8746865D02*
X18161884Y-8746865D01*
X18161884Y-8746865D02*
X18257122Y-8794484D01*
X18257122Y-8794484D02*
X18304741Y-8842103D01*
X18304741Y-8842103D02*
X18352360Y-8937341D01*
X18352360Y-8937341D02*
X18352360Y-9270674D01*
X18828551Y8770675D02*
X18876170Y8913532D01*
X18876170Y8913532D02*
X18876170Y9151627D01*
X18876170Y9151627D02*
X18828551Y9246865D01*
X18828551Y9246865D02*
X18780931Y9294484D01*
X18780931Y9294484D02*
X18685693Y9342103D01*
X18685693Y9342103D02*
X18590455Y9342103D01*
X18590455Y9342103D02*
X18495217Y9294484D01*
X18495217Y9294484D02*
X18447598Y9246865D01*
X18447598Y9246865D02*
X18399979Y9151627D01*
X18399979Y9151627D02*
X18352360Y8961151D01*
X18352360Y8961151D02*
X18304741Y8865913D01*
X18304741Y8865913D02*
X18257122Y8818294D01*
X18257122Y8818294D02*
X18161884Y8770675D01*
X18161884Y8770675D02*
X18066646Y8770675D01*
X18066646Y8770675D02*
X17971408Y8818294D01*
X17971408Y8818294D02*
X17923789Y8865913D01*
X17923789Y8865913D02*
X17876170Y8961151D01*
X17876170Y8961151D02*
X17876170Y9199246D01*
X17876170Y9199246D02*
X17923789Y9342103D01*
X17876170Y9675437D02*
X18876170Y9913532D01*
X18876170Y9913532D02*
X18161884Y10104008D01*
X18161884Y10104008D02*
X18876170Y10294484D01*
X18876170Y10294484D02*
X17876170Y10532580D01*
X18876170Y11437341D02*
X18876170Y10865913D01*
X18876170Y11151627D02*
X17876170Y11151627D01*
X17876170Y11151627D02*
X18019027Y11056389D01*
X18019027Y11056389D02*
X18114265Y10961151D01*
X18114265Y10961151D02*
X18161884Y10865913D01*
X18590455Y11818294D02*
X18590455Y12294484D01*
X18876170Y11723056D02*
X17876170Y12056389D01*
X17876170Y12056389D02*
X18876170Y12389722D01*
X-333333Y-26879819D02*
X-333333Y-27594104D01*
X-333333Y-27594104D02*
X-380952Y-27736961D01*
X-380952Y-27736961D02*
X-476190Y-27832200D01*
X-476190Y-27832200D02*
X-619047Y-27879819D01*
X-619047Y-27879819D02*
X-714285Y-27879819D01*
X666666Y-27879819D02*
X95238Y-27879819D01*
X380952Y-27879819D02*
X380952Y-26879819D01*
X380952Y-26879819D02*
X285714Y-27022676D01*
X285714Y-27022676D02*
X190476Y-27117914D01*
X190476Y-27117914D02*
X95238Y-27165533D01*
X13876665Y16730179D02*
X13876665Y16015894D01*
X13876665Y16015894D02*
X13829046Y15873037D01*
X13829046Y15873037D02*
X13733808Y15777799D01*
X13733808Y15777799D02*
X13590951Y15730179D01*
X13590951Y15730179D02*
X13495713Y15730179D01*
X14257618Y16730179D02*
X14876665Y16730179D01*
X14876665Y16730179D02*
X14543332Y16349227D01*
X14543332Y16349227D02*
X14686189Y16349227D01*
X14686189Y16349227D02*
X14781427Y16301608D01*
X14781427Y16301608D02*
X14829046Y16253989D01*
X14829046Y16253989D02*
X14876665Y16158751D01*
X14876665Y16158751D02*
X14876665Y15920656D01*
X14876665Y15920656D02*
X14829046Y15825418D01*
X14829046Y15825418D02*
X14781427Y15777799D01*
X14781427Y15777799D02*
X14686189Y15730179D01*
X14686189Y15730179D02*
X14400475Y15730179D01*
X14400475Y15730179D02*
X14305237Y15777799D01*
X14305237Y15777799D02*
X14257618Y15825418D01*
X4904819Y-12933333D02*
X5619104Y-12933333D01*
X5619104Y-12933333D02*
X5761961Y-12980952D01*
X5761961Y-12980952D02*
X5857200Y-13076190D01*
X5857200Y-13076190D02*
X5904819Y-13219047D01*
X5904819Y-13219047D02*
X5904819Y-13314285D01*
X4904819Y-12028571D02*
X4904819Y-12219047D01*
X4904819Y-12219047D02*
X4952438Y-12314285D01*
X4952438Y-12314285D02*
X5000057Y-12361904D01*
X5000057Y-12361904D02*
X5142914Y-12457142D01*
X5142914Y-12457142D02*
X5333390Y-12504761D01*
X5333390Y-12504761D02*
X5714342Y-12504761D01*
X5714342Y-12504761D02*
X5809580Y-12457142D01*
X5809580Y-12457142D02*
X5857200Y-12409523D01*
X5857200Y-12409523D02*
X5904819Y-12314285D01*
X5904819Y-12314285D02*
X5904819Y-12123809D01*
X5904819Y-12123809D02*
X5857200Y-12028571D01*
X5857200Y-12028571D02*
X5809580Y-11980952D01*
X5809580Y-11980952D02*
X5714342Y-11933333D01*
X5714342Y-11933333D02*
X5476247Y-11933333D01*
X5476247Y-11933333D02*
X5381009Y-11980952D01*
X5381009Y-11980952D02*
X5333390Y-12028571D01*
X5333390Y-12028571D02*
X5285771Y-12123809D01*
X5285771Y-12123809D02*
X5285771Y-12314285D01*
X5285771Y-12314285D02*
X5333390Y-12409523D01*
X5333390Y-12409523D02*
X5381009Y-12457142D01*
X5381009Y-12457142D02*
X5476247Y-12504761D01*
X-22261904Y3245180D02*
X-22261904Y4245180D01*
X-22261904Y3768990D02*
X-21690476Y3768990D01*
X-21690476Y3245180D02*
X-21690476Y4245180D01*
X-21261904Y4149942D02*
X-21214285Y4197561D01*
X-21214285Y4197561D02*
X-21119047Y4245180D01*
X-21119047Y4245180D02*
X-20880952Y4245180D01*
X-20880952Y4245180D02*
X-20785714Y4197561D01*
X-20785714Y4197561D02*
X-20738095Y4149942D01*
X-20738095Y4149942D02*
X-20690476Y4054704D01*
X-20690476Y4054704D02*
X-20690476Y3959466D01*
X-20690476Y3959466D02*
X-20738095Y3816609D01*
X-20738095Y3816609D02*
X-21309523Y3245180D01*
X-21309523Y3245180D02*
X-20690476Y3245180D01*
X8770675Y-18828551D02*
X8913532Y-18876170D01*
X8913532Y-18876170D02*
X9151627Y-18876170D01*
X9151627Y-18876170D02*
X9246865Y-18828551D01*
X9246865Y-18828551D02*
X9294484Y-18780931D01*
X9294484Y-18780931D02*
X9342103Y-18685693D01*
X9342103Y-18685693D02*
X9342103Y-18590455D01*
X9342103Y-18590455D02*
X9294484Y-18495217D01*
X9294484Y-18495217D02*
X9246865Y-18447598D01*
X9246865Y-18447598D02*
X9151627Y-18399979D01*
X9151627Y-18399979D02*
X8961151Y-18352360D01*
X8961151Y-18352360D02*
X8865913Y-18304741D01*
X8865913Y-18304741D02*
X8818294Y-18257122D01*
X8818294Y-18257122D02*
X8770675Y-18161884D01*
X8770675Y-18161884D02*
X8770675Y-18066646D01*
X8770675Y-18066646D02*
X8818294Y-17971408D01*
X8818294Y-17971408D02*
X8865913Y-17923789D01*
X8865913Y-17923789D02*
X8961151Y-17876170D01*
X8961151Y-17876170D02*
X9199246Y-17876170D01*
X9199246Y-17876170D02*
X9342103Y-17923789D01*
X9675437Y-17876170D02*
X9913532Y-18876170D01*
X9913532Y-18876170D02*
X10104008Y-18161884D01*
X10104008Y-18161884D02*
X10294484Y-18876170D01*
X10294484Y-18876170D02*
X10532580Y-17876170D01*
X11342103Y-18209503D02*
X11342103Y-18876170D01*
X11104008Y-17828551D02*
X10865913Y-18542836D01*
X10865913Y-18542836D02*
X11484960Y-18542836D01*
X11818294Y-18590455D02*
X12294484Y-18590455D01*
X11723056Y-18876170D02*
X12056389Y-17876170D01*
X12056389Y-17876170D02*
X12389722Y-18876170D01*
X-11261904Y15745180D02*
X-11261904Y14935657D01*
X-11261904Y14935657D02*
X-11214285Y14840419D01*
X-11214285Y14840419D02*
X-11166666Y14792800D01*
X-11166666Y14792800D02*
X-11071428Y14745180D01*
X-11071428Y14745180D02*
X-10880952Y14745180D01*
X-10880952Y14745180D02*
X-10785714Y14792800D01*
X-10785714Y14792800D02*
X-10738095Y14840419D01*
X-10738095Y14840419D02*
X-10690476Y14935657D01*
X-10690476Y14935657D02*
X-10690476Y15745180D01*
X-10261904Y15649942D02*
X-10214285Y15697561D01*
X-10214285Y15697561D02*
X-10119047Y15745180D01*
X-10119047Y15745180D02*
X-9880952Y15745180D01*
X-9880952Y15745180D02*
X-9785714Y15697561D01*
X-9785714Y15697561D02*
X-9738095Y15649942D01*
X-9738095Y15649942D02*
X-9690476Y15554704D01*
X-9690476Y15554704D02*
X-9690476Y15459466D01*
X-9690476Y15459466D02*
X-9738095Y15316609D01*
X-9738095Y15316609D02*
X-10309523Y14745180D01*
X-10309523Y14745180D02*
X-9690476Y14745180D01*
D11*
%TO.C,J7*%
X-11659999Y-10640000D02*
X-11659999Y-11890000D01*
X-11359999Y-10940000D02*
X-11359999Y-15660000D01*
X-11359999Y-12250000D02*
X-10749999Y-12250000D01*
X-11359999Y-13550000D02*
X-10749999Y-13550000D01*
X-11359999Y-15660000D02*
X760001Y-15660000D01*
X-10749999Y-11550000D02*
X-10749999Y-15050000D01*
X-10749999Y-15050000D02*
X150001Y-15050000D01*
X-10409999Y-10640000D02*
X-11659999Y-10640000D01*
X-9899999Y-10740000D02*
X-9899999Y-10940000D01*
X-9599999Y-10740000D02*
X-9899999Y-10740000D01*
X-9599999Y-10840000D02*
X-9899999Y-10840000D01*
X-9599999Y-10940000D02*
X-9599999Y-10740000D01*
X-8799999Y-10940000D02*
X-8799999Y-11550000D01*
X-8799999Y-11550000D02*
X-10749999Y-11550000D01*
X-8399999Y-14550000D02*
X-8199999Y-14550000D01*
X-8399999Y-15050000D02*
X-8399999Y-14550000D01*
X-8299999Y-15050000D02*
X-8299999Y-14550000D01*
X-8199999Y-14550000D02*
X-8199999Y-15050000D01*
X-6399999Y-14550000D02*
X-6199999Y-14550000D01*
X-6399999Y-15050000D02*
X-6399999Y-14550000D01*
X-6299999Y-15050000D02*
X-6299999Y-14550000D01*
X-6199999Y-14550000D02*
X-6199999Y-15050000D01*
X-4399999Y-14550000D02*
X-4199999Y-14550000D01*
X-4399999Y-15050000D02*
X-4399999Y-14550000D01*
X-4299999Y-15050000D02*
X-4299999Y-14550000D01*
X-4199999Y-14550000D02*
X-4199999Y-15050000D01*
X-2399999Y-14550000D02*
X-2199999Y-14550000D01*
X-2399999Y-15050000D02*
X-2399999Y-14550000D01*
X-2299999Y-15050000D02*
X-2299999Y-14550000D01*
X-2199999Y-14550000D02*
X-2199999Y-15050000D01*
X-1799999Y-11550000D02*
X-1799999Y-10940000D01*
X150001Y-11550000D02*
X-1799999Y-11550000D01*
X150001Y-15050000D02*
X150001Y-11550000D01*
X760001Y-10940000D02*
X-11359999Y-10940000D01*
X760001Y-12250000D02*
X150001Y-12250000D01*
X760001Y-13550000D02*
X150001Y-13550000D01*
X760001Y-15660000D02*
X760001Y-10940000D01*
%TO.C,J2*%
X-15775000Y14744999D02*
X-15775000Y-10775001D01*
X-15775000Y14744999D02*
X-15132530Y14744999D01*
X-15775000Y-10775001D02*
X-15132530Y-10775001D01*
X-14517470Y14744999D02*
X-14315000Y14744999D01*
X-14517470Y-10775001D02*
X-13862530Y-10775001D01*
X-13555000Y14809999D02*
X-12605000Y14809999D01*
X-13247470Y-10775001D02*
X-12605000Y-10775001D01*
X-12795000Y13414999D02*
X-12605000Y13414999D01*
X-12605000Y14809999D02*
X-12605000Y14049999D01*
X-12605000Y13414999D02*
X-12605000Y-10775001D01*
%TO.C,SW2A*%
X-12602580Y22241351D02*
X-8462580Y22241351D01*
X-12602580Y21941351D02*
X-12602580Y22241351D01*
X-12602580Y19101351D02*
X-12602580Y19401351D01*
X-8462580Y22241351D02*
X-8462580Y21941351D01*
X-8462580Y19401351D02*
X-8462580Y19101351D01*
X-8462580Y19101351D02*
X-12602580Y19101351D01*
%TO.C,J5*%
X-1110000Y3484999D02*
X0Y3484999D01*
X-1110000Y2724999D02*
X-1110000Y3484999D01*
X-1110000Y1964999D02*
X-1110000Y-9400001D01*
X-1110000Y1964999D02*
X-563471Y1964999D01*
X-1110000Y-9400001D02*
X-307530Y-9400001D01*
X307530Y-9400001D02*
X1110000Y-9400001D01*
X563471Y1964999D02*
X1110000Y1964999D01*
X1110000Y1964999D02*
X1110000Y-9400001D01*
%TO.C,SW3B*%
X-12602580Y-19101351D02*
X-8462580Y-19101351D01*
X-12602580Y-19401351D02*
X-12602580Y-19101351D01*
X-12602580Y-22241351D02*
X-12602580Y-21941351D01*
X-8462580Y-19101351D02*
X-8462580Y-19401351D01*
X-8462580Y-21941351D02*
X-8462580Y-22241351D01*
X-8462580Y-22241351D02*
X-12602580Y-22241351D01*
%TO.C,SW2B*%
X-22241351Y8462580D02*
X-22241351Y12602580D01*
X-21941351Y8462580D02*
X-22241351Y8462580D01*
X-19101351Y8462580D02*
X-19401351Y8462580D01*
X-22241351Y12602580D02*
X-21941351Y12602580D01*
X-19401351Y12602580D02*
X-19101351Y12602580D01*
X-19101351Y12602580D02*
X-19101351Y8462580D01*
%TO.C,SW1B*%
X8462580Y22241351D02*
X12602580Y22241351D01*
X8462580Y21941351D02*
X8462580Y22241351D01*
X8462580Y19101351D02*
X8462580Y19401351D01*
X12602580Y22241351D02*
X12602580Y21941351D01*
X12602580Y19401351D02*
X12602580Y19101351D01*
X12602580Y19101351D02*
X8462580Y19101351D01*
%TO.C,SW3A*%
X-22241351Y-12602580D02*
X-22241351Y-8462580D01*
X-21941351Y-12602580D02*
X-22241351Y-12602580D01*
X-19101351Y-12602580D02*
X-19401351Y-12602580D01*
X-22241351Y-8462580D02*
X-21941351Y-8462580D01*
X-19401351Y-8462580D02*
X-19101351Y-8462580D01*
X-19101351Y-8462580D02*
X-19101351Y-12602580D01*
%TO.C,SW4B*%
X19101351Y-12602580D02*
X19101351Y-8462580D01*
X19401351Y-12602580D02*
X19101351Y-12602580D01*
X22241351Y-12602580D02*
X21941351Y-12602580D01*
X19101351Y-8462580D02*
X19401351Y-8462580D01*
X21941351Y-8462580D02*
X22241351Y-8462580D01*
X22241351Y-8462580D02*
X22241351Y-12602580D01*
%TO.C,SW1A*%
X19101351Y8462580D02*
X19101351Y12602580D01*
X19401351Y8462580D02*
X19101351Y8462580D01*
X22241351Y8462580D02*
X21941351Y8462580D01*
X19101351Y12602580D02*
X19401351Y12602580D01*
X21941351Y12602580D02*
X22241351Y12602580D01*
X22241351Y12602580D02*
X22241351Y8462580D01*
%TO.C,J1*%
X4595000Y-23225000D02*
X4595000Y-22325000D01*
X4595000Y-19625000D02*
X4595000Y-16895000D01*
X4595000Y-16895000D02*
X-4595000Y-16895000D01*
X4475000Y-26305000D02*
X-4475000Y-26305000D01*
X-4595000Y-23225000D02*
X-4595000Y-22325000D01*
X-4595000Y-19625000D02*
X-4595000Y-16895000D01*
%TO.C,J3*%
X12624999Y14744999D02*
X12624999Y-10775001D01*
X12624999Y14744999D02*
X13267469Y14744999D01*
X12624999Y-10775001D02*
X13267469Y-10775001D01*
X13882529Y14744999D02*
X14084999Y14744999D01*
X13882529Y-10775001D02*
X14537469Y-10775001D01*
X14844999Y14809999D02*
X15794999Y14809999D01*
X15152529Y-10775001D02*
X15794999Y-10775001D01*
X15604999Y13414999D02*
X15794999Y13414999D01*
X15794999Y14809999D02*
X15794999Y14049999D01*
X15794999Y13414999D02*
X15794999Y-10775001D01*
%TO.C,J6*%
X6240000Y-15960000D02*
X7490000Y-15960000D01*
X6540000Y-15660000D02*
X11260000Y-15660000D01*
X7850000Y-15660000D02*
X7850000Y-15050000D01*
X9150000Y-15660000D02*
X9150000Y-15050000D01*
X11260000Y-15660000D02*
X11260000Y-9540000D01*
X7150000Y-15050000D02*
X10650000Y-15050000D01*
X10650000Y-15050000D02*
X10650000Y-10150000D01*
X6240000Y-14710000D02*
X6240000Y-15960000D01*
X6340000Y-14200000D02*
X6540000Y-14200000D01*
X6340000Y-13900000D02*
X6340000Y-14200000D01*
X6440000Y-13900000D02*
X6440000Y-14200000D01*
X6540000Y-13900000D02*
X6340000Y-13900000D01*
X6540000Y-13100000D02*
X7150000Y-13100000D01*
X7150000Y-13100000D02*
X7150000Y-15050000D01*
X10150000Y-12700000D02*
X10150000Y-12500000D01*
X10650000Y-12700000D02*
X10150000Y-12700000D01*
X10650000Y-12600000D02*
X10150000Y-12600000D01*
X10150000Y-12500000D02*
X10650000Y-12500000D01*
X7150000Y-12100000D02*
X6540000Y-12100000D01*
X7150000Y-10150000D02*
X7150000Y-12100000D01*
X10650000Y-10150000D02*
X7150000Y-10150000D01*
X6540000Y-9540000D02*
X6540000Y-15660000D01*
X7850000Y-9540000D02*
X7850000Y-10150000D01*
X9150000Y-9540000D02*
X9150000Y-10150000D01*
X11260000Y-9540000D02*
X6540000Y-9540000D01*
%TO.C,SW4A*%
X8462580Y-19101351D02*
X12602580Y-19101351D01*
X8462580Y-19401351D02*
X8462580Y-19101351D01*
X8462580Y-22241351D02*
X8462580Y-21941351D01*
X12602580Y-19101351D02*
X12602580Y-19401351D01*
X12602580Y-21941351D02*
X12602580Y-22241351D01*
X12602580Y-22241351D02*
X8462580Y-22241351D01*
%TO.C,U2*%
X-11250000Y14360000D02*
X-9750000Y14360000D01*
X-11250000Y12640000D02*
X-9750000Y12640000D01*
X-11700000Y14100000D02*
X-11980000Y14100000D01*
X-11700000Y14380000D01*
X-11700000Y14100000D01*
G36*
X-11700000Y14100000D02*
G01*
X-11980000Y14100000D01*
X-11700000Y14380000D01*
X-11700000Y14100000D01*
G37*
%TD*%
M02*
