%TF.GenerationSoftware,KiCad,Pcbnew,7.0.11+dfsg-1build4*%
%TF.CreationDate,2026-08-14T18:45:04+00:00*%
%TF.ProjectId,top_ui,746f705f-7569-42e6-9b69-6361645f7063,rev?*%
%TF.SameCoordinates,Original*%
%TF.FileFunction,Soldermask,Bot*%
%TF.FilePolarity,Negative*%
%FSLAX46Y46*%
G04 Gerber Fmt 4.6, Leading zero omitted, Abs format (unit mm)*
G04 Created by KiCad (PCBNEW 7.0.11+dfsg-1build4) date 2026-08-14 18:45:04*
%MOMM*%
%LPD*%
G01*
G04 APERTURE LIST*
G04 Aperture macros list*
%AMRoundRect*
0 Rectangle with rounded corners*
0 $1 Rounding radius*
0 $2 $3 $4 $5 $6 $7 $8 $9 X,Y pos of 4 corners*
0 Add a 4 corners polygon primitive as box body*
4,1,4,$2,$3,$4,$5,$6,$7,$8,$9,$2,$3,0*
0 Add four circle primitives for the rounded corners*
1,1,$1+$1,$2,$3*
1,1,$1+$1,$4,$5*
1,1,$1+$1,$6,$7*
1,1,$1+$1,$8,$9*
0 Add four rect primitives between the rounded corners*
20,1,$1+$1,$2,$3,$4,$5,0*
20,1,$1+$1,$4,$5,$6,$7,0*
20,1,$1+$1,$6,$7,$8,$9,0*
20,1,$1+$1,$8,$9,$2,$3,0*%
G04 Aperture macros list end*
%ADD10C,2.700000*%
%ADD11RoundRect,0.250000X-0.350000X-0.625000X0.350000X-0.625000X0.350000X0.625000X-0.350000X0.625000X0*%
%ADD12O,1.200000X1.750000*%
%ADD13R,1.000000X1.000000*%
%ADD14O,1.000000X1.000000*%
%ADD15C,0.700000*%
%ADD16O,0.900000X2.400000*%
%ADD17O,0.900000X1.700000*%
%ADD18RoundRect,0.250000X0.625000X-0.350000X0.625000X0.350000X-0.625000X0.350000X-0.625000X-0.350000X0*%
%ADD19O,1.750000X1.200000*%
%ADD20RoundRect,0.200000X0.275000X-0.200000X0.275000X0.200000X-0.275000X0.200000X-0.275000X-0.200000X0*%
%ADD21RoundRect,0.150000X-0.587500X-0.150000X0.587500X-0.150000X0.587500X0.150000X-0.587500X0.150000X0*%
%ADD22RoundRect,0.200000X-0.200000X-0.275000X0.200000X-0.275000X0.200000X0.275000X-0.200000X0.275000X0*%
%ADD23RoundRect,0.150000X0.150000X-0.512500X0.150000X0.512500X-0.150000X0.512500X-0.150000X-0.512500X0*%
%ADD24RoundRect,0.250000X-0.325000X-1.100000X0.325000X-1.100000X0.325000X1.100000X-0.325000X1.100000X0*%
%ADD25RoundRect,0.150000X0.150000X-0.587500X0.150000X0.587500X-0.150000X0.587500X-0.150000X-0.587500X0*%
%ADD26RoundRect,0.225000X0.250000X-0.225000X0.250000X0.225000X-0.250000X0.225000X-0.250000X-0.225000X0*%
G04 APERTURE END LIST*
D10*
%TO.C,H1*%
X21500000Y0D03*
%TD*%
D11*
%TO.C,J7*%
X-9299999Y-12750000D03*
D12*
X-7299999Y-12750000D03*
X-5299999Y-12750000D03*
X-3299999Y-12750000D03*
X-1299999Y-12750000D03*
%TD*%
D13*
%TO.C,J2*%
X-13555000Y14049999D03*
D14*
X-14825000Y14049999D03*
X-13555000Y12779999D03*
X-14825000Y12779999D03*
X-13555000Y11509999D03*
X-14825000Y11509999D03*
X-13555000Y10239999D03*
X-14825000Y10239999D03*
X-13555000Y8969999D03*
X-14825000Y8969999D03*
X-13555000Y7699999D03*
X-14825000Y7699999D03*
X-13555000Y6429999D03*
X-14825000Y6429999D03*
X-13555000Y5159999D03*
X-14825000Y5159999D03*
X-13555000Y3889999D03*
X-14825000Y3889999D03*
X-13555000Y2619999D03*
X-14825000Y2619999D03*
X-13555000Y1349999D03*
X-14825000Y1349999D03*
X-13555000Y79999D03*
X-14825000Y79999D03*
X-13555000Y-1190001D03*
X-14825000Y-1190001D03*
X-13555000Y-2460001D03*
X-14825000Y-2460001D03*
X-13555000Y-3730001D03*
X-14825000Y-3730001D03*
X-13555000Y-5000001D03*
X-14825000Y-5000001D03*
X-13555000Y-6270001D03*
X-14825000Y-6270001D03*
X-13555000Y-7540001D03*
X-14825000Y-7540001D03*
X-13555000Y-8810001D03*
X-14825000Y-8810001D03*
X-13555000Y-10080001D03*
X-14825000Y-10080001D03*
%TD*%
D13*
%TO.C,J5*%
X0Y2724999D03*
D14*
X0Y1454999D03*
X0Y184999D03*
X0Y-1085001D03*
X0Y-2355001D03*
X0Y-3625001D03*
X0Y-4895001D03*
X0Y-6165001D03*
X0Y-7435001D03*
X0Y-8705001D03*
%TD*%
D15*
%TO.C,J1*%
X2975000Y-25625000D03*
X2125000Y-25625000D03*
X1275000Y-25625000D03*
X425000Y-25625000D03*
X-425000Y-25625000D03*
X-1275000Y-25625000D03*
X-2125000Y-25625000D03*
X-2975000Y-25625000D03*
X-2975000Y-24275000D03*
X-2125000Y-24275000D03*
X-1275000Y-24275000D03*
X-425000Y-24275000D03*
X425000Y-24275000D03*
X1275000Y-24275000D03*
X2125000Y-24275000D03*
X2975000Y-24275000D03*
D16*
X4325000Y-24645000D03*
D17*
X4325000Y-21265000D03*
D16*
X-4325000Y-24645000D03*
D17*
X-4325000Y-21265000D03*
%TD*%
D13*
%TO.C,J3*%
X14844999Y14049999D03*
D14*
X13574999Y14049999D03*
X14844999Y12779999D03*
X13574999Y12779999D03*
X14844999Y11509999D03*
X13574999Y11509999D03*
X14844999Y10239999D03*
X13574999Y10239999D03*
X14844999Y8969999D03*
X13574999Y8969999D03*
X14844999Y7699999D03*
X13574999Y7699999D03*
X14844999Y6429999D03*
X13574999Y6429999D03*
X14844999Y5159999D03*
X13574999Y5159999D03*
X14844999Y3889999D03*
X13574999Y3889999D03*
X14844999Y2619999D03*
X13574999Y2619999D03*
X14844999Y1349999D03*
X13574999Y1349999D03*
X14844999Y79999D03*
X13574999Y79999D03*
X14844999Y-1190001D03*
X13574999Y-1190001D03*
X14844999Y-2460001D03*
X13574999Y-2460001D03*
X14844999Y-3730001D03*
X13574999Y-3730001D03*
X14844999Y-5000001D03*
X13574999Y-5000001D03*
X14844999Y-6270001D03*
X13574999Y-6270001D03*
X14844999Y-7540001D03*
X13574999Y-7540001D03*
X14844999Y-8810001D03*
X13574999Y-8810001D03*
X14844999Y-10080001D03*
X13574999Y-10080001D03*
%TD*%
D18*
%TO.C,J6*%
X8350000Y-13600000D03*
D19*
X8350000Y-11600000D03*
%TD*%
D10*
%TO.C,H2*%
X-21500000Y0D03*
%TD*%
D20*
%TO.C,R4*%
X6652332Y-7529609D03*
X6652332Y-5879609D03*
%TD*%
D21*
%TO.C,Q1*%
X2822288Y-15101809D03*
X2822288Y-13201809D03*
X4697288Y-14151809D03*
%TD*%
D22*
%TO.C,R3*%
X2934788Y-6651809D03*
X4584788Y-6651809D03*
%TD*%
D20*
%TO.C,R2*%
X8324395Y-22757579D03*
X8324395Y-21107579D03*
%TD*%
D23*
%TO.C,U1*%
X-6622930Y-22180887D03*
X-7572930Y-22180887D03*
X-8522930Y-22180887D03*
X-8522930Y-19905887D03*
X-7572930Y-19905887D03*
X-6622930Y-19905887D03*
%TD*%
D24*
%TO.C,C2*%
X7656417Y-18031635D03*
X10606417Y-18031635D03*
%TD*%
D25*
%TO.C,Q2*%
X4709788Y-11089309D03*
X2809788Y-11089309D03*
X3759788Y-9214309D03*
%TD*%
D26*
%TO.C,C1*%
X12800823Y-20424785D03*
X12800823Y-18874785D03*
%TD*%
D20*
%TO.C,R1*%
X6422200Y-23557456D03*
X6422200Y-21907456D03*
%TD*%
M02*
